<?xml version="1.0" encoding="UTF-8"?>
<svg width="247px" height="75px" viewBox="0 0 247 75" version="1.1" xmlns="http://www.w3.org/2000/svg" xmlns:xlink="http://www.w3.org/1999/xlink">
    <!-- Generator: Sketch 49.3 (51167) - http://www.bohemiancoding.com/sketch -->
    <title>logo-monochrome-grey</title>
    <desc>Created with Sketch.</desc>
    <defs></defs>
    <g id="Page-1" stroke="none" stroke-width="1" fill="none" fill-rule="evenodd">
        <g id="logo-monochrome-grey" fill="#A8B5C5" fill-rule="nonzero">
            <path d="M107,29 C107.133451,30.5119563 106.539366,31.9971705 105.4,33 C103.952148,33.9719675 102.218493,34.4265233 100.48,34.29 C99.7541432,34.2881063 99.0292138,34.2379959 98.31,34.14 C97.57,34.04 96.75,33.89 95.85,33.69 L95.85,30.28 C96.5822026,30.5343844 97.3349966,30.7250922 98.1,30.85 C98.8426818,30.9825342 99.5955855,31.049459 100.35,31.05 C101.128536,31.0963113 101.906856,30.9557336 102.62,30.64 C103.094271,30.4254695 103.396528,29.9504934 103.39,29.43 C103.388583,28.9771997 103.191739,28.5470593 102.85,28.25 C102.119918,27.7109866 101.310171,27.289243 100.45,27 C99.6959476,26.7142695 98.9610917,26.3802441 98.25,26 C97.7946682,25.7699333 97.3738943,25.4770746 97,25.13 C96.5188469,24.6869648 96.1400535,24.1443688 95.89,23.54 C95.6421193,22.9027948 95.5198726,22.2236466 95.53,21.54 C95.4227116,20.0299818 96.0165364,18.5546406 97.14,17.54 C98.5908445,16.5565982 100.332506,16.0947405 102.08,16.23 C102.771414,16.2317351 103.462297,16.2684487 104.15,16.34 C104.84,16.42 105.53,16.52 106.21,16.65 L106.21,20 C105.538739,19.7843826 104.849219,19.630412 104.15,19.54 C103.455024,19.4326953 102.753187,19.37588 102.05,19.37 C101.296213,19.3223049 100.542661,19.4668219 99.86,19.79 C99.4224596,20.0319926 99.1592052,20.5004306 99.18,21 C99.1742078,21.4765435 99.3747477,21.9323161 99.73,22.25 C100.457082,22.7996106 101.271915,23.2222418 102.14,23.5 C102.898692,23.7823449 103.637096,24.1164644 104.35,24.5 C104.791973,24.7409923 105.20186,25.0366486 105.57,25.38 C106.039357,25.8325348 106.39858,26.3867647 106.62,27 C106.870019,27.6372117 106.998893,28.3154952 107,29 Z M116.16,34.25 C114.342114,34.3716557 112.548426,33.7797385 111.16,32.6 C109.934957,31.3411621 109.299288,29.6230388 109.41,27.87 L109.41,16.48 L113.14,16.48 L113.14,27.53 C113.065861,28.4515187 113.313217,29.3702682 113.84,30.13 C115.179041,31.2216316 117.100959,31.2216316 118.44,30.13 C118.966783,29.3702682 119.214139,28.4515187 119.14,27.53 L119.14,16.53 L122.87,16.53 L122.87,27.85 C122.985817,29.603784 122.349404,31.3239194 121.12,32.58 C119.734116,33.7572549 117.944508,34.3490092 116.13,34.23 L116.16,34.25 Z M130.28,33.95 L126.52,33.95 L126.52,16.48 L133,16.48 C134.637476,16.3828047 136.248293,16.9281144 137.49,18 C138.623189,19.1582656 139.211941,20.7428099 139.11,22.36 C139.211607,23.9741674 138.622696,25.5555039 137.49,26.71 C136.249748,27.7863061 134.639764,28.3385055 133,28.25 L130.29,28.25 L130.28,33.95 Z M135.38,22.4 C135.434271,21.6463353 135.202141,20.8999479 134.73,20.31 C134.232053,19.8115644 133.54296,19.5526987 132.84,19.6 L130.28,19.6 L130.28,25.17 L132.84,25.17 C133.545391,25.2269473 134.240161,24.9709792 134.74,24.47 C135.20423,23.8775429 135.422659,23.1291568 135.35,22.38 L135.38,22.4 Z M145.38,33.95 L141.62,33.95 L141.62,16.48 L148.09,16.48 C149.741578,16.3677835 151.370368,16.9143091 152.62,18 C153.753189,19.1582656 154.341941,20.7428099 154.24,22.36 C154.341607,23.9741674 153.752696,25.5555039 152.62,26.71 C151.371245,27.7903015 149.747772,28.336248 148.1,28.23 L145.39,28.23 L145.38,33.95 Z M150.48,22.4 C150.534271,21.6463353 150.302141,20.8999479 149.83,20.31 C149.332053,19.8115644 148.64296,19.5526987 147.94,19.6 L145.38,19.6 L145.38,25.17 L148,25.17 C148.705014,25.2242164 149.398676,24.9686565 149.9,24.47 C150.35077,23.8714602 150.561239,23.1259012 150.49,22.38 L150.48,22.4 Z M160.48,30.85 L167.48,30.85 L167.48,33.95 L156.77,33.95 L156.77,16.48 L160.52,16.48 L160.48,30.85 Z M173.43,16.5 L173.43,33.93 L169.67,33.93 L169.67,16.48 L173.43,16.5 Z M188.02,33.95 L177.29,33.95 L177.29,16.48 L188.06,16.48 L188.06,19.58 L181.06,19.58 L181.06,23.4 L187.33,23.4 L187.33,26.6 L181,26.6 L181,30.83 L188,30.83 L188.02,33.95 Z M194.82,33.95 L191.1,33.95 L191.1,16.48 L197.72,16.48 C199.305988,16.3928741 200.866495,16.9070912 202.09,17.92 C203.199858,18.9434091 203.787891,20.4134915 203.69,21.92 C203.718595,22.9776239 203.43702,24.020492 202.88,24.92 C202.327891,25.7732793 201.524119,26.4337698 200.58,26.81 C201.2,27.73 201.82,28.74 202.45,29.81 C203.08,30.88 203.81,32.29 204.64,33.91 L200.41,33.91 C199.84,32.71 199.28,31.58 198.72,30.53 C198.16,29.48 197.59,28.53 197.02,27.53 L194.86,27.53 L194.82,33.95 Z M200,22 C200.035474,21.343081 199.787944,20.7024165 199.32,20.24 C198.807192,19.7922582 198.139739,19.562597 197.46,19.6 L194.9,19.6 L194.9,24.5 L197.49,24.5 C198.165256,24.5358689 198.827111,24.3020617 199.33,23.85 C199.803091,23.3547044 200.046223,22.6833715 200,22 Z M103.5,59.25 C100.733333,59.25 98.7333333,58.5233333 97.5,57.07 C96.2666667,55.6166667 95.6366667,53.3166667 95.61,50.17 C95.61,47.07 96.23,44.8 97.45,43.36 C98.67,41.92 100.64,41.2 103.33,41.2 C103.999179,41.1981135 104.66761,41.2449036 105.33,41.34 C105.919884,41.4161901 106.50206,41.5433319 107.07,41.72 L107.07,45 C106.499627,44.825293 105.91837,44.6883301 105.33,44.59 C104.761218,44.4983635 104.186115,44.4515528 103.61,44.45 C101.98,44.45 100.88,44.87 100.29,45.72 C99.5786025,47.0821647 99.269893,48.6187746 99.4,50.15 C99.2813619,51.7094814 99.6294675,53.2689942 100.4,54.63 C101.214815,55.5875511 102.449581,56.0814575 103.7,55.95 C104.269148,55.9499626 104.837464,55.9065032 105.4,55.82 C105.977955,55.7277378 106.549195,55.597455 107.11,55.43 L107.11,58.75 C106.577486,58.9123351 106.032216,59.0294176 105.48,59.1 C104.810983,59.1949332 104.135667,59.2383941 103.46,59.23 L103.5,59.25 Z M123.5,58.95 L119.75,58.95 L119.75,51.78 L113.38,51.78 L113.38,58.93 L109.62,58.93 L109.62,41.48 L113.38,41.48 L113.38,48.48 L119.75,48.48 L119.75,41.48 L123.5,41.48 L123.5,58.95 Z M140.75,58.95 L136.92,58.95 C136.81,58.33 136.68,57.73 136.56,57.14 C136.44,56.55 136.31,55.96 136.17,55.37 L130.17,55.37 L129.78,57.14 C129.66,57.73 129.54,58.33 129.42,58.95 L125.74,58.95 C126.32,56.3 127.06,53.52 127.94,50.61 C128.82,47.7 129.85,44.67 131.02,41.5 L135.54,41.5 C136.666667,44.6 137.666667,47.6 138.54,50.5 C139.36,53.44 140.11,56.25 140.72,58.93 L140.75,58.95 Z M133.14,44.45 C132.74,45.7 132.36,46.98 131.98,48.29 C131.6,49.6 131.25,50.92 130.9,52.29 L135.4,52.29 C135.09,51.06 134.74,49.79 134.4,48.49 C134.06,47.19 133.56,45.81 133.11,44.43 L133.14,44.45 Z M146.71,58.95 L142.95,58.95 L142.95,41.48 L149.57,41.48 C151.155988,41.3928741 152.716495,41.9070912 153.94,42.92 C155.049858,43.9434091 155.637891,45.4134915 155.54,46.92 C155.568595,47.9776239 155.28702,49.020492 154.73,49.92 C154.177891,50.7732793 153.374119,51.4337698 152.43,51.81 C153.04,52.73 153.67,53.74 154.3,54.81 C154.93,55.88 155.66,57.29 156.49,58.91 L152.26,58.91 C151.69,57.71 151.13,56.58 150.56,55.53 C149.99,54.48 149.44,53.53 148.87,52.53 L146.71,52.53 L146.71,58.95 Z M151.81,46.95 C151.846844,46.2909137 151.594963,45.6484345 151.12,45.19 C150.61191,44.7409656 149.946949,44.5109251 149.27,44.55 L146.71,44.55 L146.71,49.45 L149.3,49.45 C149.975256,49.4858689 150.637111,49.2520617 151.14,48.8 C151.585142,48.3095379 151.815594,47.6613905 151.78,47 L151.81,46.95 Z M165.3,52.22 L165.3,49.12 L171.4,49.12 L171.4,58.5 C170.609368,58.7581557 169.795556,58.9390028 168.97,59.04 C168.085703,59.1672372 167.193403,59.2307342 166.3,59.23 C163.4,59.23 161.3,58.5 159.93,57.03 C158.56,55.56 157.93,53.29 157.93,50.2 C157.93,47.11 158.59,44.85 159.93,43.38 C161.27,41.91 163.3,41.18 166.1,41.18 C166.915992,41.1788444 167.731146,41.2322971 168.54,41.34 C169.238068,41.4270012 169.927303,41.5742164 170.6,41.78 L170.6,45.08 C169.945498,44.8802984 169.276963,44.729878 168.6,44.63 C167.891161,44.5289894 167.175999,44.4788613 166.46,44.48 C164.66,44.48 163.46,44.89 162.79,45.7 C162.12,46.51 161.84,48 161.84,50.13 C161.84,52.26 162.19,53.8 162.91,54.65 C163.63,55.5 164.91,55.93 166.76,55.93 L167.43,55.93 L168.13,55.93 L168.13,52.33 L165.3,52.22 Z M185.37,58.9 L174.56,58.9 L174.56,41.48 L185.34,41.48 L185.34,44.58 L178.34,44.58 L178.34,48.4 L184.61,48.4 L184.61,51.6 L178.34,51.6 L178.34,55.83 L185.34,55.83 L185.37,58.9 Z M195.73,58.9 L188.41,58.9 L188.41,41.48 L195.1,41.48 C196.609651,41.3805373 198.109197,41.7888642 199.36,42.64 C200.342962,43.4702796 200.876668,44.7155936 200.8,46 C200.822243,46.7993018 200.595062,47.5856975 200.15,48.25 C199.658407,48.9166171 198.984748,49.4270704 198.21,49.72 C199.153426,49.9653305 200.006997,50.4753909 200.67,51.19 C201.231032,51.8648069 201.52305,52.7230573 201.49,53.6 C201.59778,55.0686713 201.052645,56.5101697 200,57.54 C198.797984,58.5376695 197.258557,59.0352981 195.7,58.93 L195.73,58.9 Z M197.09,46.45 C197.139158,45.9039745 196.962018,45.3617082 196.6,44.95 C196.132327,44.6087396 195.55668,44.4488376 194.98,44.5 L192.17,44.5 L192.17,48.45 L195,48.45 C195.582019,48.5080776 196.165214,48.3516107 196.64,48.01 C196.984956,47.5797183 197.136931,47.0260937 197.06,46.48 L197.09,46.45 Z M197.79,53.67 C197.857371,53.0559781 197.669341,52.441263 197.27,51.97 C196.737013,51.6052095 196.092972,51.4388912 195.45,51.5 L192.17,51.5 L192.17,55.85 L195.45,55.85 C196.087719,55.9076687 196.72448,55.7298027 197.24,55.35 C197.635637,54.8964639 197.82411,54.298426 197.76,53.7 L197.79,53.67 Z M217.48,58.9 L213.65,58.9 C213.53,58.28 213.41,57.68 213.29,57.09 L212.9,55.32 L206.9,55.32 C206.76,55.91 206.63,56.49 206.51,57.09 C206.39,57.69 206.27,58.28 206.15,58.9 L202.4,58.9 C202.98,56.2333333 203.713333,53.4533333 204.6,50.56 C205.486667,47.6666667 206.51,44.63 207.67,41.45 L212.2,41.45 C213.333333,44.55 214.333333,47.55 215.2,50.45 C216.09,53.44 216.84,56.25 217.45,58.93 L217.48,58.9 Z M209.87,44.4 C209.47,45.65 209.08,46.93 208.71,48.24 C208.34,49.55 207.98,50.87 207.63,52.24 L212.13,52.24 C211.82,51.01 211.47,49.74 211.13,48.44 C210.79,47.14 210.28,45.81 209.84,44.43 L209.87,44.4 Z M226.32,59.2 C223.553333,59.2 221.553333,58.4733333 220.32,57.02 C219.086667,55.5666667 218.456667,53.2666667 218.43,50.12 C218.43,47.02 219.043333,44.75 220.27,43.31 C221.496667,41.87 223.453333,41.15 226.14,41.15 C226.809179,41.1481135 227.47761,41.1949036 228.14,41.29 C228.729884,41.3661901 229.31206,41.4933319 229.88,41.67 L229.88,45 C229.309627,44.825293 228.72837,44.6883301 228.14,44.59 C227.571218,44.4983635 226.996115,44.4515528 226.42,44.45 C224.8,44.45 223.69,44.87 223.1,45.72 C222.393102,47.0835473 222.087933,48.619796 222.22,50.15 C222.093337,51.7040018 222.423536,53.2611479 223.17,54.63 C223.984815,55.5875511 225.219581,56.0814575 226.47,55.95 C227.039163,55.9503547 227.607509,55.906893 228.17,55.82 C228.747955,55.7277378 229.319195,55.597455 229.88,55.43 L229.88,58.75 C229.347486,58.9123351 228.802216,59.0294176 228.25,59.1 C227.600798,59.1919154 226.945654,59.2353689 226.29,59.23 L226.32,59.2 Z M246.83,58.9 L242.55,58.9 C241.716667,57.3533333 240.933333,55.96 240.2,54.72 C239.46,53.49 238.73,52.33 238,51.25 L236.21,53.57 L236.21,58.9 L232.45,58.9 L232.45,41.48 L236.21,41.48 L236.21,49.08 L242.05,41.48 L246.16,41.48 L240.76,48.6 C241.773333,50.1 242.773333,51.6966667 243.76,53.39 C244.746667,55.0833333 245.76,56.93 246.8,58.93 L246.83,58.9 Z" id="SUPPLIER-CHArgeback-Copy"></path>
            <path d="M38,10.71 C33.4589475,10.6959955 28.9877142,11.8275615 25,14 L22.63,21.1 L19.73,17.76 C12.3977857,24.4242458 9.16842028,34.4882865 11.2540578,44.1745476 C13.3396953,53.8608086 20.4248183,61.7039425 29.85,64.76 C32.4166667,57.56 32.2833333,49.6966667 29.45,41.17 C38.4166667,39.55 47.14,45.6866667 55.62,59.58 C64.4410751,52.0933458 67.6868428,39.9167773 63.762627,29.0327576 C59.8384111,18.1487378 49.5690589,10.8450241 38,10.71 Z" id="Shape"></path>
            <path d="M38,0 C17,0 5.78530279e-16,17.27 5.78530279e-16,38.56 C-0.0551562397,54.4393808 9.62991873,68.7288357 24.4,74.56 C25.9525398,72.5503691 27.2930085,70.3855122 28.4,68.1 C17.8535541,64.539199 9.98056955,55.6608867 7.70667219,44.7642718 C5.43277482,33.867657 9.09787122,22.5815866 17.34,15.1 L14.34,11.7 L26.15,9.52 C29.9022395,7.94592349 33.9309696,7.13677769 38,7.14 C51.1669791,7.29766411 62.8282037,15.6768401 67.1777343,28.1056687 C71.527265,40.5344972 67.6354649,54.3565319 57.44,62.69 C58.61,64.76 59.77,66.96 60.92,69.32 C70.4582411,61.9709753 76.0323489,50.6009784 76,38.56 C76,17.27 59,0 38,0 Z" id="Shape"></path>
        </g>
    </g>
</svg>