<?xml version="1.0" encoding="UTF-8"?>
<svg width="16px" height="16px" viewBox="0 0 16 16" version="1.1" xmlns="http://www.w3.org/2000/svg" xmlns:xlink="http://www.w3.org/1999/xlink">
    <!-- Generator: Sketch 49.3 (51167) - http://www.bohemiancoding.com/sketch -->
    <title>arrow-left</title>
    <desc>Created with Sketch.</desc>
    <defs></defs>
    <g id="arrow-left" stroke="none" stroke-width="1" fill="none" fill-rule="evenodd">
        <g id="ico-arrow-left" transform="translate(8.000000, 8.000000) scale(-1, 1) translate(-8.000000, -8.000000) translate(2.000000, 3.000000)" fill="#000000" fill-rule="nonzero">
            <path d="M11,4 L3.4,4 L5.71,1.69 C5.907,1.493 6,1.258 6,1 C6,0.508 5.5935,0 5,0 C4.7345,0 4.503,0.0965 4.31,0.29 L0.331,4.269 C0.167,4.433 0,4.6355 0,5 C0,5.3645 0.1395,5.54 0.323,5.7235 L4.31,9.71 C4.503,9.9035 4.7345,10 5,10 C5.594,10 6,9.492 6,9 C6,8.742 5.907,8.507 5.71,8.31 L3.4,6 L11,6 C11.552,6 12,5.552 12,5 C12,4.448 11.552,4 11,4 Z" id="Shape" transform="translate(6.000000, 5.000000) scale(-1, 1) translate(-6.000000, -5.000000) "></path>
        </g>
    </g>
</svg>