<?xml version="1.0" encoding="UTF-8"?>
<svg width="16px" height="16px" viewBox="0 0 16 16" version="1.1" xmlns="http://www.w3.org/2000/svg" xmlns:xlink="http://www.w3.org/1999/xlink">
    <!-- Generator: Sketch 49.3 (51167) - http://www.bohemiancoding.com/sketch -->
    <title>arrow-right</title>
    <desc>Created with Sketch.</desc>
    <defs>
        <path d="M6,1 C6,1.258 6.092,1.493 6.29,1.69 L8.6,4 L1,4 C0.449,4 0,4.448 0,5 C0,5.552 0.449,6 1,6 L8.6,6 L6.29,8.31 C6.092,8.507 6,8.741 6,9.001 C6,9.492 6.406,10.001 7,10.001 C7.265,10.001 7.497,9.903 7.69,9.711 L11.677,5.724 C11.861,5.54 12,5.365 12,5 C12,4.636 11.833,4.433 11.669,4.269 L7.69,0.29 C7.497,0.097 7.265,0 7,0 C6.407,0 6,0.508 6,1 Z" id="path-1"></path>
    </defs>
    <g id="arrow-right" stroke="none" stroke-width="1" fill="none" fill-rule="evenodd">
        <g id="ico-arrow-right" transform="translate(2.000000, 3.000000)">
            <mask id="mask-2" fill="white">
                <use xlink:href="#path-1"></use>
            </mask>
            <use id="Clip-2" fill="#000000" xlink:href="#path-1"></use>
        </g>
    </g>
</svg>