<?xml version="1.0" encoding="UTF-8"?>
<svg width="15px" height="16px" viewBox="0 0 15 16" version="1.1" xmlns="http://www.w3.org/2000/svg" xmlns:xlink="http://www.w3.org/1999/xlink">
    <!-- Generator: Sketch 50.2 (55047) - http://www.bohemiancoding.com/sketch -->
    <title>filter</title>
    <desc>Created with Sketch.</desc>
    <defs>
        <path d="M13.985,13.114 C14.629,13.114 15.076,12.665 15.076,12.021 C15.076,11.377 14.629,10.928 13.986,10.928 C13.34,10.928 12.894,11.377 12.894,12.021 C12.894,12.665 13.34,13.114 13.985,13.114 M14.489,13.982 L14.489,16 L13.509,16 L13.509,13.982 C12.586,13.786 11.969,13.03 11.969,12.021 C11.969,10.984 12.586,10.228 13.509,10.06 L13.509,0 L14.489,0 L14.489,10.06 C15.412,10.256 16,10.984 16,12.021 C16,13.058 15.412,13.786 14.489,13.982 M8.5,6.081 C9.144,6.081 9.591,5.632 9.591,4.988 C9.591,4.343 9.144,3.895 8.5,3.895 C7.855,3.895 7.409,4.343 7.409,4.988 C7.409,5.632 7.855,6.081 8.5,6.081 M9.004,6.949 L9.004,16 L8.024,16 L8.024,6.95 C7.1,6.753 6.485,5.996 6.485,4.988 C6.485,3.951 7.1,3.194 8.023,3.026 L8.023,0 L9.003,0 L9.003,3.026 C9.926,3.222 10.513,3.951 10.513,4.988 C10.513,6.025 9.926,6.753 9.003,6.949 M3.013,10.116 C3.659,10.116 4.105,9.667 4.105,9.023 C4.105,8.378 3.659,7.93 3.014,7.93 C2.371,7.93 1.924,8.378 1.924,9.023 C1.924,9.667 2.371,10.116 3.014,10.116 M3.518,10.984 L3.518,16 L2.539,16 L2.539,10.984 C1.615,10.788 1,10.032 1,9.023 C1,7.986 1.615,7.229 2.54,7.06 L2.54,0 L3.518,0 L3.518,7.061 C4.441,7.257 5.028,7.986 5.028,9.023 C5.028,10.06 4.441,10.788 3.518,10.984" id="path-1"></path>
    </defs>
    <g id="SHARCK---Icons" stroke="none" stroke-width="1" fill="none" fill-rule="evenodd">
        <g id="Icons/Set/filter" transform="translate(-1.000000, 0.000000)">
            <mask id="mask-2" fill="white">
                <use xlink:href="#path-1"></use>
            </mask>
            <g id="filter" fill-rule="nonzero"></g>
        </g>
    </g>
</svg>