<?xml version="1.0" encoding="UTF-8"?>
<svg width="16px" height="16px" viewBox="0 0 16 16" version="1.1" xmlns="http://www.w3.org/2000/svg" xmlns:xlink="http://www.w3.org/1999/xlink">
    <!-- Generator: Sketch 49.3 (51167) - http://www.bohemiancoding.com/sketch -->
    <title>globe</title>
    <desc>Created with Sketch.</desc>
    <defs></defs>
    <g id="globe" stroke="none" stroke-width="1" fill="none" fill-rule="evenodd">
        <g id="ico-globe" fill="#000000" fill-rule="nonzero">
            <path d="M16,7.99989572 C16,5.96292685 15.232445,4.02167033 13.8384945,2.5335718 C13.8380774,2.53338409 13.8380774,2.5329878 13.8377228,2.53277923 C12.3299354,0.923064088 10.201947,0 7.99991657,0 C5.79788615,0 3.67008546,0.923064088 2.16248573,2.53280009 C0.76813899,4.02110719 0,5.96273914 0,7.99989572 C0,10.0372609 0.76813899,11.9788928 2.16248573,13.4669913 C2.16248573,13.4671999 2.16248573,13.4671999 2.16248573,13.4671999 C3.66987689,15.0767273 5.7978653,16.0000209 8.00010428,16.0000209 C8.000292,16.0000209 8.00050057,16.0000209 8.00068828,16.0000209 C8.00068828,16.0000209 8.00068828,16.0000209 8.00089685,16.0000209 C10.2027396,15.9998123 12.3299354,15.0767273 13.8377437,13.4671999 C13.8381191,13.4669913 13.8381191,13.4665951 13.8385154,13.4664282 C15.2324659,11.978288 16,10.0370523 16,7.99989572 Z M13.5705042,12.7175819 C13.5562798,12.7037746 13.5410542,12.6909059 13.5266212,12.6770569 C13.4919571,12.6439361 13.4560623,12.6119625 13.4206264,12.5794048 C13.3457501,12.5103893 13.2697476,12.442375 13.1921807,12.3763003 C13.1512386,12.341219 13.109942,12.3069302 13.0682282,12.2728292 C12.991433,12.2098413 12.9136785,12.1488766 12.8347351,12.0888296 C12.7935844,12.0576693 12.7528926,12.026092 12.7111788,11.9956618 C12.6195544,11.9288154 12.5259903,11.8644927 12.4316962,11.8015465 C12.4020377,11.7818368 12.3731926,11.7610216 12.3435758,11.7417081 C12.2188515,11.6608041 12.0917495,11.5834459 11.9629373,11.5097584 C11.9331119,11.4928018 11.9026817,11.4774094 11.8728772,11.4608281 C11.7727014,11.405307 11.6715663,11.3512877 11.5690338,11.2998337 C11.5232528,11.2768494 11.4766377,11.2552207 11.4302519,11.2331959 C11.3410052,11.1907103 11.2513414,11.1495597 11.1604887,11.1104112 C11.1107867,11.0891372 11.0610847,11.0680926 11.0110281,11.047632 C10.9765308,11.0335744 10.9428051,11.0180152 10.9080784,11.0043747 C10.921552,10.9139392 10.9312921,10.8209382 10.943556,10.7295641 C10.9566333,10.6313073 10.9702737,10.5334675 10.9815573,10.4340635 C10.9994734,10.2812658 11.0139063,10.126299 11.0279639,9.97118618 C11.0365152,9.87801839 11.0462971,9.78564315 11.053305,9.69149508 C11.067154,9.51160426 11.0766856,9.32935662 11.0856541,9.14673355 C11.0889495,9.0756115 11.0942471,9.00542801 11.0969794,8.93388882 C11.106511,8.68441937 11.1117669,8.43280166 11.1121841,8.17920254 L15.2993331,8.17920254 C15.2585787,9.85169697 14.650871,11.4442886 13.5705042,12.7175819 Z M10.0647086,11.7514274 C10.0495039,11.82451 10.03432,11.8972172 10.0179474,11.9687564 C10.0031598,12.0353942 9.98735029,12.1009057 9.97154075,12.1660001 C9.95479266,12.2355788 9.93764828,12.3045943 9.9197322,12.3724001 C9.90335953,12.435951 9.88621515,12.4984801 9.86904992,12.5604876 C9.85050813,12.6265623 9.83182034,12.6918653 9.81250684,12.7559794 C9.79459076,12.8161933 9.77625754,12.8754686 9.75775747,12.9337011 C9.73767227,12.9962718 9.7173785,13.0578623 9.69693873,13.1182847 C9.67762523,13.1746192 9.65835345,13.230182 9.63864368,13.2847228 C9.61722363,13.343581 9.59559502,13.4008958 9.57354927,13.4576057 C9.55329722,13.51004 9.5330243,13.5618903 9.51195883,13.612364 C9.48934994,13.6671551 9.46636563,13.7201525 9.44336046,13.7725867 C9.42212813,13.8207453 9.40087495,13.8686745 9.37903777,13.9148725 C9.35528175,13.9655548 9.33108774,14.014068 9.30672687,14.0622057 C9.28472284,14.1058801 9.26248938,14.1497004 9.24008906,14.1914143 C9.21512334,14.2376123 9.1897822,14.2812867 9.16427421,14.3249402 C9.14166532,14.3639217 9.11905643,14.4032787 9.09605127,14.4400911 C9.06993842,14.4820135 9.04342929,14.5207865 9.01694102,14.5597681 C8.993915,14.5937023 8.97090983,14.6283664 8.94752924,14.6601524 C8.92022755,14.6971734 8.89257129,14.7309198 8.86508189,14.765 C8.84190987,14.7936783 8.81852928,14.8236914 8.79512783,14.8501796 C8.76665815,14.8823618 8.73802162,14.9104352 8.70934337,14.9390718 C8.68596278,14.9626609 8.66297847,14.9875849 8.63959788,15.008859 C8.60996022,15.035535 8.57996798,15.057977 8.54993404,15.0811699 C8.52732515,15.0990859 8.5045077,15.1187749 8.48152339,15.1343758 C8.44975832,15.1560044 8.41818096,15.1725857 8.38622818,15.1899386 C8.36478729,15.2018271 8.34332553,15.2160515 8.32190549,15.2260002 C8.28642789,15.2423729 8.25057487,15.2528848 8.2148887,15.2638138 C8.19716033,15.269466 8.17922339,15.2780382 8.16128645,15.282147 C8.10751735,15.2946194 8.05370653,15.3014605 8.00031285,15.3014605 C8.00012514,15.3014605 8.00012514,15.3014605 8.00012514,15.3014605 C7.94652289,15.3014605 7.89273293,15.2946194 7.83894297,15.282147 C7.82119375,15.2780382 7.80346537,15.2694869 7.78552844,15.2640224 C7.74965456,15.2529056 7.71398925,15.2423937 7.67832394,15.2260211 C7.65688304,15.2162809 7.63581756,15.2020356 7.61477295,15.1905435 C7.58242389,15.1728151 7.55047111,15.1562339 7.51849747,15.1344175 C7.49607629,15.1192129 7.47407226,15.0997534 7.45165108,15.0825673 C7.421054,15.0588113 7.39064463,15.0360147 7.36042298,15.0085044 C7.33762638,14.9878561 7.31501749,14.9637038 7.29240861,14.9408863 C7.26316723,14.9114781 7.23373813,14.8825913 7.20468446,14.8498876 C7.18167929,14.8239416 7.15927898,14.794888 7.13667009,14.7670231 C7.10840898,14.7321504 7.07996016,14.6976531 7.05228305,14.6596518 C7.02948645,14.6288461 7.00706528,14.5951205 6.98485267,14.5623752 C6.95757184,14.5222465 6.93029101,14.4822847 6.9033856,14.439236 C6.88117299,14.4035498 6.85933581,14.3655486 6.83731092,14.3279436 C6.8109895,14.2828926 6.78487666,14.2376749 6.75913924,14.1899334 C6.73751062,14.149763 6.71625744,14.1074861 6.69481654,14.0653968 C6.66987168,14.0156948 6.64473911,13.9655965 6.62016967,13.9131623 C6.59931276,13.8687162 6.57866443,13.8223304 6.55799523,13.7759655 C6.53421836,13.7217376 6.51044149,13.6668005 6.4870609,13.6100906 C6.46678798,13.5613688 6.44730763,13.511062 6.427431,13.4605883 C6.40500983,13.4023349 6.38260951,13.3432682 6.36077233,13.2828666 C6.34166741,13.2298275 6.32256248,13.1756412 6.30385383,13.1208918 C6.28280922,13.0586965 6.26195231,12.9955418 6.24149169,12.9312191 C6.22355475,12.8745092 6.20561781,12.8169859 6.18807715,12.7587325 C6.16857594,12.6928664 6.1492833,12.62602 6.13038695,12.5581934 C6.113618,12.4975415 6.0968699,12.4363473 6.08047637,12.3741938 C6.06256029,12.3049905 6.04499877,12.2346402 6.0278544,12.1638727 C6.012462,12.0999672 5.99704875,12.0356445 5.98224034,11.9703415 C5.96586767,11.897822 5.95026671,11.8241763 5.93487431,11.7501134 C5.92083761,11.6826622 5.90680092,11.6152318 5.89355678,11.5464249 C5.88867626,11.5214591 5.8844006,11.4957426 5.87970779,11.47061 C5.88127206,11.4700052 5.88281547,11.4694212 5.88437974,11.4690249 C6.03406976,11.4235985 6.18551175,11.3850341 6.33735003,11.3495357 C6.37107564,11.341756 6.40438412,11.3333716 6.43829745,11.3261551 C6.58135497,11.2947863 6.72520505,11.2686734 6.86982684,11.2460646 C6.9103518,11.2398283 6.95089763,11.233759 6.99144345,11.2282945 C7.13508497,11.2082093 7.27912276,11.1920452 7.42374454,11.180553 C7.46116183,11.1776122 7.49857912,11.1760688 7.53601727,11.1735451 C7.67557083,11.1647435 7.81512439,11.1593207 7.95467794,11.1583404 C7.98508731,11.1581318 8.01530897,11.1581318 8.04569748,11.1583404 C8.18564732,11.1591121 8.32538859,11.1647435 8.46512986,11.1737328 C8.50215087,11.1760479 8.5394013,11.1776122 8.5762346,11.1805322 C8.7210441,11.1920243 8.86566588,11.208397 9.00949511,11.2282736 C9.04962379,11.2339258 9.08979419,11.2395989 9.12975603,11.2458351 C9.27477409,11.268444 9.41918731,11.2949532 9.56282882,11.3261342 C9.59578273,11.3333507 9.62852808,11.3415266 9.66125256,11.3493062 C9.81409197,11.3847838 9.96572168,11.4235777 10.1159957,11.4689832 C10.1173305,11.469588 10.1189365,11.4699634 10.1202713,11.4705683 C10.1155785,11.4954923 10.1113029,11.5212506 10.1064224,11.5461746 C10.0931782,11.6153778 10.0791832,11.683413 10.0647086,11.7514274 Z M5.98906055,4.29727348 C6.00522465,4.22633914 6.0212219,4.15575937 6.03797,4.08676473 C6.05317468,4.02557057 6.06877565,3.96594067 6.08435576,3.90628992 C6.1017087,3.83944354 6.11924936,3.77278487 6.13737401,3.70769046 C6.15374668,3.64941627 6.17049478,3.59251863 6.18745144,3.53578784 C6.20636866,3.47244542 6.22526501,3.4098747 6.24495393,3.34849283 C6.26230688,3.29332631 6.28022296,3.23934864 6.29836847,3.18595496 C6.3182451,3.12670049 6.33851801,3.06821773 6.35918721,3.0109238 C6.37789585,2.95907354 6.39700078,2.90820354 6.4161057,2.85791754 C6.43735889,2.80256331 6.45877893,2.74837707 6.48040754,2.6951711 C6.50028418,2.64703337 6.52018166,2.59947962 6.54024601,2.553073 C6.56245861,2.50180673 6.58527607,2.45191701 6.60788495,2.402799 C6.62853329,2.3585615 6.64920248,2.31469943 6.66987168,2.27242248 C6.69325227,2.22505644 6.71702914,2.17944239 6.74101458,2.13443319 C6.76226777,2.09428364 6.7835001,2.05450952 6.80514957,2.01632053 C6.82932272,1.97325102 6.85426758,1.93230891 6.87902473,1.89176309 C6.9006742,1.85609778 6.92249052,1.82024476 6.94470313,1.78633143 C6.97004427,1.74772529 6.99576083,1.71168456 7.02149826,1.67562297 C7.04371086,1.6444419 7.06575661,1.61265597 7.08815693,1.58362316 C7.11466605,1.54931355 7.14117518,1.51832018 7.16787202,1.4869514 C7.1902932,1.46044227 7.2125058,1.43334915 7.23511469,1.40898828 C7.26258323,1.37937148 7.29046892,1.35342549 7.31814603,1.32691636 C7.34035863,1.30547546 7.36257124,1.28286657 7.3848047,1.26357394 C7.4136498,1.23881679 7.4424949,1.21814759 7.47154857,1.19670669 C7.49317718,1.18054259 7.51501437,1.16260565 7.53683069,1.14838124 C7.56724006,1.12869232 7.59804571,1.11367535 7.62843422,1.09769896 C7.64910341,1.0867908 7.66975175,1.07373438 7.69042094,1.06474505 C7.72473055,1.04993665 7.7588316,1.04038418 7.79295349,1.03024773 C7.81049415,1.0251795 7.82765939,1.01737902 7.84517919,1.01347878 C7.89663317,1.00217433 7.94848344,0.995938118 8.00012514,0.995938118 C8.05176684,0.995938118 8.10361711,1.00217433 8.1550711,1.01347878 C8.17242404,1.01737902 8.18956842,1.0251795 8.20692136,1.03024773 C8.24123097,1.04019647 8.27551973,1.04974893 8.30982934,1.06474505 C8.33012311,1.07371352 8.35056288,1.08658223 8.37104436,1.09709411 C8.40185001,1.11327907 8.4326348,1.12848376 8.46344045,1.1485481 C8.48506906,1.1625848 8.50632225,1.18012545 8.52795086,1.19610184 C8.55719224,1.21773046 8.58662134,1.23858736 8.61546644,1.26374079 C8.63767904,1.28263715 8.65951622,1.30505832 8.6813534,1.32610294 C8.70938509,1.35279978 8.73743762,1.37912119 8.76515645,1.40913428 C8.78755677,1.43309887 8.80960252,1.46000428 8.83160656,1.48592941 C8.85869968,1.51769448 8.88562594,1.54927183 8.91209336,1.58397772 C8.93432682,1.61263511 8.956164,1.6440039 8.97816803,1.67460098 C9.00411402,1.71105885 9.03022687,1.74768358 9.05577658,1.78668599 C9.07761376,1.82001533 9.09924237,1.85549293 9.12066242,1.89076195 C9.14579499,1.93189177 9.17092756,1.9732093 9.19549699,2.01686281 C9.21677104,2.05448867 9.23762794,2.09384565 9.25863085,2.1334112 C9.28282486,2.17881668 9.30678944,2.22501473 9.33035775,2.27296476 C9.35100609,2.31486628 9.37150842,2.3581235 9.39173962,2.40179787 C9.41495336,2.45131216 9.43756224,2.50178587 9.46017113,2.55382385 C9.48004776,2.59962562 9.49992439,2.64659537 9.51940474,2.69435769 C9.54124192,2.74814765 9.56307911,2.80291788 9.58449915,2.8588561 C9.60322865,2.9083704 9.62193729,2.9586564 9.64062508,3.00990182 C9.66127342,3.06777973 9.68196347,3.12684649 9.70221552,3.18668495 C9.72013161,3.23989092 9.73769312,3.29349317 9.75525464,3.3482634 C9.77473499,3.40966613 9.79383991,3.47261228 9.81273627,3.5359547 C9.82969293,3.59247691 9.84625332,3.6492077 9.86243828,3.70727332 C9.8807715,3.77276401 9.89868758,3.83979811 9.91624909,3.90724934 C9.93145378,3.9663161 9.94705474,4.02554971 9.96184229,4.08618074 C9.97898667,4.15557166 9.99500477,4.22671457 10.0113774,4.29783662 C10.0253933,4.35961477 10.0394091,4.42122607 10.0528827,4.48435993 C10.0571584,4.50463284 10.0608709,4.52567746 10.0651465,4.54595037 C10.0620597,4.54674293 10.0589103,4.54751464 10.0557818,4.54849491 C9.9109723,4.59098043 9.76438996,4.6274383 9.61726535,4.66095535 C9.5864597,4.66777556 9.5556749,4.67536747 9.52486925,4.68199997 C9.38452313,4.71182534 9.24342616,4.7367702 9.10195377,4.75839882 C9.06255508,4.76423875 9.02321895,4.76989097 8.98361169,4.77535548 C8.84347413,4.79427269 8.70314887,4.80966509 8.56244818,4.82057325 C8.52542718,4.82330551 8.48838531,4.82505749 8.4513643,4.82720575 C8.31608641,4.83559022 8.18043309,4.84084616 8.04477978,4.84182644 C8.01516297,4.84203501 7.9853376,4.84203501 7.95551222,4.84182644 C7.8198589,4.84086702 7.68420559,4.83559022 7.54855227,4.82720575 C7.51171897,4.82505749 7.47488568,4.82330551 7.43824009,4.82057325 C7.29712227,4.80966509 7.156797,4.79427269 7.01665945,4.77535548 C6.9770939,4.77009954 6.93771606,4.76444732 6.89835908,4.75839882 C6.75684498,4.73695792 6.61574801,4.71201306 6.47561046,4.68199997 C6.44461709,4.67555518 6.4138323,4.66796327 6.38283894,4.66095535 C6.23529718,4.6274383 6.08871485,4.59098043 5.94332136,4.5483072 C5.9405891,4.54732693 5.93785685,4.54674293 5.93512459,4.54597123 C5.93921255,4.52569832 5.94292508,4.5046537 5.9472216,4.48438078 C5.96079945,4.42103836 5.97483614,4.35926021 5.98906055,4.29727348 Z M9.75950945,10.655105 C9.72227987,10.6465119 9.68505029,10.6375435 9.64782071,10.6295553 C9.50985228,10.6007102 9.37086186,10.5765579 9.23170458,10.5550961 C9.17032271,10.5455645 9.10891998,10.5361998 9.04712096,10.528003 C8.91363677,10.5104832 8.77992314,10.4960711 8.64583409,10.4851421 C8.57723573,10.4796776 8.50822023,10.4761736 8.43962186,10.4722734 C8.33982157,10.4670174 8.24002127,10.4635135 8.14024184,10.4617198 C8.0934598,10.4609481 8.04688632,10.456881 7.99991657,10.456881 C7.95313453,10.456881 7.90635249,10.4609481 7.85957045,10.4617198 C7.75977016,10.4635135 7.660387,10.4670174 7.5605867,10.4722734 C7.49196748,10.4761944 7.42318141,10.4796776 7.35477076,10.4851421 C7.22028543,10.4960502 7.08638409,10.5104832 6.95287904,10.528003 C6.89128859,10.5361998 6.82988586,10.5453559 6.76850399,10.5550961 C6.62855415,10.5767247 6.48862516,10.6009187 6.34963474,10.6299724 C6.31357315,10.637752 6.27772013,10.6467205 6.24147083,10.6547087 C6.10268898,10.6859106 5.96469969,10.720992 5.8274821,10.7597649 C5.8079809,10.7652295 5.78810426,10.7689211 5.76862391,10.7745942 C5.75965544,10.7114603 5.74951899,10.6492442 5.74134308,10.5855472 C5.72985093,10.4962588 5.71873419,10.406595 5.70859774,10.316368 C5.69184964,10.1695979 5.67741666,10.0214722 5.66417253,9.87238702 C5.65637205,9.7850383 5.64819614,9.69812757 5.64156364,9.61025743 C5.62909121,9.44263047 5.61972646,9.27306383 5.61173827,9.10291319 C5.60842202,9.03254199 5.60335379,8.96296335 5.60101782,8.89219587 C5.59225792,8.6565754 5.58756511,8.41878582 5.58716883,8.17922339 L10.4132066,8.17922339 C10.4128312,8.41876496 10.4081592,8.6565754 10.3993993,8.89219587 C10.3968339,8.96256707 10.3919951,9.03174943 10.3886372,9.1017452 C10.3804821,9.27208355 10.3711174,9.44185877 10.3586449,9.60965258 C10.3520124,9.69796072 10.3438157,9.78505916 10.336036,9.87259559 C10.3227502,10.0212845 10.3083381,10.1692434 10.2917985,10.3155963 C10.2814535,10.4062404 10.2703368,10.4962588 10.2586361,10.5859226 C10.2504393,10.6494736 10.2405114,10.7116272 10.2315429,10.7746151 C10.2116663,10.7689628 10.1913725,10.7650417 10.1717045,10.7594104 C10.0350917,10.7209711 9.89789502,10.6860984 9.75950945,10.655105 Z M6.33737088,5.36769161 C6.34166741,5.36865103 6.34575536,5.36983987 6.35003102,5.37061158 C6.52134965,5.40686088 6.69404483,5.43610226 6.86751172,5.46085941 C6.8827164,5.46319538 6.89792109,5.46553136 6.9129172,5.4674919 C7.0871558,5.49145649 7.26237466,5.50958114 7.43819838,5.52205357 C7.44483088,5.52244985 7.45146337,5.52284613 7.4578873,5.52322156 C7.6381744,5.53550628 7.8186492,5.54309819 7.99991657,5.54309819 C8.18118394,5.54309819 8.36165875,5.53550628 8.54175813,5.52322156 C8.54876605,5.52282528 8.55577397,5.52244985 8.56280275,5.52186586 C8.73823019,5.50958114 8.91265649,5.49145649 9.08633195,5.46767962 C9.10230834,5.46553136 9.11830558,5.46298681 9.13428197,5.4606717 C9.3069563,5.43591455 9.47885892,5.40686088 9.64959355,5.37082015 C9.65468264,5.36983987 9.6595423,5.36848417 9.66442281,5.36731619 C9.82500013,5.33321514 9.98445118,5.2930656 10.1427134,5.24901581 C10.1579389,5.24471929 10.173519,5.24200789 10.1887029,5.23752366 C10.2000282,5.30808257 10.2125006,5.3774735 10.222637,5.44880412 C10.2323772,5.51448251 10.2421174,5.58016091 10.2507104,5.64644416 C10.2766147,5.83959996 10.2996407,6.03488318 10.3193088,6.2329195 C10.3220411,6.25961634 10.325545,6.28593775 10.3279018,6.31284316 C10.3493219,6.53776404 10.3657154,6.76618887 10.3789387,6.99676197 C10.3826512,7.05933268 10.3851749,7.12286282 10.3880949,7.18601753 C10.3927877,7.28346099 10.3951028,7.38230187 10.3984399,7.48070475 L5.60178952,7.48070475 C5.6048972,7.38188473 5.60725403,7.28250158 5.61192598,7.18445326 C5.61503366,7.12150712 5.61739049,7.05795613 5.62108216,6.99540627 C5.63434715,6.76541716 5.65090754,6.53738861 5.67195215,6.31305173 C5.67489298,6.28343492 5.67877236,6.25456897 5.68169233,6.22495216 C5.70119354,6.02964809 5.72380242,5.83690942 5.74912271,5.6462773 C5.75809118,5.58001491 5.76783135,5.5141488 5.7771961,5.44844955 C5.78772884,5.37730664 5.80020127,5.30810343 5.81150571,5.23756537 C5.8267104,5.24204961 5.84268679,5.24496957 5.85789147,5.2492661 C6.01692538,5.29325331 6.17635557,5.33359057 6.33737088,5.36769161 Z M11.1010465,7.48066304 C11.097334,7.36626291 11.090326,7.25399019 11.0848824,7.14075804 C11.0813784,7.06709145 11.0786462,6.99282001 11.0743705,6.9195497 C11.0601044,6.68117612 11.0427932,6.44476309 11.0201843,6.21185402 C11.0182237,6.18982913 11.0150952,6.16838823 11.0127801,6.14655105 C10.9917146,5.93508288 10.9667906,5.72634697 10.9388841,5.51994702 C10.9289353,5.44607186 10.9172554,5.37357326 10.9063264,5.30028209 C10.8923106,5.20438204 10.8794419,5.10712628 10.8638409,5.01260279 C10.8985468,4.99915008 10.9324393,4.98375768 10.9671452,4.9699087 C11.0178274,4.94944807 11.0681343,4.92859117 11.1183994,4.90715027 C11.2107955,4.867981 11.3023991,4.82685118 11.39321,4.78415709 C11.4403884,4.76194449 11.4875458,4.74010731 11.5343279,4.717123 C11.6376321,4.66606529 11.7391844,4.61225448 11.839965,4.55690025 C11.8715423,4.5395473 11.9036828,4.52357091 11.9350516,4.50584254 C12.0660538,4.4315711 12.1952832,4.35362884 12.3221766,4.2719532 C12.3506046,4.25364083 12.3783026,4.23374335 12.4067514,4.2150347 C12.5041948,4.15033658 12.6009083,4.0842619 12.6956195,4.01545497 C12.7377088,3.9850456 12.77863,3.95346824 12.8199475,3.92209946 C12.9004343,3.86128072 12.9797949,3.79929399 13.0579248,3.73557615 C13.1002435,3.70107882 13.1423327,3.66599751 13.1840466,3.63051991 C13.2620097,3.56425752 13.3383877,3.49603458 13.4138479,3.42664365 C13.4506812,3.39291804 13.4879108,3.3595887 13.5239515,3.32509138 C13.5391771,3.31067926 13.5555289,3.29701798 13.5705459,3.28220958 C14.577413,4.46898839 15.1738371,5.93312233 15.283169,7.48066304 L11.1010465,7.48066304 Z M13.0920259,2.76940083 C13.0764249,2.78479323 13.0615957,2.80079048 13.0456193,2.8159743 C13.0132702,2.84696767 12.9797532,2.87718932 12.946987,2.90757784 C12.8776169,2.97131654 12.8074334,3.03367869 12.7361028,3.09468514 C12.7006252,3.1249068 12.6649807,3.1551076 12.6289191,3.1847244 C12.5507475,3.24885939 12.4710324,3.31103382 12.390337,3.37183171 C12.361909,3.3932726 12.3338356,3.41569378 12.3049905,3.4367384 C12.1954501,3.51684977 12.0837613,3.59422889 11.9701329,3.6680832 C11.9471069,3.6828916 11.9237263,3.69634431 11.9007211,3.710965 C11.8085336,3.76923919 11.7151781,3.82594912 11.6208632,3.88013536 C11.5814645,3.90255654 11.5419198,3.92399743 11.5023542,3.94562605 C11.4201154,3.99084382 11.3366878,4.03449732 11.2526762,4.0764197 C11.2119427,4.09688033 11.1710006,4.11734095 11.1296622,4.13702987 C11.0353681,4.18205993 10.9396766,4.22454545 10.8431717,4.2654667 C10.8139303,4.27793913 10.7850852,4.29139183 10.7558647,4.30328027 C10.7476679,4.30659652 10.739492,4.30932877 10.7312953,4.31243645 C10.7270196,4.29176726 10.7221391,4.27207834 10.7176548,4.25161771 C10.7108138,4.21985265 10.7035973,4.18885928 10.6965894,4.15767821 C10.6671811,4.02650913 10.6365423,3.89786373 10.6046104,3.77253458 C10.6005016,3.75637048 10.5966222,3.73960153 10.5925134,3.72362514 C10.5572444,3.5883681 10.5204111,3.45738673 10.4822012,3.32913762 C10.4732328,3.29891596 10.4642852,3.26911144 10.4551081,3.23928607 C10.4163351,3.11241351 10.376561,2.98806464 10.3348472,2.86876313 C10.3309261,2.8576464 10.326859,2.84713452 10.3229588,2.8362055 C10.2837686,2.72472534 10.2430351,2.61731227 10.2015299,2.51265232 C10.1917897,2.48789517 10.1820495,2.46295031 10.171913,2.43877716 C10.127467,2.33021696 10.0820406,2.22497302 10.0350709,2.12400473 C10.0261024,2.10450353 10.0167377,2.08579488 10.0076232,2.0665231 C9.96492911,1.97648384 9.92085847,1.88934369 9.87624555,1.80572835 C9.86786107,1.78993967 9.85966431,1.773567 9.85111298,1.75798689 C9.80101469,1.66657107 9.74976927,1.57963949 9.69750186,1.49642043 C9.68544657,1.47731551 9.67334957,1.45900314 9.66125256,1.4402945 C9.6088183,1.35920285 9.55563319,1.28086431 9.50102981,1.20796942 C9.49911097,1.20563345 9.49752585,1.2029012 9.49560701,1.20056522 C9.43983565,1.12629378 9.38235401,1.05790399 9.3244761,0.992204731 C9.31119025,0.977396328 9.29796697,0.962587925 9.28472284,0.948154946 C9.23112059,0.889672182 9.17672578,0.83373396 9.12137155,0.782863966 C10.6176668,1.01076738 11.9917824,1.69510332 13.0920259,2.76940083 Z M6.71586116,0.947633523 C6.70222074,0.962441927 6.68858032,0.977646611 6.67533619,0.993039008 C6.61745827,1.05834198 6.56033121,1.12635635 6.5045807,1.20041922 C6.50243244,1.20333919 6.50028418,1.20665544 6.49796906,1.20957541 C6.4441791,1.28169859 6.39134856,1.35926542 6.33931057,1.43956451 C6.32683815,1.45866943 6.31436572,1.47756579 6.30228957,1.49725471 C6.25025159,1.58009834 6.19919388,1.66642507 6.14947102,1.75746547 C6.14050255,1.77365043 6.13193036,1.79060709 6.12335817,1.80716748 C6.0789121,1.89019882 6.0352586,1.97654641 5.99277308,2.06600168 C5.98342919,2.08550289 5.97406444,2.10458696 5.96469969,2.12448444 C5.91791765,2.22524416 5.87269987,2.33011268 5.82825381,2.43827659 C5.81811735,2.46303374 5.80837718,2.48837488 5.79824072,2.51350745 C5.75692319,2.61758341 5.71656508,2.72420392 5.67739581,2.83491237 C5.67349557,2.8466131 5.6692199,2.85752126 5.66513195,2.86922199 C5.62360585,2.98831492 5.58385258,3.11247608 5.54505874,3.23897321 C5.53590256,3.2689863 5.52693409,3.29899939 5.51777791,3.32940876 C5.47977662,3.45747016 5.44273476,3.58824296 5.40765344,3.72331229 C5.40335692,3.73987267 5.39945668,3.7570379 5.39518101,3.77359829 C5.36320738,3.89853115 5.33281886,4.02696798 5.30357748,4.15776164 C5.29656956,4.18894271 5.28916536,4.21993607 5.28232429,4.25170114 C5.27784006,4.27216177 5.27316811,4.29185069 5.26868388,4.31251988 C5.26069568,4.30939134 5.25251977,4.30667995 5.24432301,4.3033637 C5.21489392,4.29147526 5.18604882,4.27802256 5.15680743,4.26555013 C5.06032339,4.22462888 4.96481961,4.1821225 4.87048383,4.1371133 C4.8291663,4.11742438 4.78822419,4.09696376 4.74730294,4.07650313 C4.66331218,4.03460161 4.58007227,3.99092725 4.49783349,3.94570947 C4.45808023,3.92408086 4.41851468,3.90263996 4.37932455,3.88021879 C4.28498876,3.82603255 4.19182096,3.76951033 4.09963344,3.71104842 C4.07644056,3.69642773 4.05305997,3.68297503 4.0300548,3.66797891 C3.91621781,3.59431232 3.80473765,3.5169332 3.69519718,3.43700954 C3.66635208,3.41575635 3.63827868,3.39314746 3.60943358,3.37151885 C3.52894678,3.31090868 3.44960711,3.24892196 3.37166485,3.18499554 C3.33520698,3.15517017 3.29954167,3.12478165 3.26368865,3.09437229 C3.19275431,3.03376212 3.1229671,2.97177539 3.05434788,2.90862068 C3.02083083,2.87762732 2.98691751,2.84703024 2.95396359,2.81545288 C2.93836263,2.80064448 2.92376279,2.78464723 2.90816183,2.76944255 C4.00821762,1.69512418 5.38247916,1.01080909 6.87877445,0.782968251 C6.82346193,0.833608818 6.76927569,0.88954704 6.71586116,0.947633523 Z M2.42989212,3.28220958 C2.44470052,3.29683027 2.46069777,3.31007441 2.47550617,3.32450739 C2.51233947,3.3595887 2.55015304,3.39331432 2.58757033,3.42781164 C2.66261347,3.49661857 2.73824062,3.56425752 2.81580745,3.63012363 C2.85752126,3.66578894 2.90000678,3.70107882 2.9424923,3.73576386 C3.02045541,3.79950256 3.09958651,3.86109301 3.17969789,3.92170317 C3.22122399,3.95328053 3.26254152,3.9850456 3.30483932,4.01564268 C3.39936282,4.0842619 3.49565916,4.15033658 3.59310262,4.21463842 C3.62155144,4.23355563 3.64922856,4.25343226 3.67807366,4.2719532 C3.8047585,4.35362884 3.93380018,4.43138339 4.06478155,4.50565483 C4.09673433,4.52377948 4.12950053,4.54015215 4.16145331,4.55769281 C4.26162903,4.61265076 4.36259731,4.66606529 4.46512986,4.71672672 C4.51228732,4.74010731 4.56023735,4.7621322 4.60818738,4.78455338 C4.69822664,4.82685118 4.78887075,4.86777243 4.88047429,4.90675399 C4.93174056,4.92840346 4.98279827,4.94963579 5.03443997,4.97030498 C5.06854101,4.9839454 5.10187034,4.99933779 5.13617995,5.01239422 C5.119411,5.1133625 5.10597915,5.21685447 5.09077447,5.31917845 C5.08063801,5.38740139 5.06972985,5.45504033 5.0603651,5.52382641 C5.02918403,5.7543995 5.00129834,5.98751714 4.97850174,6.22451416 C4.97773004,6.23446291 4.97714605,6.24478708 4.97616577,6.25471496 C4.95472487,6.4817841 4.93795592,6.71216948 4.92450321,6.94468227 C4.92001898,7.0201217 4.91728673,7.09652055 4.91378276,7.17252311 C4.90871454,7.27524337 4.90229061,7.37698336 4.89897436,7.48066304 L0.716872716,7.48066304 C0.826204617,5.93312233 1.42281641,4.46898839 2.42989212,3.28220958 Z M4.88804534,8.17920254 C4.88844162,8.43338565 4.89388528,8.68558736 4.90325003,8.9356408 C4.90579457,9.00346746 4.91105051,9.06993842 4.91415819,9.13757737 C4.92312666,9.3237044 4.93286683,9.509456 4.94690353,9.69285077 C4.95391145,9.78585172 4.96367248,9.87705897 4.97184839,9.96924649 C4.98586423,10.1253396 5.00069349,10.2808695 5.01842186,10.4345015 C5.02991402,10.5342601 5.04355443,10.6323084 5.05663171,10.7309407 C5.06870786,10.8219394 5.07865661,10.914544 5.09190074,11.0043956 C5.05719485,11.018036 5.0236778,11.0335953 4.98936819,11.0476528 C4.93908219,11.0680926 4.8889839,11.0891581 4.83909418,11.110599 C4.74865864,11.1497891 4.65920337,11.1907312 4.57033209,11.2330081 C4.52355005,11.2552416 4.47676801,11.2770371 4.43038225,11.3000631 C4.32864227,11.3509331 4.22846655,11.404723 4.12906253,11.4598687 C4.09825688,11.4768462 4.06707581,11.492614 4.0366873,11.509967 C3.9080419,11.5836544 3.78135705,11.6608041 3.65700818,11.7415204 C3.62659881,11.7611884 3.59698201,11.7824625 3.56696892,11.8027145 C3.47321713,11.8651184 3.38063332,11.9290448 3.28942607,11.9954741 C3.24731598,12.0261128 3.20599845,12.0580448 3.1644932,12.0896221 C3.08613381,12.149106 3.00875469,12.209883 2.93254355,12.2722869 C2.89024575,12.3067425 2.84853193,12.341657 2.8072144,12.3769469 C2.73081556,12.4422498 2.65598098,12.5093048 2.58189725,12.5772774 C2.54525166,12.6110031 2.50823066,12.643957 2.47235678,12.6784752 C2.45832008,12.6917193 2.44351168,12.7041709 2.42987126,12.7176236 C1.34931668,11.4443303 0.741212725,9.85175954 0.7006669,8.17920254 L4.88804534,8.17924425 L4.88804534,8.17920254 Z M2.90820354,13.2303906 C2.92301195,13.2157699 2.93723636,13.2003775 2.95225333,13.1859445 C2.98324669,13.156286 3.01501176,13.1276495 3.0464014,13.0985958 C3.11539605,13.034878 3.18537097,12.9723072 3.25670158,12.9113008 C3.29101119,12.8820594 3.32532081,12.8526303 3.36040212,12.8239938 C3.43796895,12.7600465 3.51728777,12.6978721 3.59739914,12.6372619 C3.62467998,12.6166136 3.65137682,12.5951727 3.67886622,12.5748998 C3.78625843,12.4959564 3.89561119,12.4199329 4.00690364,12.3470589 C4.03203621,12.3306862 4.05777363,12.3154816 4.08292706,12.2994843 C4.17081806,12.2433584 4.25971019,12.1889636 4.34974946,12.1367379 C4.38912729,12.114129 4.42848428,12.0922918 4.46804983,12.0702878 C4.5487452,12.0254454 4.63039998,11.9823759 4.71265962,11.9406621 C4.75241288,11.9205769 4.79197843,11.9003248 4.83194027,11.8808236 C4.92978001,11.8336453 5.02878774,11.7888447 5.12858804,11.745942 C5.15178092,11.7359933 5.17457752,11.7248766 5.19797897,11.7153449 C5.20265091,11.7131758 5.20771914,11.7116324 5.21239109,11.7096927 C5.21589505,11.7280259 5.22019157,11.744774 5.22388324,11.7631073 C5.2467007,11.8781122 5.27143699,11.9890293 5.29619414,12.1001131 C5.31060626,12.1648113 5.32405896,12.2314908 5.33907593,12.2948332 C5.37182128,12.43203 5.40671488,12.5641793 5.44238019,12.6947853 C5.45153637,12.7282606 5.45973314,12.763759 5.46888932,12.7969007 C5.51469108,12.9584583 5.56282882,13.1145513 5.61292711,13.2656596 C5.6275478,13.310064 5.64392047,13.3512147 5.65891659,13.3948682 C5.69537446,13.4993195 5.73162376,13.6030201 5.77020904,13.7018192 C5.79125366,13.7560472 5.81348712,13.8065209 5.83530344,13.8589343 C5.86961305,13.9421534 5.90392266,14.0251847 5.93977568,14.1039195 C5.96432426,14.1577304 5.9896654,14.2084126 6.01481883,14.2600543 C6.04971244,14.3319481 6.08477289,14.4032787 6.12104305,14.4711054 C6.14794846,14.5215791 6.17562558,14.5695291 6.20330269,14.6176668 C6.23955199,14.6808007 6.27598901,14.7425997 6.31323944,14.801875 C6.34245997,14.8476559 6.37170135,14.8917057 6.40133901,14.9351715 C6.43915258,14.9905258 6.47736244,15.0437317 6.51594771,15.0950188 C6.53232038,15.1164389 6.54752507,15.1412169 6.56410631,15.1620738 C5.18976134,14.8907672 3.93067164,14.2290818 2.90820354,13.2303906 Z M9.48311373,15.0963954 C9.52251242,15.0443783 9.56107684,14.9903589 9.59949526,14.9340661 C9.62869493,14.8911635 9.6577486,14.8476977 9.68621828,14.8024799 C9.72403185,14.7430377 9.76067743,14.6806756 9.79709359,14.6171246 C9.82458299,14.5691745 9.85209325,14.5214331 9.8789778,14.4711262 C9.91522711,14.4032996 9.95009985,14.3319689 9.98518117,14.2600752 C10.0105223,14.2084126 10.0358634,14.1577512 10.060412,14.1039404 C10.0958896,14.0256019 10.1301992,13.9429459 10.1642794,13.86029 C10.1863252,13.8072926 10.2087255,13.7562141 10.2299787,13.7012561 C10.2677922,13.6040212 10.3036244,13.5016972 10.3395191,13.3989561 C10.355287,13.3539469 10.3718682,13.3112528 10.3872606,13.2650548 C10.4373589,13.1144053 10.4853089,12.9586877 10.5309021,12.7972761 C10.5406423,12.7624033 10.5494439,12.7247566 10.5589755,12.6894876 C10.5940568,12.5606753 10.6283873,12.4306534 10.6607364,12.2956049 C10.675941,12.2308651 10.68979,12.1630593 10.7044107,12.0971723 C10.7289384,11.9870687 10.7535079,11.8771111 10.7761168,11.763295 C10.7796207,11.7449618 10.7839381,11.7280259 10.7874421,11.7096927 C10.7922809,11.7116533 10.7971822,11.7131967 10.8020627,11.7151572 C10.8256519,11.725106 10.8486154,11.7362227 10.8720168,11.7461506 C10.9714208,11.7888447 11.0702408,11.8336453 11.1678929,11.8808236 C11.2080633,11.9003457 11.2478165,11.9205769 11.2879869,11.9408707 C11.3698294,11.9823759 11.4512965,12.0254454 11.5315956,12.0700792 C11.5713489,12.092125 11.611123,12.1141081 11.6505008,12.1369256 C11.7401647,12.1887759 11.8286397,12.2429621 11.916343,12.2989003 C11.9416841,12.3150644 11.9680055,12.3304777 11.9935344,12.3470589 C12.1046182,12.4199329 12.2137624,12.4957478 12.3209669,12.5744826 C12.3490403,12.5953395 12.3763212,12.6173853 12.4043946,12.6386385 C12.4837134,12.6986438 12.5620519,12.7600257 12.6390347,12.8232221 C12.6745123,12.8526303 12.7095937,12.8826643 12.7448627,12.9126773 C12.8148376,12.9725158 12.8838531,13.0339185 12.9514712,13.0964893 C12.9842165,13.1266692 13.0171287,13.1564946 13.0495195,13.1873002 C13.0639316,13.2013578 13.0775929,13.2161453 13.0921719,13.2303906 C12.0695369,14.2290818 10.8100509,14.8907463 9.43593541,15.1620947 C9.45195351,15.1416132 9.46715819,15.1174609 9.48311373,15.0963954 Z" id="Shape"></path>
        </g>
    </g>
</svg>