<?xml version="1.0" encoding="utf-8"?>
<!-- Generator: Adobe Illustrator 22.1.0, SVG Export Plug-In . SVG Version: 6.00 Build 0)  -->
<svg version="1.1" id="Calque_1" xmlns="http://www.w3.org/2000/svg" xmlns:xlink="http://www.w3.org/1999/xlink" x="0px" y="0px"
	 viewBox="0 0 121.9 117.8" style="enable-background:new 0 0 121.9 117.8;" xml:space="preserve">
<style type="text/css">
	.st0{fill:url(#SVGID_1_);}
	.st1{fill:url(#SVGID_2_);}
</style>
<g>
	<linearGradient id="SVGID_1_" gradientUnits="userSpaceOnUse" x1="60.9449" y1="73.2676" x2="60.9449" y2="20.1713">
		<stop  offset="0" style="stop-color:#FFA133"/>
		<stop  offset="1" style="stop-color:#FFCC33"/>
	</linearGradient>
	<path class="st0" d="M60.9,17c-7.6,0-14.7,1.9-20.9,5.3l-3.8,11.3l-4.6-5.3C22.7,36.4,17,48,17,60.9c0,19.6,12.9,36.2,30.7,41.9
		c4.3-11.5,4.1-24-0.5-37.7c14.4-2.6,28.5,7.2,42.1,29.3c9.5-8.1,15.5-20.1,15.5-33.5C104.9,36.7,85.2,17,60.9,17z"/>
	<linearGradient id="SVGID_2_" gradientUnits="userSpaceOnUse" x1="60.9449" y1="77.2225" x2="60.9449" y2="4.3422">
		<stop  offset="0" style="stop-color:#FFA133"/>
		<stop  offset="1" style="stop-color:#FFCC33"/>
	</linearGradient>
	<path class="st1" d="M60.9,0C27.3,0,0,27.3,0,60.9c0,26,16.3,48.1,39.1,56.9c2.5-3.2,4.6-6.4,6.3-9.8c-19.7-6.5-34-25.2-34-47.1
		c0-14.7,6.4-27.8,16.6-36.9l-4.7-5.4L42.4,15c5.7-2.3,12-3.6,18.6-3.6c27.4,0,49.6,22.3,49.6,49.6c0,15.5-7.1,29.3-18.3,38.4
		c1.8,3.2,3.6,6.5,5.4,10.1c14.7-11.1,24.2-28.7,24.2-48.6C121.9,27.3,94.6,0,60.9,0z"/>
</g>
</svg>
