<?xml version="1.0" encoding="UTF-8"?>
<svg width="16px" height="16px" viewBox="0 0 16 16" version="1.1" xmlns="http://www.w3.org/2000/svg" xmlns:xlink="http://www.w3.org/1999/xlink">
    <!-- Generator: Sketch 49.3 (51167) - http://www.bohemiancoding.com/sketch -->
    <title>off</title>
    <desc>Created with Sketch.</desc>
    <defs></defs>
    <g id="off" stroke="none" stroke-width="1" fill="none" fill-rule="evenodd">
        <g id="ico-off" transform="translate(1.000000, 0.000000)" fill="#000000" fill-rule="nonzero">
            <path d="M7.11118038,15.9999967 C5.21585395,16.0017024 3.40107798,15.2337028 2.08273696,13.8719971 C0.73990901,12.5006302 -0.00837448348,10.6553114 7.07154122e-05,8.73599824 C7.07154122e-05,6.7964431 0.739626121,4.9724434 2.08184807,3.60088812 C2.19922193,3.47972126 2.36070843,3.41132233 2.52940353,3.41132233 C2.69809864,3.41132233 2.85958513,3.47972126 2.976959,3.60088812 C3.22398306,3.8553967 3.22398306,4.2601573 2.976959,4.51466577 C0.69873724,6.84266529 0.69873724,10.6302201 2.976959,12.9582196 C4.06243833,14.0743868 5.55315337,14.7041621 7.11010378,14.7043295 C8.6670542,14.7044969 10.1579046,14.0750422 11.2436239,12.9591085 C12.347889,11.8318982 12.9633326,10.3148471 12.9565125,8.73688714 C12.963711,7.15919793 12.3489343,5.6422166 11.2454017,4.51466577 C10.9983777,4.2601573 10.9983777,3.8553967 11.2454017,3.60088812 C11.3627756,3.47972126 11.5242622,3.41132233 11.6929572,3.41132233 C11.8616523,3.41132233 12.0231389,3.47972126 12.1405127,3.60088812 C13.4832323,4.97261792 14.2312066,6.81828165 14.22229,8.73777603 C14.2304981,10.6572153 13.4818881,12.5025515 12.1387349,13.8737749 C10.8202496,15.2345187 9.00591609,16.0018252 7.11118038,15.9999967 Z M7.11473594,8.64533155 C6.76161523,8.64142467 6.47839223,8.35223494 6.48184718,7.99910947 L6.48184718,0.646222079 C6.47839223,0.293096711 6.76161523,0.00390688473 7.11473594,0 C7.46785664,0.00390688473 7.75107964,0.293096711 7.7476247,0.646222079 L7.7476247,7.99999837 C7.75107964,8.35312384 7.46785664,8.64231356 7.11473594,8.64622045 L7.11473594,8.64533155 Z" id="ico-off-red"></path>
        </g>
    </g>
</svg>