<?xml version="1.0" encoding="UTF-8"?>
<svg width="16px" height="16px" viewBox="0 0 16 16" version="1.1" xmlns="http://www.w3.org/2000/svg" xmlns:xlink="http://www.w3.org/1999/xlink">
    <!-- Generator: Sketch 49.3 (51167) - http://www.bohemiancoding.com/sketch -->
    <title>search-rd</title>
    <desc>Created with Sketch.</desc>
    <defs></defs>
    <g id="search-rd" stroke="none" stroke-width="1" fill="none" fill-rule="evenodd">
        <g id="ico-search-rd" fill="#000000">
            <path d="M5.95276532,1.21247642 C3.11270553,1.21247642 0.81793722,3.48113313 0.81793722,6.3396406 C0.81793722,9.24352119 3.31718984,11.7390436 6.22541106,11.7390436 C9.08819133,11.7390436 11.3602392,9.4477003 11.3602392,6.6118794 C11.3602392,3.68531224 8.88370703,1.21247642 5.95276532,1.21247642 Z M14.6092676,15.59576 L10.0878924,11.0811331 C9.04275037,12.0112824 7.67952167,12.55576 6.20269058,12.55576 C2.88550075,12.55576 0,9.67456597 0,6.36232716 C0,3.09546149 2.70373692,0.39576 5.9754858,0.39576 C9.36083707,0.39576 12.1781764,3.20889433 12.1781764,6.58919284 C12.1781764,8.0638197 11.6101644,9.4477003 10.7013453,10.4912824 L15.2,14.9832227 L14.6092676,15.59576 Z" id="path-1"></path>
        </g>
    </g>
</svg>