<?xml version="1.0" encoding="UTF-8"?>
<svg width="16px" height="16px" viewBox="0 0 16 16" version="1.1" xmlns="http://www.w3.org/2000/svg" xmlns:xlink="http://www.w3.org/1999/xlink">
    <!-- Generator: Sketch 49.3 (51167) - http://www.bohemiancoding.com/sketch -->
    <title>time</title>
    <desc>Created with Sketch.</desc>
    <defs></defs>
    <g id="time" stroke="none" stroke-width="1" fill="none" fill-rule="evenodd">
        <g id="ico-time" fill="#000000" fill-rule="nonzero">
            <path d="M8,16.0555556 C3.55103952,16.0555556 -0.0555555556,12.4489605 -0.0555555556,8 C-0.0555555556,3.55103952 3.55103952,-0.0555555556 8,-0.0555555556 C12.4489605,-0.0555555556 16.0555556,3.55103952 16.0555556,8 C16.0555556,12.4489605 12.4489605,16.0555556 8,16.0555556 Z M8,15.0555556 C11.8966757,15.0555556 15.0555556,11.8966757 15.0555556,8 C15.0555556,4.10332427 11.8966757,0.944444444 8,0.944444444 C4.10332427,0.944444444 0.944444444,4.10332427 0.944444444,8 C0.944444444,11.8966757 4.10332427,15.0555556 8,15.0555556 Z" id="Oval"></path>
            <polygon id="Path" points="7.11839481 9.02380578 7.11839481 2.78073003 7.92537203 2.78073003 7.92537203 8.10491152 12.4444444 8.10491152 12.4444444 9.02380578"></polygon>
        </g>
    </g>
</svg>