<?xml version="1.0" encoding="UTF-8"?>
<svg width="16px" height="16px" viewBox="0 0 16 16" version="1.1" xmlns="http://www.w3.org/2000/svg" xmlns:xlink="http://www.w3.org/1999/xlink">
    <!-- Generator: Sketch 50.2 (55047) - http://www.bohemiancoding.com/sketch -->
    <title>a</title>
    <desc>Created with Sketch.</desc>
    <defs></defs>
    <g id="SHARCK---Icons" stroke="none" stroke-width="1" fill="none" fill-rule="evenodd">
        <g id="Icons/Set/Folder" fill="#000000" fill-rule="nonzero">
            <path d="M15.019,12.996 L15.019,4.996 C15.019,4.266 14.739,3.958 14.009,3.958 L10.991,3.958 L8.804,1.768 C8.215,1.178 7.682,0.954 6.84,0.954 L2.972,0.954 L2.972,1.993 L1.991,1.993 L1.991,0 L6.841,0 C7.991,0 8.636,0.253 9.364,0.982 L11.384,3.004 L14.009,3.004 C15.355,3.004 16,3.649 16,4.996 L16,12.996 L15.019,12.996 Z M12.018,15.046 C12.747,15.046 13.027,14.736 13.027,14.007 L13.027,8 C13.027,7.27 12.747,6.961 12.017,6.961 L9.618,6.961 L7.43,4.771 C6.841,4.182 6.308,3.958 5.467,3.958 L0.981,3.958 L0.981,14.007 C0.981,14.737 1.261,15.046 1.991,15.046 L12.018,15.046 Z M0,14.007 L0,3.004 L5.467,3.004 C6.617,3.004 7.262,3.256 7.991,3.986 L10.009,6.007 L12.019,6.007 C13.364,6.007 14.009,6.653 14.009,8 L14.009,14.007 C14.009,15.354 13.364,16 12.019,16 L1.99,16 C0.645,16 0,15.354 0,14.007 Z" id="a"></path>
        </g>
    </g>
</svg>