<?xml version="1.0" encoding="UTF-8"?>
<svg width="16px" height="16px" viewBox="0 0 16 16" version="1.1" xmlns="http://www.w3.org/2000/svg" xmlns:xlink="http://www.w3.org/1999/xlink">
    <!-- Generator: Sketch 49.3 (51167) - http://www.bohemiancoding.com/sketch -->
    <title>admin</title>
    <desc>Created with Sketch.</desc>
    <defs></defs>
    <g id="admin" stroke="none" stroke-width="1" fill="none" fill-rule="evenodd">
        <g id="ico-admin" transform="translate(-1.000000, -1.000000)" fill="#000000" fill-rule="nonzero">
            <path d="M9.10973954,16.9431161 L8.96423272,16.9946108 L8.8187433,16.9430673 C5.87464147,15.9000401 3.7444201,13.7326421 2.41380206,10.5645245 C1.81219741,9.13214192 1.40016484,7.55360237 1.17411282,5.88423014 C1.05697221,5.01915826 1.00079156,4.24090241 0.999442727,3.6069917 L0.998504867,3.16622677 L1.44064632,3.17286314 C2.57668877,3.18991468 4.14884033,2.84306573 6.10302102,2.15953467 C7.07382812,1.81996684 8.31440934,1.32058832 8.81026458,1.08435864 L8.99864867,0.994610841 L9.18667767,1.08509545 C9.6585957,1.3121951 10.9184672,1.82048178 11.8972855,2.16327549 C13.8531788,2.84825182 15.4237277,3.194096 16.5526609,3.17328933 L16.9985049,3.16507226 L16.9953456,3.60954357 C16.9910247,4.21745219 16.9325402,4.97846741 16.8143619,5.82987206 C16.5799228,7.51886654 16.1559567,9.11709031 15.5391886,10.5663168 C14.1909355,13.7343225 12.0510985,15.9021724 9.10973954,16.9431161 Z M14.7388995,10.227919 C15.3244495,8.85204586 15.7288983,7.32739675 15.9532445,5.71111507 C16.0396485,5.08862554 16.0924975,4.51956798 16.114456,4.03198178 C14.923271,3.97286914 13.4161731,3.61365171 11.6091231,2.98080201 C10.7100489,2.66593562 9.58657143,2.21782214 8.99717069,1.95272385 C8.39666468,2.22187859 7.28529587,2.6643196 6.39086641,2.97717214 C4.5832269,3.6094462 3.07377984,3.96929949 1.87771221,4.03057464 C1.89722092,4.53935542 1.94884715,5.12750722 2.03562095,5.76832313 C2.25187499,7.36533824 2.64478665,8.87062362 3.21568616,10.2298992 C4.43353214,13.1295136 6.33840021,15.0975873 8.96438712,16.0737793 C11.5891317,15.0990261 13.5042119,13.1290785 14.7388995,10.227919 Z" id="Shape"></path>
        </g>
    </g>
</svg>