<?xml version="1.0" encoding="UTF-8"?>
<svg width="16px" height="16px" viewBox="0 0 16 16" version="1.1" xmlns="http://www.w3.org/2000/svg" xmlns:xlink="http://www.w3.org/1999/xlink">
    <!-- Generator: Sketch 49.3 (51167) - http://www.bohemiancoding.com/sketch -->
    <title>assistant</title>
    <desc>Created with Sketch.</desc>
    <defs></defs>
    <g id="assistant" stroke="none" stroke-width="1" fill="none" fill-rule="evenodd">
        <g id="ico-assistant" fill="#000000" fill-rule="nonzero">
            <path d="M8,16 C3.581722,16 -2.3869795e-15,12.418278 -2.3869795e-15,8 C-2.3869795e-15,3.581722 3.581722,1.16573418e-15 8,1.16573418e-15 C12.418278,1.16573418e-15 16,3.581722 16,8 C16,12.418278 12.418278,16 8,16 Z M8,15.3043478 C12.0340799,15.3043478 15.3043478,12.0340799 15.3043478,8 C15.3043478,3.96592009 12.0340799,0.695652174 8,0.695652174 C3.96592009,0.695652174 0.695652174,3.96592009 0.695652174,8 C0.695652174,12.0340799 3.96592009,15.3043478 8,15.3043478 Z" id="Oval-4"></path>
            <path d="M6.47807786,6.11113965 L7.31735862,3.51927572 C7.40302467,3.21437165 7.6789658,3 8,3 C8.32101687,3 8.5973278,3.21464073 8.67851873,3.50637223 L9.52540687,6.11113965 L12.2971215,6.11113965 C12.6912303,6.11113965 13,6.44253588 13,6.83338684 C13,7.06953545 12.8852049,7.28721157 12.6919805,7.42261933 C12.6715133,7.43646007 12.1913113,7.7863204 11.4851947,8.30171453 C11.2173497,8.4972148 11.0273527,8.63594687 10.6474185,8.91342027 C10.5668593,8.97226273 10.5076548,9.01550713 10.4627297,9.0483218 C10.4798005,9.10072247 10.5022424,9.16960993 10.5326819,9.2630462 C10.6775379,9.70758627 10.7499866,9.92984853 10.8514797,10.2410151 C11.1066421,11.0233111 11.307106,11.6360029 11.3161256,11.6601317 C11.3421632,11.7374739 11.3569181,11.8165975 11.3569181,11.898641 C11.3569181,12.2906997 11.0386523,12.6111717 10.6462707,12.6111717 C10.5003011,12.6111717 10.3603411,12.5661447 10.2367364,12.4810601 C10.2117761,12.4632173 9.7670654,12.1395096 9.0195458,11.5951615 C8.5633434,11.2629403 8.5633434,11.2629403 8.18354013,10.9863297 C8.10363187,10.9281305 8.04473947,10.8852379 7.99995413,10.8526196 L5.75789989,12.48483 C5.63908308,12.5662741 5.49953533,12.6111717 5.35355805,12.6111717 C4.96076855,12.6111717 4.64308186,12.2921904 4.64308186,11.898641 C4.64308186,11.8172049 4.65759289,11.7390853 4.68967266,11.6437645 C4.69299373,11.6353773 4.89559957,11.0163614 5.14731557,10.2447148 C5.25002859,9.9298416 5.32248058,9.70758147 5.46733977,9.26304433 C5.49777747,9.16961427 5.52021865,9.10072987 5.53728903,9.0483308 C5.49236016,9.0155158 5.43315042,8.9722708 5.3525834,8.913427 C4.97262188,8.63595293 4.78261201,8.4972204 4.51649996,8.30299527 C3.80776745,7.785719 3.32827891,7.43637793 3.30335141,7.4194344 C3.11513897,7.28748268 3,7.07003316 3,6.8352702 C3,6.44288561 3.31242433,6.11113965 3.70662386,6.11113965 L6.47807786,6.11113965 Z M8,3.66666667 C7.9810388,3.66666667 7.96490613,3.67919969 7.95539707,3.71209921 L6.96297139,6.77780631 L3.70662386,6.77780631 C3.68985504,6.77780631 3.66666667,6.80242875 3.66666667,6.8352702 C3.66666667,6.85082113 3.67436589,6.86536175 3.6817023,6.87055634 C3.71324233,6.89193049 4.13878262,7.20196647 4.90782944,7.7632638 C5.17569702,7.9587702 5.36574831,8.097533 5.74576801,8.37504953 C6.04974179,8.597063 6.04974179,8.597063 6.12572775,8.6525738 L6.32088087,8.79514093 L6.24604753,9.02494547 C6.21708609,9.11388267 6.21708609,9.11388267 6.10120811,9.46957613 C5.95632312,9.9141924 5.88385276,10.1365089 5.78232366,10.4477528 C5.46520297,11.4199003 5.32153117,11.8588568 5.31610215,11.8710472 C5.31149686,11.8849873 5.30974853,11.8943994 5.30974853,11.898641 C5.30974853,11.9246061 5.32956671,11.9445051 5.35355805,11.9445051 C5.35944375,11.9445051 6.24160439,11.305646 8.00003993,10.0279278 L8.19624927,10.1708393 C8.27219827,10.2261577 8.27219827,10.2261577 8.5760202,10.4474383 C8.95581,10.7240392 8.95581,10.7240392 9.41159667,11.0559577 C10.1425183,11.5882191 10.6021874,11.9228151 10.6194865,11.9352485 C10.6288431,11.9416841 10.6376115,11.9445051 10.6462707,11.9445051 C10.6694276,11.9445051 10.6902515,11.9235369 10.6902515,11.898641 C10.6781864,11.8582268 10.5324215,11.4127153 10.2187945,10.4511745 C10.1161579,10.1365019 10.0436922,9.91418753 9.89881233,9.46957427 C9.78293613,9.1138832 9.78293613,9.1138832 9.7539746,9.02494767 L9.67914213,8.79515133 L9.87428327,8.6525814 C9.95026353,8.59707027 9.95026353,8.59707027 10.2542155,8.3750562 C10.6342096,8.09753907 10.8242493,7.9587758 11.0904073,7.76450693 C11.8619848,7.20133293 12.28677,6.89184753 12.3139025,6.87355652 C12.3256473,6.86532248 12.3333333,6.85074816 12.3333333,6.83338684 C12.3333333,6.80060327 12.3120929,6.77780631 12.2971215,6.77780631 L9.04114207,6.77780631 L8.96627527,6.54753895 L8.04047747,3.6991215 C8.03490773,3.67918353 8.0187946,3.66666667 8,3.66666667 Z" id="Shape"></path>
        </g>
    </g>
</svg>