<?xml version="1.0" encoding="UTF-8"?>
<svg width="16px" height="16px" viewBox="0 0 16 16" version="1.1" xmlns="http://www.w3.org/2000/svg" xmlns:xlink="http://www.w3.org/1999/xlink">
    <!-- Generator: Sketch 51.1 (57501) - http://www.bohemiancoding.com/sketch -->
    <title>Icons/Set/attached</title>
    <desc>Created with Sketch.</desc>
    <defs></defs>
    <g id="Icons/Set/attached" stroke="none" stroke-width="1" fill="none" fill-rule="evenodd">
        <path d="M2.94824017,15.5921325 C2.15320911,15.5921325 1.42443064,15.2939959 0.861283644,14.7308489 C0.298136646,14.1677019 0,13.4389234 0,12.6438923 C0,11.8488613 0.298136646,11.1200828 0.861283644,10.5569358 L9.27536232,2.14285714 C10.7991718,0.619047619 13.3167702,0.619047619 14.8405797,2.14285714 C15.5693582,2.87163561 16,3.86542443 16,4.92546584 C16,5.98550725 15.6024845,6.94616977 14.8405797,7.70807453 L8.54658385,14.0020704 L7.88405797,13.3395445 L14.1780538,7.04554865 C15.3374741,5.88612836 15.3374741,3.96480331 14.1780538,2.80538302 C13.0186335,1.64596273 11.0973085,1.64596273 9.9378882,2.80538302 L1.52380952,11.2194617 C1.126294,11.5838509 0.927536232,12.1138716 0.927536232,12.6438923 C0.927536232,13.173913 1.126294,13.7039337 1.52380952,14.068323 C2.31884058,14.863354 3.57763975,14.863354 4.37267081,14.068323 L10.6666667,7.77432712 C11.0641822,7.37681159 11.0641822,6.71428571 10.6666667,6.31677019 C10.2691511,5.91925466 9.60662526,5.91925466 9.20910973,6.31677019 L5.00207039,10.5238095 L4.33954451,9.86128364 L8.54658385,5.65424431 C9.30848861,4.89233954 10.5341615,4.89233954 11.2960663,5.65424431 C12.057971,6.41614907 12.057971,7.64182195 11.2960663,8.40372671 L5.00207039,14.6977226 C4.47204969,15.2939959 3.74327122,15.5921325 2.94824017,15.5921325" id="Fill-60" fill="#000000" fill-rule="nonzero"></path>
    </g>
</svg>