<?xml version="1.0" encoding="UTF-8"?>
<svg width="16px" height="16px" viewBox="0 0 16 16" version="1.1" xmlns="http://www.w3.org/2000/svg" xmlns:xlink="http://www.w3.org/1999/xlink">
    <!-- Generator: Sketch 50.2 (55047) - http://www.bohemiancoding.com/sketch -->
    <title>Icons/Set/avatar</title>
    <desc>Created with Sketch.</desc>
    <defs>
        <path d="M8,7.021 C9.904,7.021 10.996,5.762 10.996,4 C10.996,2.238 9.904,0.979 8,0.979 C6.096,0.979 5.004,2.238 5.004,4 C5.004,5.762 6.096,7.021 8,7.021 Z M2.008,16 L1,16 L1,14.545 C1,10.657 2.624,8.14 5.62,7.33 C4.584,6.629 3.996,5.427 3.996,4 C3.996,1.678 5.536,0 8,0 C10.464,0 12.004,1.678 12.004,4 C12.004,5.427 11.416,6.63 10.408,7.329 C13.404,8.139 15,10.629 15,14.545 L15,16 L13.992,16 L13.992,14.601 C13.992,10.35 11.863,8 8,8 C4.164,8 2.008,10.378 2.008,14.601 L2.008,16 Z" id="path-1"></path>
    </defs>
    <g id="Icons/Set/avatar" stroke="none" stroke-width="1" fill="none" fill-rule="evenodd">
        <mask id="mask-2" fill="white">
            <use xlink:href="#path-1"></use>
        </mask>
        <use id="avatar" fill="#000000" fill-rule="nonzero" xlink:href="#path-1"></use>
    </g>
</svg>