<?xml version="1.0" encoding="UTF-8"?>
<svg width="16px" height="16px" viewBox="0 0 16 16" version="1.1" xmlns="http://www.w3.org/2000/svg" xmlns:xlink="http://www.w3.org/1999/xlink">
    <!-- Generator: Sketch 52.4 (67378) - http://www.bohemiancoding.com/sketch -->
    <title>back</title>
    <desc>Created with Sketch.</desc>
    <defs>
        <path d="M8,6.224375 L8,4.625 C8,4.465 7.93875,4.305 7.816875,4.1825 C7.695,4.060625 7.535,4 7.375,4 C7.215,4 7.055,4.060625 6.933125,4.1825 L3,8.0625 L6.933125,11.941875 C7.055,12.06375 7.215,12.125 7.375,12.125 C7.535,12.125 7.695,12.06375 7.816875,11.941875 C7.93875,11.82 8,11.659375 8,11.5 L8,9.944375 C9.71875,9.986875 11.596875,10.298125 13,12.4375 L13,11.8125 C13,8.916875 10.8125,6.535625 8,6.224375 Z" id="path-1"></path>
    </defs>
    <g id="back" stroke="none" stroke-width="1" fill="none" fill-rule="evenodd">
        <mask id="mask-2" fill="white">
            <use xlink:href="#path-1"></use>
        </mask>
        <use id="Mask" fill="#000000" xlink:href="#path-1"></use>
    </g>
</svg>