<?xml version="1.0" encoding="UTF-8"?>
<svg width="16px" height="16px" viewBox="0 0 16 16" version="1.1" xmlns="http://www.w3.org/2000/svg" xmlns:xlink="http://www.w3.org/1999/xlink">
    <!-- Generator: Sketch 51.2 (57519) - http://www.bohemiancoding.com/sketch -->
    <title>Icons/Set/car</title>
    <desc>Created with Sketch.</desc>
    <defs></defs>
    <g id="Icons/Set/car" stroke="none" stroke-width="1" fill="none" fill-rule="evenodd">
        <g id="🎨-color" fill="#000000" fill-rule="nonzero">
            <path d="M12.4613333,9.32444444 C11.888,9.32444444 11.5137778,9.69955556 11.5137778,10.2497778 C11.5137778,10.8 11.8871111,11.1742222 12.4613333,11.1742222 C13.0346667,11.1742222 13.408,10.8 13.408,10.2497778 C13.408,9.69955556 13.0346667,9.32533333 12.4613333,9.32533333 L12.4613333,9.32444444 Z M3.56355556,9.32444444 C2.99022222,9.32444444 2.61688889,9.69955556 2.61688889,10.2497778 C2.61688889,10.8 2.99022222,11.1742222 3.56355556,11.1742222 C4.13688889,11.1742222 4.51111111,10.8 4.51111111,10.2497778 C4.51111111,9.69955556 4.13777778,9.32533333 3.56355556,9.32533333 L3.56355556,9.32444444 Z M5.33333333,10.2506667 L10.6915556,10.2506667 C10.6915556,9.25066667 11.4391111,8.50133333 12.4604444,8.50133333 C13.4826667,8.50133333 14.2302222,9.25066667 14.2302222,10.2506667 C14.2302222,11.2506667 13.4844444,12 12.4622222,12 C11.7644444,12 11.1911111,11.6497778 10.8915556,11.0995556 L5.13422222,11.0995556 C4.83466667,11.6506667 4.26133333,12 3.56355556,12 C2.54133333,12 1.79466667,11.2497778 1.79466667,10.2497778 C1.79466667,9.24977778 2.54133333,8.50044444 3.56355556,8.50044444 C4.58577778,8.50044444 5.33333333,9.24888889 5.33333333,10.2488889 L5.33333333,10.2506667 Z M0,8.69955556 C0,7.47555556 0.0746666667,7.29955556 1.296,5.84977778 C2.54222222,4.35022222 3.14044444,4 4.46044444,4 L7.62666667,4 C9.048,4 9.82044444,4.24977778 10.9422222,5.02488889 L12.8355556,6.44977778 L14.0568889,6.75022222 C15.3777778,7.04888889 16,7.82577778 16,9.09955556 C16,9.72533333 15.8257778,10.2746667 15.5022222,10.7253333 L14.8035556,10.2248889 C15.0524444,9.84977778 15.128,9.57511111 15.128,9.09955556 C15.128,8.22488889 14.6791111,7.75022222 13.5573333,7.47466667 L12.3368889,7.17511111 L10.4924444,5.77511111 C9.59466667,5.09955556 8.82222222,4.85066667 7.62577778,4.85066667 L4.46222222,4.85066667 C3.44,4.85066667 3.06666667,5.09955556 1.92,6.47466667 C0.971555556,7.62488889 0.871111111,7.77511111 0.871111111,8.82488889 L0.871111111,9.34933333 C0.871111111,9.72533333 0.945777778,9.95022222 1.17066667,10.1751111 L0.572444444,10.7253333 C0.174222222,10.3751111 0,9.95022222 0,9.35022222 L0,8.69955556 Z" id="a"></path>
        </g>
    </g>
</svg>