<?xml version="1.0" encoding="UTF-8"?>
<svg width="16px" height="16px" viewBox="0 0 16 16" version="1.1" xmlns="http://www.w3.org/2000/svg" xmlns:xlink="http://www.w3.org/1999/xlink">
    <!-- Generator: Sketch 50.2 (55047) - http://www.bohemiancoding.com/sketch -->
    <title>Icons/Set/client</title>
    <desc>Created with Sketch.</desc>
    <defs>
        <path d="M13.736,7.1152 L15.6368,6.0112 L16,6.6512 L14.4616,7.5352 L13.736,7.1152 Z M5.0624,6.4752 C4.3792,6.4752 3.824,5.9016 3.824,5.1952 C3.824,4.6872 4.016,4.4224 4.6144,4.0688 L8.096,1.9936 C9.4848,1.9936 10.1472,2.788 11.2576,2.788 C11.856,2.788 12.24,2.656 12.988,2.192 L14.8888,1 L15.252,1.64 L13.1592,2.9648 C12.5184,3.3624 11.9624,3.5392 11.2576,3.5392 C10.104,3.5392 9.4632,2.8104 8.2672,2.744 L4.8704,4.776 C4.6784,4.8856 4.5712,5.0184 4.5712,5.1952 C4.5712,5.4816 4.7848,5.7248 5.0624,5.7248 C5.212,5.7248 5.2976,5.6808 5.5328,5.5488 L8.032,4.0464 L8.4376,4.6648 L5.832,6.2544 C5.5968,6.3872 5.448,6.4752 5.0624,6.4752 Z M11.044,13.4512 C10.98,14.136 10.5104,14.6 9.848,14.6 C9.6344,14.6 9.4208,14.512 9.1856,14.3792 L5.0624,11.9504 C3.7168,11.156 3.3536,11.0672 2.264,11.0672 L0,11.0672 L0,10.3168 L2.4992,10.3168 C3.4816,10.3168 4.1232,10.5152 5.1272,11.112 L9.5488,13.7392 C9.72,13.8272 9.8048,13.8496 9.912,13.8496 C10.168,13.8496 10.4032,13.5848 10.4032,13.3192 C10.4032,13.0984 10.3816,13.0552 10.0616,12.8552 L7.2632,11.1776 L7.6264,10.5376 L11.5992,12.9216 C11.7704,13.0328 11.8552,13.0328 11.9624,13.0328 C12.1976,13.0328 12.4536,12.7672 12.4536,12.5024 C12.4536,12.2816 12.4112,12.2152 12.112,12.0384 L8.6512,9.964 L9.0144,9.324 L13.1584,11.796 C13.3296,11.884 13.4368,11.9064 13.5224,11.9064 C13.7784,11.9064 14.0136,11.6416 14.0136,11.3768 C14.0136,11.1776 13.9496,11.0672 13.6712,10.9128 L9.9336,8.6608 L10.296,8.0208 L13.6504,10.008 C13.8208,10.096 13.9064,10.1184 14.0136,10.1184 C14.2696,10.1184 14.5048,9.8536 14.5048,9.588 C14.5048,9.3896 14.4408,9.2792 14.1632,9.124 L8.3736,5.6144 L9.1,5.1728 L14.5264,8.4624 C15.0176,8.7496 15.252,9.1248 15.252,9.5664 C15.252,10.1848 14.9536,10.5824 14.4408,10.692 C14.6544,10.8912 14.74,11.1336 14.74,11.3984 C14.74,12.0832 14.2056,12.6352 13.5224,12.6352 C13.3944,12.6352 13.2664,12.6128 13.116,12.5472 C13.0736,13.2536 12.5608,13.7832 11.9416,13.7832 C11.7496,13.7832 11.5352,13.7168 11.236,13.5624 L11.044,13.452 L11.044,13.4512 Z M3.0544,5.108 L0,5.108 L0,4.356 L3.204,4.356 C3.1192,4.556 3.0544,4.82 3.0544,5.108 Z" id="path-1"></path>
    </defs>
    <g id="Icons/Set/client" stroke="none" stroke-width="1" fill="none" fill-rule="evenodd">
        <mask id="mask-2" fill="white">
            <use xlink:href="#path-1"></use>
        </mask>
        <use id="Mask" fill="#000000" fill-rule="nonzero" xlink:href="#path-1"></use>
    </g>
</svg>