<?xml version="1.0" encoding="UTF-8"?>
<svg width="16px" height="16px" viewBox="0 0 16 16" version="1.1" xmlns="http://www.w3.org/2000/svg" xmlns:xlink="http://www.w3.org/1999/xlink">
    <!-- Generator: Sketch 50.2 (55047) - http://www.bohemiancoding.com/sketch -->
    <title>Icons/Set/comment</title>
    <desc>Created with Sketch.</desc>
    <defs>
        <path d="M3.86139359,13.8995306 L3.45698822,13.8951475 C3.45548121,13.8965945 3.86285402,13.8980557 3.86139359,13.8995306 Z M6.3239384,11.0722093 L14.6383617,11.0722093 C14.8358376,11.0722093 14.9953515,10.9151495 14.9953515,10.720705 L14.9953515,2.34075254 C14.9953515,2.14629252 14.8358219,1.98921129 14.6383617,1.98921129 L1.36167582,1.98921129 C1.16419532,1.98921129 1.00468602,2.14627557 1.00468602,2.34075254 L1.00468602,10.7206681 C1.00464855,10.9151126 1.16416239,11.0721724 1.36163835,11.0721724 L4,11.0721724 L4,13.3604717 L6.3239384,11.0722093 Z M0,10.7206681 L3.74694097e-05,2.34075254 C3.74694097e-05,1.59996472 0.609327541,1 1.36167582,1 L14.6383617,1 C15.3906725,1 16,1.59996472 16,2.34075254 L16,10.720705 C16,11.4614928 15.3906725,12.0614206 14.6383617,12.0614206 L6.74008173,12.0614206 L4.16293573,14.5990035 C4.04022341,14.722708 3.8670398,14.8000002 3.67624557,14.8000002 C3.30188869,14.8000002 2.99535145,14.5018625 2.99535145,14.1297162 L2.99535145,12.0613837 L1.36163835,12.0613837 C0.609327541,12.0613837 0,11.4614559 0,10.7206681 Z" id="path-1"></path>
    </defs>
    <g id="Icons/Set/comment" stroke="none" stroke-width="1" fill="none" fill-rule="evenodd">
        <mask id="mask-2" fill="white">
            <use xlink:href="#path-1"></use>
        </mask>
        <use id="comment" fill="#000000" fill-rule="nonzero" xlink:href="#path-1"></use>
    </g>
</svg>