<?xml version="1.0" encoding="UTF-8"?>
<svg width="16px" height="16px" viewBox="0 0 16 16" version="1.1" xmlns="http://www.w3.org/2000/svg" xmlns:xlink="http://www.w3.org/1999/xlink">
    <!-- Generator: Sketch 50.2 (55047) - http://www.bohemiancoding.com/sketch -->
    <title>Icons/Set/contact mail</title>
    <desc>Created with Sketch.</desc>
    <defs>
        <path d="M9.98,14.738 C10.88,13.981 11.835,13.056 12.763,11.963 L9.98,11.963 L9.98,14.738 Z M7.703,7.608 C7.703,7.468 7.703,7.439 7.843,6.458 C7.67514097,6.18315382 7.37801794,6.01363891 7.056,6.009 C6.438,6.009 5.96,6.626 5.96,7.383 C5.96,7.888 6.185,8.168 6.635,8.168 C7.112,8.168 7.394,8 7.703,7.608 Z M7,11 C4.526,11 3.036,9.57 3.036,7.215 C3.036,4.832 4.751,3.093 7.141,3.093 C9.361,3.093 10.964,4.579 10.964,6.598 C10.964,7.944 10.092,9.009 8.996,9.009 C8.49,9.009 8.096,8.757 7.871,8.364 C7.45,8.785 6.971,9.009 6.522,9.009 C5.651,9.009 5.06,8.364 5.06,7.439 C5.06,6.206 5.96,5.169 7,5.169 C7.394,5.169 7.73,5.28 7.984,5.533 L8.04,5.224 L8.912,5.224 C8.574,7.467 8.574,7.439 8.574,7.636 C8.574,8.028 8.714,8.168 9.052,8.168 C9.642,8.168 10.064,7.523 10.064,6.598 C10.064,5.028 8.884,3.963 7.141,3.963 C5.285,3.963 3.936,5.308 3.936,7.215 C3.936,9.065 5.032,10.131 7,10.131 L7,11 Z M9.024,15.047 L9.024,11.037 L13.016,11.037 L13.016,0.953 L0.984,0.953 L0.984,15.047 L9.024,15.047 Z M0,16 L0,0 L14,0 L14,11.99 C13.016,13.252 11.639,14.626 10.008,16 L0,16 Z" id="path-1"></path>
    </defs>
    <g id="Icons/Set/contact-mail" stroke="none" stroke-width="1" fill="none" fill-rule="evenodd">
        <g id="🎨-color" transform="translate(1.000000, 0.000000)">
            <mask id="mask-2" fill="white">
                <use xlink:href="#path-1"></use>
            </mask>
            <use id="Mask" fill="#000000" fill-rule="nonzero" xlink:href="#path-1"></use>
            <g id="Color/Black" mask="url(#mask-2)" fill="#000000">
                <g transform="translate(-1.000000, 0.000000)" id="Rectangle">
                    <rect x="0" y="0" width="16" height="16"></rect>
                </g>
            </g>
        </g>
    </g>
</svg>