<?xml version="1.0" encoding="UTF-8"?>
<svg width="16px" height="16px" viewBox="0 0 16 16" version="1.1" xmlns="http://www.w3.org/2000/svg" xmlns:xlink="http://www.w3.org/1999/xlink">
    <!-- Generator: Sketch 51.3 (57544) - http://www.bohemiancoding.com/sketch -->
    <title>Icons/Set/currency</title>
    <desc>Created with Sketch.</desc>
    <defs></defs>
    <g id="Icons/Set/currency" stroke="none" stroke-width="1" fill="none" fill-rule="evenodd">
        <path d="M10.9176471,5.83529412 C13.7176471,5.83529412 16,8.11764706 16,10.9176471 C16,13.7176471 13.7176471,16 10.9176471,16 C8.11764706,16 5.83529412,13.7176471 5.83529412,10.9176471 C5.83529412,10.6352941 5.85882353,10.3764706 5.90588235,10.0941176 C5.64705882,10.1411765 5.36470588,10.1647059 5.08235294,10.1647059 C2.28235294,10.1647059 2.66453526e-15,7.88235294 2.66453526e-15,5.08235294 C2.66453526e-15,2.28235294 2.28235294,-1.33226763e-14 5.08235294,-1.33226763e-14 C7.88235294,-1.33226763e-14 10.1647059,2.28235294 10.1647059,5.08235294 C10.1647059,5.34117647 10.1411765,5.62352941 10.0941176,5.90588235 C10.3529412,5.85882353 10.6352941,5.83529412 10.9176471,5.83529412 Z M6.91764706,2.09411765 C7.12941176,2.23529412 7.2,2.51764706 7.05882353,2.72941176 L5.57647059,5.17647059 L6.11764706,5.17647059 C6.37647059,5.17647059 6.58823529,5.38823529 6.58823529,5.64705882 C6.58823529,5.90588235 6.37647059,6.11764706 6.11764706,6.11764706 L5.55294118,6.11764706 L5.55294118,6.54117647 L6.11764706,6.54117647 C6.37647059,6.54117647 6.58823529,6.75294118 6.58823529,7.01176471 C6.58823529,7.27058824 6.37647059,7.48235294 6.11764706,7.48235294 L5.55294118,7.48235294 L5.55294118,8 C5.55294118,8.25882353 5.34117647,8.47058824 5.08235294,8.47058824 C4.82352941,8.47058824 4.61176471,8.25882353 4.61176471,8 L4.61176471,7.45882353 L4.04705882,7.45882353 C3.78823529,7.45882353 3.57647059,7.24705882 3.57647059,6.98823529 C3.57647059,6.72941176 3.78823529,6.51764706 4.04705882,6.51764706 L4.61176471,6.51764706 L4.61176471,6.11764706 L4.04705882,6.11764706 C3.78823529,6.11764706 3.57647059,5.90588235 3.57647059,5.64705882 C3.57647059,5.38823529 3.78823529,5.17647059 4.04705882,5.17647059 L4.58823529,5.17647059 L3.08235294,2.75294118 C2.96470588,2.51764706 3.01176471,2.21176471 3.24705882,2.09411765 C3.48235294,1.97647059 3.76470588,2.04705882 3.90588235,2.25882353 L5.08235294,4.18823529 L6.25882353,2.25882353 C6.4,2.02352941 6.70588235,1.95294118 6.91764706,2.09411765 Z M5.08235294,9.22352941 C5.45882353,9.22352941 5.83529412,9.15294118 6.18823529,9.08235294 C6.70588235,7.76470588 7.74117647,6.72941176 9.05882353,6.21176471 C9.17647059,5.83529412 9.22352941,5.45882353 9.22352941,5.08235294 C9.22352941,2.8 7.36470588,0.941176471 5.08235294,0.941176471 C2.8,0.941176471 0.941176471,2.8 0.941176471,5.08235294 C0.941176471,7.36470588 2.8,9.22352941 5.08235294,9.22352941 Z M10.9176471,15.0588235 C13.2,15.0588235 15.0588235,13.2 15.0588235,10.9176471 C15.0588235,8.63529412 13.2,6.77647059 10.9176471,6.77647059 C8.63529412,6.77647059 6.77647059,8.63529412 6.77647059,10.9176471 C6.77647059,13.2 8.63529412,15.0588235 10.9176471,15.0588235 Z M12.3529412,8.63529412 C12.6117647,8.63529412 12.8235294,8.87058824 12.8235294,9.12941176 C12.8235294,9.38823529 12.6117647,9.6 12.3529412,9.6 L10.8235294,9.6 C10.5882353,9.6 10.4,9.78823529 10.4,10.0235294 C10.4,10.2588235 10.5882353,10.4470588 10.8235294,10.4470588 L10.9882353,10.4470588 C11.7411765,10.4470588 12.3529412,11.0588235 12.3529412,11.8117647 C12.3529412,12.4235294 11.9294118,12.9647059 11.3647059,13.1294118 L11.3647059,13.6705882 C11.3647059,13.9294118 11.1529412,14.1411765 10.8941176,14.1411765 C10.6352941,14.1411765 10.4235294,13.9294118 10.4235294,13.6705882 L10.4235294,13.1764706 L9.45882353,13.1764706 C9.2,13.1764706 8.98823529,12.9647059 8.98823529,12.7058824 C8.98823529,12.4470588 9.2,12.2352941 9.45882353,12.2352941 L10.9882353,12.2352941 C11.2235294,12.2352941 11.4117647,12.0470588 11.4117647,11.8117647 C11.4117647,11.5764706 11.2235294,11.3882353 10.9882353,11.3882353 L10.8235294,11.3882353 C10.0705882,11.3882353 9.45882353,10.7764706 9.45882353,10.0235294 C9.45882353,9.41176471 9.88235294,8.87058824 10.4470588,8.70588235 L10.4470588,8.14117647 C10.4470588,7.88235294 10.6588235,7.67058824 10.9176471,7.67058824 C11.1764706,7.67058824 11.3882353,7.88235294 11.3882353,8.14117647 L11.3882353,8.63529412 L12.3529412,8.63529412 Z" id="Combined-Shape" fill="#000000" fill-rule="nonzero"></path>
    </g>
</svg>