<?xml version="1.0" encoding="UTF-8"?>
<svg width="16px" height="16px" viewBox="0 0 16 16" version="1.1" xmlns="http://www.w3.org/2000/svg" xmlns:xlink="http://www.w3.org/1999/xlink">
    <!-- Generator: Sketch 49.3 (51167) - http://www.bohemiancoding.com/sketch -->
    <title>dashboard</title>
    <desc>Created with Sketch.</desc>
    <defs></defs>
    <g id="dashboard" stroke="none" stroke-width="1" fill="none" fill-rule="evenodd">
        <g id="ico-dashboard" fill="#000000" fill-rule="nonzero">
            <path d="M8.4136,5.8136 C6.9952,5.8136 5.8616,6.972 5.8616,8.4136 C5.8616,9.8552 6.9952,11.0136 8.4136,11.0136 C9.832,11.0136 10.9656,9.8552 10.9656,8.4136 C10.9656,6.972 9.832,5.8136 8.4136,5.8136 Z M8.4136,5.0104 C10.2808,5.0104 11.7936,6.5464 11.7936,8.4136 C11.7936,10.2808 10.2808,11.8168 8.4136,11.8168 C6.5464,11.8168 5.0336,10.2808 5.0336,8.4136 C5.0336,6.5464 6.5464,5.0104 8.4136,5.0104 Z M0.9928,6.7592 L3.5928,6.7592 C4.0176,5.2232 5.2464,3.9944 6.7352,3.6152 L6.7352,0.9696 C3.6632,1.5136 1.4656,3.7352 0.9928,6.76 L0.9928,6.7592 Z M8.4136,0.8272 C12.5968,0.8272 16,4.2064 16,8.3896 C16,12.5968 12.5968,16 8.4136,16 C4.2304,16 0.8512,12.5968 0.8512,8.3896 L1.6544,8.3896 C1.6544,12.124 4.6792,15.1728 8.4136,15.1728 C12.124,15.1728 15.1496,12.1248 15.1496,8.3896 C15.1496,4.6792 12.124,1.6536 8.4136,1.6536 L8.4136,0.828 L8.4136,0.8272 Z M7.5624,4.2544 C5.7192,4.5848 4.5384,5.8144 4.2544,7.5624 L0,7.5624 C0.3784,3.2144 3.2144,0.3784 7.5624,0 L7.5624,4.2544 Z" id="a"></path>
        </g>
    </g>
</svg>