<?xml version="1.0" encoding="UTF-8"?>
<svg width="16px" height="16px" viewBox="0 0 16 16" version="1.1" xmlns="http://www.w3.org/2000/svg" xmlns:xlink="http://www.w3.org/1999/xlink">
    <!-- Generator: Sketch 51.3 (57544) - http://www.bohemiancoding.com/sketch -->
    <title>Icons/Set/database</title>
    <desc>Created with Sketch.</desc>
    <defs></defs>
    <g id="Icons/Set/database" stroke="none" stroke-width="1" fill="none" fill-rule="evenodd">
        <path d="M3.35,4.159 C3.35,5.308 5.3,6.133 8,6.133 C10.7,6.133 12.65,5.308 12.65,4.159 C12.65,3.01 10.7,2.185 8,2.185 C5.3,2.185 3.35,3.01 3.35,4.159 M2,13.564 L2,12.2 C3.575,13.313 5.487,13.815 8,13.815 C10.512,13.815 12.425,13.313 14,12.2 L14,13.564 C12.425,14.497 10.4,15 8,15 C5.6,15 3.575,14.497 2,13.564 M2,11.051 L2,9.687 C3.575,10.8 5.487,11.303 8,11.303 C10.512,11.303 12.425,10.8 14,9.687 L14,11.051 C12.425,11.985 10.4,12.487 8,12.487 C5.6,12.487 3.575,11.985 2,11.051 M14,6.851 L14,8.215 C12.613,9.256 10.287,9.903 8,9.903 C5.712,9.903 3.388,9.256 2,8.215 L2,6.851 C3.35,8.036 5.525,8.718 8,8.718 C10.475,8.718 12.65,8.036 14,6.851 M14,4.159 C14,6.062 11.6,7.318 8,7.318 C4.4,7.318 2,6.062 2,4.159 C2,2.256 4.4,1 8,1 C11.6,1 14,2.256 14,4.159" id="a" fill="#000000" fill-rule="nonzero"></path>
    </g>
</svg>