<?xml version="1.0" encoding="UTF-8"?>
<svg width="16px" height="15px" viewBox="0 0 16 15" version="1.1" xmlns="http://www.w3.org/2000/svg" xmlns:xlink="http://www.w3.org/1999/xlink">
    <!-- Generator: Sketch 50.2 (55047) - http://www.bohemiancoding.com/sketch -->
    <title>documentation</title>
    <desc>Created with Sketch.</desc>
    <defs>
        <path d="M13.376,1.6288 C12.5976,1.6832 11.8208,1.7784 11.1032,1.9248 C9.9,2.168 9.0032,2.5288 8.5656,2.9656 L8,3.5312 L7.4344,2.9656 C6.9968,2.5288 6.1,2.168 4.8968,1.924 C4.07285483,1.76217995 3.23851467,1.65872284 2.4,1.6144 L2.4,11.5208 C2.5768,11.5144 2.7624,11.5112 2.9504,11.5112 C4.1856,11.5112 5.4656,11.8088 6.728,12.3016 C7.16129932,12.4705753 7.58583455,12.6612157 8,12.8728 C8.41379659,12.6604475 8.83837159,12.4697892 9.272,12.3016 C10.5352,11.8088 11.8144,11.5112 13.0496,11.5112 C13.2384,11.5112 13.4232,11.5144 13.6,11.5208 L13.6,1.6144 C13.5253087,1.61880823 13.450641,1.6236083 13.376,1.6288 Z M14.4,2.4 L16,2.4 L16,14.4 L0,14.4 L0,2.4 L1.6,2.4 L1.6,0.784 C1.6,0.784 6.4,0.8 8,2.4 C9.6,0.8 14.4,0.784 14.4,0.784 L14.4,2.4 Z M14.4,3.2 L14.4,12.4 C14.0272,12.3272 13.4264,12.3112 13.0496,12.3112 C11.0496,12.3112 9.0976,13.2064 8.3352,13.6 L15.2,13.6 L15.2,3.2 L14.4,3.2 Z M7.664,13.6 C6.9024,13.2064 4.9504,12.3112 2.9504,12.3112 C2.5744,12.3112 1.9728,12.3272 1.6,12.4 L1.6,3.2 L0.8,3.2 L0.8,13.6 L7.664,13.6 Z M7.6,3.29999995 L7.6,12.9000003 L8.4,12.9000003 L8.4,3.29999995 L7.6,3.29999995 Z" id="path-1"></path>
    </defs>
    <g id="SHARCK---Icons" stroke="none" stroke-width="1" fill="none" fill-rule="evenodd">
        <g id="Icons/Set/documentation">
            <mask id="mask-2" fill="white">
                <use xlink:href="#path-1"></use>
            </mask>
            <g id="documentation"></g>
        </g>
    </g>
</svg>