<?xml version="1.0" encoding="UTF-8"?>
<svg width="16px" height="16px" viewBox="0 0 16 16" version="1.1" xmlns="http://www.w3.org/2000/svg" xmlns:xlink="http://www.w3.org/1999/xlink">
    <!-- Generator: Sketch 50.2 (55047) - http://www.bohemiancoding.com/sketch -->
    <title>Icons/Set/download</title>
    <desc>Created with Sketch.</desc>
    <defs>
        <path d="M16,8.23419071 C16,9.87006517 14.6740764,11.1958729 13.0380049,11.1958729 L10.190709,11.1958729 C9.92064315,11.1958729 9.70171149,10.9769412 9.70171149,10.7068753 C9.70171149,10.4368094 9.92064315,10.2178778 10.190709,10.2178778 L13.0380049,10.2178778 C14.1339637,10.2178778 15.0220049,9.32991424 15.0220049,8.23419071 C15.0220049,7.14269101 14.1408457,6.25716896 13.0509042,6.25023175 C12.7260155,6.25112958 12.4985316,5.9938278 12.5345417,5.70220489 C12.5535477,5.54828709 12.5630905,5.41640015 12.5630905,5.29144254 C12.5630905,3.46144302 11.0797269,1.97799511 9.24964303,1.97799511 C7.85302223,1.97799511 6.62283739,2.8523131 6.14490528,4.14390092 C6.0210963,4.47848856 5.59224244,4.57215505 5.34020714,4.31965602 C5.08063531,4.0596066 4.73031594,3.91113936 4.35591198,3.91113936 C3.5881167,3.91113936 2.96565884,4.53271456 2.96434438,5.29996114 C2.9667017,5.33392852 2.9667017,5.33392852 2.9680992,5.36349558 C2.97617957,5.58974594 2.82789941,5.7919602 2.60968671,5.85227383 C1.65264883,6.11679754 0.97799511,6.98837116 0.97799511,7.99383863 C0.97799511,9.22225739 1.9736948,10.2178778 3.20234719,10.2178778 L5.80929095,10.2178778 C6.07935685,10.2178778 6.29828851,10.4368094 6.29828851,10.7068753 C6.29828851,10.9769412 6.07935685,11.1958729 5.80929095,11.1958729 L3.20234719,11.1958729 C1.43358046,11.1958729 0,9.76240662 0,7.99383863 C0,6.67018348 0.811036527,5.50828693 2.00216036,5.02719204 C2.13853602,3.84832401 3.14029785,2.93314425 4.35591198,2.93314425 C4.76062138,2.93314425 5.14982848,3.03557081 5.49301365,3.22366588 C6.23423203,1.87567284 7.65840467,1 9.24964303,1 C11.6198711,1 13.5410856,2.92132368 13.5410856,5.29144254 C14.9374052,5.5535568 16,6.76972673 16,8.23419071 Z M9.21901869,12.2388524 C9.40998411,12.047887 9.71960024,12.047887 9.91056566,12.2388524 C10.1015311,12.4298179 10.1015311,12.739434 9.91056566,12.9303994 L8,14.8409651 L6.08943434,12.9303994 C5.89846891,12.739434 5.89846891,12.4298179 6.08943434,12.2388524 C6.28039976,12.047887 6.59001589,12.047887 6.78098131,12.2388524 L8,13.4578711 L9.21901869,12.2388524 Z M7.51100244,7.89024939 C7.51100244,7.6201835 7.72993411,7.40125183 8,7.40125183 C8.27006589,7.40125183 8.48899756,7.6201835 8.48899756,7.89024939 L8.48899756,14.0455159 C8.48899756,14.3155818 8.27006589,14.5345134 8,14.5345134 C7.72993411,14.5345134 7.51100244,14.3155818 7.51100244,14.0455159 L7.51100244,7.89024939 Z" id="path-1"></path>
    </defs>
    <g id="Icons/Set/download" stroke="none" stroke-width="1" fill="none" fill-rule="evenodd">
        <mask id="mask-2" fill="white">
            <use xlink:href="#path-1"></use>
        </mask>
        <use fill="#000000" fill-rule="nonzero" xlink:href="#path-1"></use>
    </g>
</svg>