<?xml version="1.0" encoding="UTF-8"?>
<svg width="16px" height="16px" viewBox="0 0 16 16" version="1.1" xmlns="http://www.w3.org/2000/svg" xmlns:xlink="http://www.w3.org/1999/xlink">
    <!-- Generator: Sketch 52.2 (67145) - http://www.bohemiancoding.com/sketch -->
    <title>factory</title>
    <desc>Created with Sketch.</desc>
    <defs>
        <path d="M11.5707621,9.75783159 L13.3374806,9.75783159 L13.3374806,11.5547656 L11.5707621,11.5547656 L11.5707621,9.75783159 Z M8.90824261,9.75783159 L10.6749611,9.75783159 L10.6749611,11.5547656 L8.90824261,11.5547656 L8.90824261,9.75783159 Z M6.22083981,9.75783159 L7.98755832,9.75783159 L7.98755832,11.5547656 L6.22083981,11.5547656 L6.22083981,9.75783159 Z M3.55832037,9.75783159 L5.32503888,9.75783159 L5.32503888,11.5547656 L3.55832037,11.5547656 L3.55832037,9.75783159 Z M15.1041991,15.1477449 L15.1041991,6.01466341 C13.0154711,6.7150929 10.9491436,7.48062988 8.90824261,8.3101533 L8.90824261,5.99066874 C6.80876714,6.68318165 4.73390982,7.44821118 2.6874028,8.28438125 L2.6874028,0.84958898 L0.870917574,0.84958898 L0.870917574,15.1486336 L15.1041991,15.1486336 L15.1041991,15.1477449 Z M0,15.9964452 L0,0 L3.55832037,0 L3.55832037,7.01266385 C5.3748056,6.28926905 7.09175739,5.64052433 9.10730949,4.9917796 L9.75427683,5.46456343 L9.75427683,7.03754721 C11.602319,6.31422393 13.4692278,5.6400624 15.3530327,5.01577427 L16,5.49122417 L16,15.9964452 L0,15.9964452 Z" id="path-1"></path>
    </defs>
    <g id="factory" stroke="none" stroke-width="1" fill="none" fill-rule="evenodd">
        <g id="🎨-color">
            <mask id="mask-2" fill="white">
                <use xlink:href="#path-1"></use>
            </mask>
            <use id="Mask" fill="#000000" fill-rule="nonzero" xlink:href="#path-1"></use>
        </g>
    </g>
</svg>