<svg xmlns="http://www.w3.org/2000/svg" xmlns:xlink="http://www.w3.org/1999/xlink" width="16" height="16" viewBox="0 0 16 16">
  <defs>
    <path id="include-a" d="M14,0.67 L11.534,3.127 L7.471,7.12 C8.62,6.925 9.349,6.757 10.637,6.45 L11.338,7.148 C9.433,7.568 8.088,7.818 6.518,7.986 L5.986,7.456 C6.154,5.892 6.406,4.551 6.826,2.653 L7.527,3.351 C7.191,4.607 7.051,5.361 6.827,6.506 L10.862,2.457 L13.328,-4.88498131e-15 L14,0.67 Z M-2.66453526e-15,14 L-2.66453526e-15,0.01 L7.986,0.01 L7.986,0.96 L0.981,0.96 L0.981,13.05 L13,13.05 L13,5.987 L13.981,5.987 L13.981,14 L-2.66453526e-15,14 Z"/>
  </defs>
  <use transform="translate(0 2)" xlink:href="#include-a"/>
</svg>
