<?xml version="1.0" encoding="UTF-8"?>
<svg width="14px" height="14px" viewBox="0 0 14 14" version="1.1" xmlns="http://www.w3.org/2000/svg" xmlns:xlink="http://www.w3.org/1999/xlink">
    <!-- Generator: Sketch 50.2 (55047) - http://www.bohemiancoding.com/sketch -->
    <title>info</title>
    <desc>Created with Sketch.</desc>
    <defs>
        <path d="M7.41122222,4.29311111 C7.41122222,3.92211111 7.65077778,3.68255556 8,3.68255556 C8.371,3.68255556 8.58877778,3.90033333 8.58877778,4.29311111 C8.58877778,4.68511111 8.371,4.90366667 8,4.90366667 C7.65077778,4.90366667 7.41122222,4.66333333 7.41122222,4.29311111 Z M6.21188889,6.42888889 L6.21188889,5.68766667 L8.39277778,5.68766667 L8.39277778,9.56877778 L9.74455556,9.56877778 L9.74455556,10.3107778 L6.21188889,10.3107778 L6.21188889,9.56955556 L7.629,9.56955556 L7.629,6.42888889 L6.21188889,6.42888889 Z M8.02177778,14.2377778 C8.371,13.7578889 8.63233333,13.278 8.91622222,12.6674444 L13.4296667,12.6674444 C13.9531111,12.6674444 14.237,12.3843333 14.237,11.9044444 L14.237,2.54777778 C14.237,2.04611111 13.9531111,1.784 13.4514444,1.784 L2.54855556,1.784 C2.08966667,1.784 1.78477778,2.06788889 1.78477778,2.526 L1.78477778,11.9028889 C1.78477778,12.3602222 2.09044444,12.6658889 2.54855556,12.6658889 L7.12811111,12.6658889 C7.41122222,13.2764444 7.67255556,13.7563333 8.02177778,14.2362222 L8.02177778,14.2377778 Z M9.39533333,13.4522222 C9.09044444,14.02 8.71944444,14.5644444 8.371,15.0007778 L7.67255556,15.0007778 C7.28647477,14.5158221 6.94371449,13.997908 6.64822222,13.453 L2.54777778,13.453 C1.61055556,13.4522222 1,12.8401111 1,11.9028889 L1,2.52677778 C1,1.61055556 1.63233333,1 2.54777778,1 L13.4522222,1 C14.4757778,1 15,1.52344444 15,2.54777778 L15,11.9044444 C15,12.8852222 14.4112222,13.4522222 13.4296667,13.4522222 L9.39533333,13.4522222 Z" id="path-1"></path>
    </defs>
    <g id="SHARCK---Icons" stroke="none" stroke-width="1" fill="none" fill-rule="evenodd">
        <g id="Icons/Set/info" transform="translate(-1.000000, -1.000000)">
            <mask id="mask-2" fill="white">
                <use xlink:href="#path-1"></use>
            </mask>
            <g id="info" fill-rule="nonzero"></g>
        </g>
    </g>
</svg>