<?xml version="1.0" encoding="UTF-8"?>
<svg width="16px" height="16px" viewBox="0 0 16 16" version="1.1" xmlns="http://www.w3.org/2000/svg" xmlns:xlink="http://www.w3.org/1999/xlink">
    <!-- Generator: Sketch 51.3 (57544) - http://www.bohemiancoding.com/sketch -->
    <title>Icons/Set/keys2</title>
    <desc>Created with Sketch.</desc>
    <defs></defs>
    <g id="Icons/Set/keys2" stroke="none" stroke-width="1" fill="none" fill-rule="evenodd">
        <g id="if_key-password-main-keys-privilege_3643767" transform="translate(3.000000, 0.000000)" fill="#101820" fill-rule="nonzero">
            <path d="M5.16129032,16 C5.04961537,16 4.94095286,15.9637792 4.8516129,15.8967742 L2.78709677,14.3483871 C2.65713247,14.2509139 2.58064516,14.0979393 2.58064516,13.9354839 L2.58064516,9.01677419 C0.879365787,7.8800591 0.122205744,5.76402686 0.716136217,3.80603827 C1.31006669,1.84804968 3.11520315,0.509256891 5.16129032,0.509256891 C7.20737749,0.509256891 9.01251396,1.84804968 9.60644443,3.80603827 C10.2003749,5.76402686 9.44321486,7.8800591 7.74193548,9.01677419 L7.74193548,9.80645161 C7.74272865,9.94364025 7.68887046,10.0755 7.59225806,10.1729032 L6.92129032,10.8387097 L7.59225806,11.5045161 C7.68996782,11.6014279 7.74492817,11.7333484 7.74492817,11.8709677 C7.74492817,12.0085871 7.68996782,12.1405076 7.59225806,12.2374194 L6.92129032,12.9032258 L7.59225806,13.5690323 C7.69826842,13.6751077 7.75289965,13.8220469 7.74193548,13.9716129 C7.73114392,14.1212392 7.65578635,14.2587668 7.53548387,14.3483871 L5.47096774,15.8967742 C5.38162778,15.9637792 5.27296527,16 5.16129032,16 Z M3.61290323,13.6774194 L5.16129032,14.8387097 L6.44129032,13.8787097 L5.82709677,13.2696774 C5.72938702,13.1727656 5.67442667,13.0408452 5.67442667,12.9032258 C5.67442667,12.7656064 5.72938702,12.633686 5.82709677,12.5367742 L6.49806452,11.8709677 L5.82709677,11.2051613 C5.72938702,11.1082495 5.67442667,10.9763291 5.67442667,10.8387097 C5.67442667,10.7010903 5.72938702,10.5691699 5.82709677,10.4722581 L6.70967742,9.59483871 L6.70967742,8.73290323 C6.71078372,8.5496201 6.80900927,8.38067215 6.96774194,8.28903226 C8.38388444,7.471422 9.07431307,5.80457985 8.65108686,4.22507812 C8.22786064,2.64557639 6.79651084,1.54726306 5.16129032,1.54726306 C3.52606981,1.54726306 2.09472,2.64557639 1.67149379,4.22507812 C1.24826758,5.80457985 1.9386962,7.471422 3.35483871,8.28903226 C3.51357137,8.38067215 3.61179692,8.5496201 3.61290323,8.73290323 L3.61290323,13.6774194 Z M5.16129032,5.16129032 C4.59118994,5.16129032 4.12903226,4.69913264 4.12903226,4.12903226 C4.12903226,3.55893187 4.59118994,3.09677419 5.16129032,3.09677419 C5.73139071,3.09677419 6.19354839,3.55893187 6.19354839,4.12903226 C6.19354839,4.40280412 6.08479294,4.665363 5.891207,4.85894894 C5.69762106,5.05253487 5.43506218,5.16129032 5.16129032,5.16129032 Z" id="Combined-Shape"></path>
        </g>
    </g>
</svg>