<?xml version="1.0" encoding="UTF-8"?>
<svg width="16px" height="16px" viewBox="0 0 16 16" version="1.1" xmlns="http://www.w3.org/2000/svg" xmlns:xlink="http://www.w3.org/1999/xlink">
    <!-- Generator: Sketch 50.2 (55047) - http://www.bohemiancoding.com/sketch -->
    <title>Icons/Set/links</title>
    <desc>Created with Sketch.</desc>
    <defs>
        <path d="M11.004,8.252 C11.004,7.86 10.92,7.58 10.752,7.356 L13.547,4.556 C13.827,4.276 13.967,3.912 13.967,3.492 C13.967,2.68 13.295,1.98 12.485,1.98 C12.0942688,1.98494333 11.721826,2.1463112 11.451,2.428 L7.427,6.46 C7.036,6.852 6.812,7.272 6.812,7.608 C6.812,7.944 6.98,8.28 7.372,8.672 L7.651,8.952 L6.952,9.652 L6.672,9.372 C6.086,8.784 5.806,8.196 5.806,7.58 C5.806,6.908 6.058,6.376 6.673,5.76 L10.697,1.728 C11.1692349,1.2523333 11.8148105,0.989481521 12.485,1 C13.855,1 15,2.176 15,3.548 C15,4.164 14.749,4.752 14.246,5.256 L11.004,8.504 L11.004,8.252 Z M4.968,7.748 C4.968,8.028 5.052,8.336 5.192,8.672 L2.425,11.444 C2.145,11.724 2.006,12.088 2.006,12.508 C2.006,13.32 2.676,13.992 3.487,13.992 C3.878,13.992 4.242,13.852 4.521,13.572 L8.685,9.4 C8.936,9.148 9.075,8.756 9.075,8.364 C9.075,7.972 8.936,7.636 8.657,7.356 L8.293,6.992 L8.992,6.292 L9.355,6.656 C9.858,7.16 10.138,7.776 10.138,8.336 C10.138,8.98 9.914,9.568 9.523,9.988 L5.248,14.272 C4.78348022,14.7426435 4.14825367,15.0052471 3.487,15 C2.117,15 1,13.88 1,12.48 C1,11.808 1.251,11.192 1.699,10.744 L4.969,7.44 L4.969,7.748 L4.968,7.748 Z" id="path-1"></path>
    </defs>
    <g id="Icons/Set/links" stroke="none" stroke-width="1" fill="none" fill-rule="evenodd">
        <mask id="mask-2" fill="white">
            <use xlink:href="#path-1"></use>
        </mask>
        <use id="links" fill="#000000" fill-rule="nonzero" xlink:href="#path-1"></use>
    </g>
</svg>