<?xml version="1.0" encoding="UTF-8"?>
<svg width="13px" height="16px" viewBox="0 0 13 16" version="1.1" xmlns="http://www.w3.org/2000/svg" xmlns:xlink="http://www.w3.org/1999/xlink">
    <!-- Generator: Sketch 50.2 (55047) - http://www.bohemiancoding.com/sketch -->
    <title>list</title>
    <desc>Created with Sketch.</desc>
    <defs>
        <path d="M13.3448889,3.58844444 C12.5955556,2.74133333 11.7706667,1.89422222 10.8711111,1.14666667 L10.8711111,3.58844444 L13.3448889,3.58844444 Z M4.67377778,12.5111111 L11.7706667,12.5111111 L11.7706667,13.3582222 L4.67377778,13.3582222 L4.67377778,12.5111111 Z M4.67377778,9.84444444 L11.7706667,9.84444444 L11.7706667,10.6915556 L4.67377778,10.6915556 L4.67377778,9.84444444 Z M4.67377778,7.15288889 L11.7706667,7.15288889 L11.7706667,8 L4.67377778,8 L4.67377778,7.15288889 Z M13.5697778,15.1528889 L13.5697778,4.41155556 L10.0213333,4.41155556 L10.0213333,0.847111111 L2.87466667,0.847111111 L2.87466667,15.1528889 L13.5697778,15.1528889 Z M14.4444444,3.56355556 L14.4444444,16 L2,16 L2,0 L10.896,0 C12.2453333,1.12177778 13.4702222,2.34311111 14.4444444,3.56444444 L14.4444444,3.56355556 Z" id="path-1"></path>
    </defs>
    <g id="SHARCK---Icons" stroke="none" stroke-width="1" fill="none" fill-rule="evenodd">
        <g id="Icons/Set/list" transform="translate(-2.000000, 0.000000)">
            <mask id="mask-2" fill="white">
                <use xlink:href="#path-1"></use>
            </mask>
            <g id="list" fill-rule="nonzero"></g>
        </g>
    </g>
</svg>