<?xml version="1.0" encoding="UTF-8"?>
<svg width="16px" height="16px" viewBox="0 0 16 16" version="1.1" xmlns="http://www.w3.org/2000/svg" xmlns:xlink="http://www.w3.org/1999/xlink">
    <!-- Generator: Sketch 50.2 (55047) - http://www.bohemiancoding.com/sketch -->
    <title>Icons/Set/location</title>
    <desc>Created with Sketch.</desc>
    <defs>
        <path d="M8.75314366,14.2279113 C9.31626276,13.4897248 9.879542,12.683214 10.4046076,11.8361783 C11.2936378,10.4019946 11.9788122,9.00285702 12.3801901,7.70237814 C12.6370592,6.87011311 12.7709923,6.09680957 12.7709923,5.39440202 C12.7709923,2.97715831 10.8115555,1.0178117 8.39440202,1.0178117 C5.97704058,1.0178117 4.0178117,2.97704058 4.0178117,5.39440202 C4.0178117,6.02411552 4.12010848,6.70381214 4.31754638,7.42625972 C4.69966165,8.82446276 5.42101723,10.332348 6.38338677,11.8744489 C6.90806381,12.7151914 7.47091884,13.5125844 8.03358973,14.2400553 C8.15901042,14.4022104 8.27862422,14.553326 8.39118918,14.6925556 C8.50503828,14.5496145 8.62611867,14.394427 8.75314366,14.2279113 Z M13.788804,5.39440202 C13.788804,6.20699556 13.6377779,7.07899076 13.3527342,8.00254275 C12.9223888,9.39687707 12.2008084,10.8703564 11.2696926,12.3724323 C10.7260559,13.2494271 10.144297,14.0823973 9.56237793,14.8452285 C9.35848567,15.1125086 9.16894002,15.3521663 8.99849277,15.5608814 C8.89535399,15.6871763 8.82087586,15.7758026 8.7798146,15.8234227 C8.57805212,16.0574134 8.21603244,16.0590987 8.0121002,15.8269966 C7.97087541,15.7800773 7.8962343,15.6928155 7.79293288,15.5683934 C7.62230011,15.3628735 7.43257079,15.126609 7.22849675,14.8627639 C6.64612948,14.1098277 6.06394634,13.2850528 5.5199211,12.4133067 C4.50946512,10.794152 3.74757659,9.20153877 3.33573892,7.69457814 C3.11565336,6.88926017 3,6.12081767 3,5.39440202 C3,2.41491869 5.41491869,0 8.39440202,0 C11.3736669,0 13.788804,2.41502593 13.788804,5.39440202 Z M8.39440202,8.18320608 C9.75473697,8.18320608 10.8575063,7.08043672 10.8575063,5.72010176 C10.8575063,4.35976681 9.75473697,3.25699745 8.39440202,3.25699745 C7.03406707,3.25699745 5.9312977,4.35976681 5.9312977,5.72010176 C5.9312977,7.08043672 7.03406707,8.18320608 8.39440202,8.18320608 Z M8.39440202,7.16539438 C7.59618895,7.16539438 6.9491094,6.51831483 6.9491094,5.72010176 C6.9491094,4.92188869 7.59618895,4.27480915 8.39440202,4.27480915 C9.19261509,4.27480915 9.83969464,4.92188869 9.83969464,5.72010176 C9.83969464,6.51831483 9.19261509,7.16539438 8.39440202,7.16539438 Z" id="path-1"></path>
    </defs>
    <g id="Icons/Set/location" stroke="none" stroke-width="1" fill="none" fill-rule="evenodd">
        <mask id="mask-2" fill="white">
            <use xlink:href="#path-1"></use>
        </mask>
        <use id="Mask" fill="#000000" fill-rule="nonzero" xlink:href="#path-1"></use>
    </g>
</svg>