<?xml version="1.0" encoding="UTF-8"?>
<svg width="16px" height="16px" viewBox="0 0 16 16" version="1.1" xmlns="http://www.w3.org/2000/svg" xmlns:xlink="http://www.w3.org/1999/xlink">
    <!-- Generator: Sketch 51.1 (57501) - http://www.bohemiancoding.com/sketch -->
    <title>Icons/Set/lock</title>
    <desc>Created with Sketch.</desc>
    <defs>
        <path d="M8.43001235,10.5467408 L8.8,12.7666667 L7.2,12.7666667 L7.56998765,10.5467408 C7.19118755,10.3849943 6.93333333,10.0126668 6.93333333,9.56666667 C6.93333333,8.96666667 7.4,8.5 8,8.5 C8.6,8.5 9.06666667,9 9.06666667,9.56666667 C9.06666667,10.0126668 8.80881245,10.3849943 8.43001235,10.5467408 Z M11.7666667,6.36666667 L11.7666667,4.76666667 C11.7666667,2.7 10.0666667,1 8,1 C5.93333333,1 4.23333333,2.7 4.23333333,4.76666667 L4.23333333,6.36666667 L11.7666667,6.36666667 Z M3.23333333,6.45013988 L3.23333333,4.76666667 C3.23333333,2.13333333 5.36666667,-1.77635684e-15 8,-1.77635684e-15 C10.6333333,-1.77635684e-15 12.7666667,2.13333333 12.7666667,4.76666667 L12.7666667,6.45013988 C13.3977297,6.66584692 13.8666667,7.27362616 13.8666667,7.96666667 L13.8666667,14.3666667 C13.8666667,15.2666667 13.1333333,15.9666667 12.2666667,15.9666667 L3.73333333,15.9666667 C2.86666667,15.9666667 2.13333333,15.2333333 2.13333333,14.3666667 L2.13333333,7.96666667 C2.13333333,7.27362616 2.60227031,6.66584692 3.23333333,6.45013988 Z M3.73333333,7.43333333 C3.43333333,7.43333333 3.2,7.66666667 3.2,7.96666667 L3.2,14.3666667 C3.2,14.6666667 3.43333333,14.9 3.73333333,14.9 L12.2666667,14.9 C12.5666667,14.9 12.8,14.6666667 12.8,14.3666667 L12.8,7.96666667 C12.8,7.66666667 12.5666667,7.43333333 12.2666667,7.43333333 L3.73333333,7.43333333 Z" id="path-1"></path>
    </defs>
    <g id="Icons/Set/lock" stroke="none" stroke-width="1" fill="none" fill-rule="evenodd">
        <mask id="mask-2" fill="white">
            <use xlink:href="#path-1"></use>
        </mask>
        <use id="Mask" fill="#000000" fill-rule="nonzero" xlink:href="#path-1"></use>
    </g>
</svg>