<?xml version="1.0" encoding="UTF-8"?>
<svg width="297px" height="33px" viewBox="0 0 297 33" version="1.1" xmlns="http://www.w3.org/2000/svg" xmlns:xlink="http://www.w3.org/1999/xlink">
    <!-- Generator: Sketch 49.3 (51167) - http://www.bohemiancoding.com/sketch -->
    <title>Artboard</title>
    <desc>Created with Sketch.</desc>
    <defs></defs>
    <g id="Artboard" stroke="none" stroke-width="1" fill="none" fill-rule="evenodd">
        <g id="Group">
            <path d="M7.72,24.92 L12.32,24.92 C13.9466748,24.92 15.3333276,24.7400018 16.48,24.38 C17.6266724,24.0199982 18.566663,23.4600038 19.3,22.7 C20.033337,21.9399962 20.5733316,20.9733392 20.92,19.8 C21.2666684,18.6266608 21.44,17.2133416 21.44,15.56 C21.44,13.9066584 21.2666684,12.4933392 20.92,11.32 C20.5733316,10.1466608 20.033337,9.1800038 19.3,8.42 C18.566663,7.6599962 17.6266724,7.1000018 16.48,6.74 C15.3333276,6.3799982 13.9466748,6.2 12.32,6.2 L7.72,6.2 L7.72,24.92 Z M12.72,2.12 C15.2266792,2.12 17.3733244,2.3733308 19.16,2.88 C20.9466756,3.3866692 22.4133276,4.1866612 23.56,5.28 C24.7066724,6.3733388 25.546664,7.7666582 26.08,9.46 C26.613336,11.1533418 26.88,13.1866548 26.88,15.56 C26.88,17.9333452 26.613336,19.9666582 26.08,21.66 C25.546664,23.3533418 24.7066724,24.7466612 23.56,25.84 C22.4133276,26.9333388 20.9466756,27.7333308 19.16,28.24 C17.3733244,28.7466692 15.2266792,29 12.72,29 L2.4,29 L2.4,5.88 C2.4,5.5866652 2.366667,5.3933338 2.3,5.3 C2.233333,5.2066662 2.066668,5.1066672 1.8,5 L0.36,4.44 L0.8,2.12 L12.72,2.12 Z M31.84,5.88 C31.84,5.5866652 31.806667,5.3933338 31.74,5.3 C31.673333,5.2066662 31.506668,5.1066672 31.24,5 L29.8,4.44 L30.24,2.12 L36.8,2.12 C37.0400012,2.12 37.16,2.253332 37.16,2.52 L37.16,29 L31.84,29 L31.84,5.88 Z M48.64,29 L43.32,29 L43.32,5.88 C43.32,5.5866652 43.286667,5.3933338 43.22,5.3 C43.153333,5.2066662 42.986668,5.1066672 42.72,5 L41.28,4.44 L41.72,2.12 L55.16,2.12 C58.626684,2.12 61.1199924,2.7799934 62.64,4.1 C64.1600076,5.4200066 64.92,7.546652 64.92,10.48 C64.92,12.8000116 64.4466714,14.5866604 63.5,15.84 C62.5533286,17.0933396 61.08001,17.9066648 59.08,18.28 L65.64,29 L59.76,29 L53.8,18.88 L48.64,18.88 L48.64,29 Z M48.64,14.88 L54.56,14.88 C56.4000092,14.88 57.7133294,14.54667 58.5,13.88 C59.2866706,13.21333 59.68,12.080008 59.68,10.48 C59.68,8.9066588 59.2866706,7.78667 58.5,7.12 C57.7133294,6.45333 56.4000092,6.12 54.56,6.12 L48.64,6.12 L48.64,14.88 Z M85.28,29.24 C84.1866612,29.4000008 83.0266728,29.48 81.8,29.48 C79.4266548,29.48 77.3866752,29.213336 75.68,28.68 C73.9733248,28.146664 72.5800054,27.3200056 71.5,26.2 C70.4199946,25.0799944 69.6266692,23.6400088 69.12,21.88 C68.6133308,20.1199912 68.36,18.0133456 68.36,15.56 C68.36,13.1066544 68.6133308,11.0000088 69.12,9.24 C69.6266692,7.4799912 70.4199946,6.0400056 71.5,4.92 C72.5800054,3.7999944 73.9733248,2.973336 75.68,2.44 C77.3866752,1.906664 79.4266548,1.64 81.8,1.64 C84.1733452,1.64 86.2133248,1.906664 87.92,2.44 C89.6266752,2.973336 91.0266612,3.7999944 92.12,4.92 C93.2133388,6.0400056 94.0133308,7.4799912 94.52,9.24 C95.0266692,11.0000088 95.28,13.1066544 95.28,15.56 C95.28,18.8133496 94.8333378,21.4533232 93.94,23.48 C93.0466622,25.5066768 91.6266764,27.0133284 89.68,28 L93.24,33.72 L88.04,33.72 L85.28,29.24 Z M73.56,15.56 C73.56,17.3200088 73.7133318,18.8266604 74.02,20.08 C74.3266682,21.3333396 74.81333,22.359996 75.48,23.16 C76.14667,23.960004 76.9999948,24.5466648 78.04,24.92 C79.0800052,25.2933352 80.333326,25.48 81.8,25.48 L82.34,25.48 C82.5133342,25.48 82.6933324,25.4666668 82.88,25.44 L80.36,21.4 L85.56,21.4 L87.2,24.04 C88.1866716,23.2666628 88.9066644,22.1933402 89.36,20.82 C89.8133356,19.4466598 90.04,17.693344 90.04,15.56 C90.04,12.1199828 89.3933398,9.6400076 88.1,8.12 C86.8066602,6.5999924 84.7066812,5.84 81.8,5.84 C80.333326,5.84 79.0800052,6.0266648 78.04,6.4 C76.9999948,6.7733352 76.14667,7.3466628 75.48,8.12 C74.81333,8.8933372 74.3266682,9.8999938 74.02,11.14 C73.7133318,12.3800062 73.56,13.8533248 73.56,15.56 Z" id="DIRQ" fill="#FFCC33"></path>
            <path d="M131.72,28.4 C130.119992,28.7466684 128.480008,29.0133324 126.8,29.2 C125.119992,29.3866676 123.373342,29.48 121.56,29.48 C119.133321,29.48 117.053342,29.213336 115.32,28.68 C113.586658,28.146664 112.160006,27.3200056 111.04,26.2 C109.919994,25.0799944 109.100003,23.6400088 108.58,21.88 C108.059997,20.1199912 107.8,18.0133456 107.8,15.56 C107.8,13.1066544 108.066664,11.0000088 108.6,9.24 C109.133336,7.4799912 109.986661,6.0400056 111.16,4.92 C112.333339,3.7999944 113.859991,2.973336 115.74,2.44 C117.620009,1.906664 119.906653,1.64 122.6,1.64 C124.546676,1.64 126.273326,1.773332 127.78,2.04 C129.286674,2.306668 130.37333,2.5466656 131.04,2.76 L130.32,6.8 C129.306662,6.5066652 128.186673,6.2533344 126.96,6.04 C125.733327,5.8266656 124.466673,5.72 123.16,5.72 C121.426658,5.72 119.926673,5.8799984 118.66,6.2 C117.393327,6.5200016 116.340004,7.0599962 115.5,7.82 C114.659996,8.5800038 114.033335,9.593327 113.62,10.86 C113.206665,12.126673 113,13.693324 113,15.56 C113,17.293342 113.173332,18.7799938 113.52,20.02 C113.866668,21.2600062 114.41333,22.279996 115.16,23.08 C115.90667,23.880004 116.859994,24.4666648 118.02,24.84 C119.180006,25.2133352 120.573325,25.4 122.2,25.4 C122.973337,25.4 123.753329,25.3600004 124.54,25.28 C125.326671,25.1999996 126.079996,25.093334 126.8,24.96 L126.8,17.96 L120.56,17.96 L120.56,14.24 L131.72,14.24 L131.72,28.4 Z M155.04,21.36 C155.04,24.2133476 154.306674,26.2799936 152.84,27.56 C151.373326,28.8400064 148.97335,29.48 145.64,29.48 C143.986658,29.48 142.566673,29.3266682 141.38,29.02 C140.193327,28.7133318 139.220004,28.22667 138.46,27.56 C137.699996,26.89333 137.140002,26.0533384 136.78,25.04 C136.419998,24.0266616 136.24,22.8000072 136.24,21.36 L136.24,13.2 C136.24,12.9066652 136.213334,12.7133338 136.16,12.62 C136.106666,12.5266662 135.946668,12.4266672 135.68,12.32 L134.28,11.76 L134.76,9.4 L141,9.4 C141.240001,9.4 141.36,9.533332 141.36,9.8 L141.36,20.96 C141.36,22.5866748 141.69333,23.7466632 142.36,24.44 C143.02667,25.1333368 144.119992,25.48 145.64,25.48 C147.160008,25.48 148.25333,25.1333368 148.92,24.44 C149.58667,23.7466632 149.92,22.5866748 149.92,20.96 L149.92,9.4 L155.04,9.4 L155.04,21.36 Z M159.6,3.8 C159.6,2.7866616 159.839998,2.046669 160.32,1.58 C160.800002,1.113331 161.573328,0.88 162.64,0.88 C163.733339,0.88 164.513331,1.113331 164.98,1.58 C165.446669,2.046669 165.68,2.7866616 165.68,3.8 C165.68,4.8400052 165.446669,5.593331 164.98,6.06 C164.513331,6.526669 163.733339,6.76 162.64,6.76 C161.573328,6.76 160.800002,6.526669 160.32,6.06 C159.839998,5.593331 159.6,4.8400052 159.6,3.8 Z M160.08,13.2 C160.08,12.9066652 160.053334,12.7133338 160,12.62 C159.946666,12.5266662 159.786668,12.4266672 159.52,12.32 L158.12,11.76 L158.6,9.4 L164.84,9.4 C165.080001,9.4 165.2,9.533332 165.2,9.8 L165.2,29 L160.08,29 L160.08,13.2 Z M184.52,26.92 C183.799996,27.8000044 182.860006,28.4466646 181.7,28.86 C180.539994,29.2733354 179.200008,29.48 177.68,29.48 C176.159992,29.48 174.853339,29.2866686 173.76,28.9 C172.666661,28.5133314 171.773337,27.9066708 171.08,27.08 C170.386663,26.2533292 169.873335,25.1866732 169.54,23.88 C169.206665,22.5733268 169.04,21.0133424 169.04,19.2 C169.04,15.5733152 169.719993,12.9533414 171.08,11.34 C172.440007,9.7266586 174.639985,8.92 177.68,8.92 C180.293346,8.92 182.253327,9.5599936 183.56,10.84 L183.56,0.84 L188.68,0.84 L188.68,25.2 C188.68,25.4933348 188.706666,25.6866662 188.76,25.78 C188.813334,25.8733338 188.973332,25.9733328 189.24,26.08 L190.64,26.64 L190.16,29 L185.8,29 C185.399998,29 185.146667,28.9466672 185.04,28.84 C184.933333,28.7333328 184.84,28.5066684 184.76,28.16 L184.52,26.92 Z M179,12.92 C177.293325,12.92 176.073337,13.4066618 175.34,14.38 C174.606663,15.3533382 174.24,16.9599888 174.24,19.2 C174.24,21.4400112 174.606663,23.0466618 175.34,24.02 C176.073337,24.9933382 177.293325,25.48 179,25.48 C180.173339,25.48 181.11333,25.3266682 181.82,25.02 C182.52667,24.7133318 183.106664,24.4000016 183.56,24.08 L183.56,17.76 C183.56,16.026658 183.20667,14.7866704 182.5,14.04 C181.79333,13.2933296 180.626675,12.92 179,12.92 Z M192.76,19.2 C192.76,17.3866576 192.946665,15.8266732 193.32,14.52 C193.693335,13.2133268 194.273329,12.1466708 195.06,11.32 C195.846671,10.4933292 196.859994,9.8866686 198.1,9.5 C199.340006,9.1133314 200.826658,8.92 202.56,8.92 C205.760016,8.92 208.06666,9.6999922 209.48,11.26 C210.89334,12.8200078 211.6,15.3599824 211.6,18.88 C211.6,19.2266684 211.593333,19.5399986 211.58,19.82 C211.566667,20.1000014 211.546667,20.3866652 211.52,20.68 L197.76,20.68 C197.866667,22.4400088 198.419995,23.6999962 199.42,24.46 C200.420005,25.2200038 201.999989,25.6 204.16,25.6 C206.346678,25.6 208.546656,25.2800032 210.76,24.64 L210.76,28.56 C209.693328,28.8800016 208.586672,29.1133326 207.44,29.26 C206.293328,29.4066674 205.066673,29.48 203.76,29.48 C201.813324,29.48 200.146674,29.2866686 198.76,28.9 C197.373326,28.5133314 196.233338,27.9000042 195.34,27.06 C194.446662,26.2199958 193.793335,25.1533398 193.38,23.86 C192.966665,22.5666602 192.76,21.0133424 192.76,19.2 Z M202.56,12.52 C200.959992,12.52 199.78667,12.8999962 199.04,13.66 C198.29333,14.4200038 197.866667,15.666658 197.76,17.4 L206.68,17.4 C206.626666,15.6399912 206.28667,14.3866704 205.66,13.64 C205.03333,12.8933296 204.000007,12.52 202.56,12.52 Z M220.68,25.2 C220.68,25.4933348 220.706666,25.6866662 220.76,25.78 C220.813334,25.8733338 220.973332,25.9733328 221.24,26.08 L222.64,26.64 L222.16,29 L215.92,29 C215.679999,29 215.56,28.866668 215.56,28.6 L215.56,4.64 C215.56,4.3466652 215.533334,4.1533338 215.48,4.06 C215.426666,3.9666662 215.266668,3.8666672 215,3.76 L213.6,3.2 L214.08,0.84 L220.32,0.84 C220.560001,0.84 220.68,0.973332 220.68,1.24 L220.68,25.2 Z M225.8,3.8 C225.8,2.7866616 226.039998,2.046669 226.52,1.58 C227.000002,1.113331 227.773328,0.88 228.84,0.88 C229.933339,0.88 230.713331,1.113331 231.18,1.58 C231.646669,2.046669 231.88,2.7866616 231.88,3.8 C231.88,4.8400052 231.646669,5.593331 231.18,6.06 C230.713331,6.526669 229.933339,6.76 228.84,6.76 C227.773328,6.76 227.000002,6.526669 226.52,6.06 C226.039998,5.593331 225.8,4.8400052 225.8,3.8 Z M226.28,13.2 C226.28,12.9066652 226.253334,12.7133338 226.2,12.62 C226.146666,12.5266662 225.986668,12.4266672 225.72,12.32 L224.32,11.76 L224.8,9.4 L231.04,9.4 C231.280001,9.4 231.4,9.533332 231.4,9.8 L231.4,29 L226.28,29 L226.28,13.2 Z M247.56,8.92 C250.14668,8.92 252.08666,9.5399938 253.38,10.78 C254.67334,12.0200062 255.32,14.0666524 255.32,16.92 L255.32,25.2 C255.32,25.4933348 255.346666,25.6866662 255.4,25.78 C255.453334,25.8733338 255.613332,25.9733328 255.88,26.08 L257.28,26.64 L256.8,29 L250.56,29 C250.319999,29 250.2,28.866668 250.2,28.6 L250.2,17.12 C250.2,15.653326 249.900003,14.6000032 249.3,13.96 C248.699997,13.3199968 247.69334,13 246.28,13 C245.266662,13 244.326671,13.133332 243.46,13.4 C242.593329,13.666668 241.986668,13.9066656 241.64,14.12 L241.64,29 L236.52,29 L236.52,13.2 C236.52,12.9066652 236.493334,12.7133338 236.44,12.62 C236.386666,12.5266662 236.226668,12.4266672 235.96,12.32 L234.56,11.76 L235.04,9.4 L241.08,9.4 C241.320001,9.4 241.44,9.533332 241.44,9.8 L241.44,10.96 C242.320004,10.2399964 243.253328,9.7200016 244.24,9.4 C245.226672,9.0799984 246.333327,8.92 247.56,8.92 Z M259.12,19.2 C259.12,17.3866576 259.306665,15.8266732 259.68,14.52 C260.053335,13.2133268 260.633329,12.1466708 261.42,11.32 C262.206671,10.4933292 263.219994,9.8866686 264.46,9.5 C265.700006,9.1133314 267.186658,8.92 268.92,8.92 C272.120016,8.92 274.42666,9.6999922 275.84,11.26 C277.25334,12.8200078 277.96,15.3599824 277.96,18.88 C277.96,19.2266684 277.953333,19.5399986 277.94,19.82 C277.926667,20.1000014 277.906667,20.3866652 277.88,20.68 L264.12,20.68 C264.226667,22.4400088 264.779995,23.6999962 265.78,24.46 C266.780005,25.2200038 268.359989,25.6 270.52,25.6 C272.706678,25.6 274.906656,25.2800032 277.12,24.64 L277.12,28.56 C276.053328,28.8800016 274.946672,29.1133326 273.8,29.26 C272.653328,29.4066674 271.426673,29.48 270.12,29.48 C268.173324,29.48 266.506674,29.2866686 265.12,28.9 C263.733326,28.5133314 262.593338,27.9000042 261.7,27.06 C260.806662,26.2199958 260.153335,25.1533398 259.74,23.86 C259.326665,22.5666602 259.12,21.0133424 259.12,19.2 Z M268.92,12.52 C267.319992,12.52 266.14667,12.8999962 265.4,13.66 C264.65333,14.4200038 264.226667,15.666658 264.12,17.4 L273.04,17.4 C272.986666,15.6399912 272.64667,14.3866704 272.02,13.64 C271.39333,12.8933296 270.360007,12.52 268.92,12.52 Z M289.16,8.92 C290.41334,8.92 291.659994,9.0066658 292.9,9.18 C294.140006,9.3533342 295.213329,9.5866652 296.12,9.88 L295.36,13.68 C294.426662,13.3866652 293.473338,13.1600008 292.5,13 C291.526662,12.8399992 290.533338,12.76 289.52,12.76 C288.18666,12.76 287.22667,12.9399982 286.64,13.3 C286.05333,13.6600018 285.76,14.1866632 285.76,14.88 C285.76,15.4933364 286.033331,15.9399986 286.58,16.22 C287.126669,16.5000014 287.813329,16.7199992 288.64,16.88 C289.466671,17.0400008 290.359995,17.2066658 291.32,17.38 C292.280005,17.5533342 293.173329,17.8466646 294,18.26 C294.826671,18.6733354 295.513331,19.2666628 296.06,20.04 C296.606669,20.8133372 296.88,21.8799932 296.88,23.24 C296.88,25.4000108 296.19334,26.979995 294.82,27.98 C293.44666,28.980005 291.306681,29.48 288.4,29.48 C285.73332,29.48 283.306678,29.1600032 281.12,28.52 L281.12,24.56 C282.240006,24.9066684 283.373328,25.1733324 284.52,25.36 C285.666672,25.5466676 286.826661,25.64 288,25.64 C290.58668,25.64 291.88,24.8800076 291.88,23.36 C291.88,22.7199968 291.606669,22.2533348 291.06,21.96 C290.513331,21.6666652 289.826671,21.4333342 289,21.26 C288.173329,21.0866658 287.280005,20.9200008 286.32,20.76 C285.359995,20.5999992 284.466671,20.320002 283.64,19.92 C282.813329,19.519998 282.126669,18.9400038 281.58,18.18 C281.033331,17.4199962 280.76,16.3600068 280.76,15 C280.76,13.9066612 280.973331,12.9733372 281.4,12.2 C281.826669,11.4266628 282.41333,10.8000024 283.16,10.32 C283.90667,9.8399976 284.793328,9.4866678 285.82,9.26 C286.846672,9.0333322 287.959994,8.92 289.16,8.92 Z" id="Guidelines" fill="#000000"></path>
        </g>
    </g>
</svg>