<?xml version="1.0" encoding="UTF-8"?>
<svg width="16px" height="16px" viewBox="0 0 16 16" version="1.1" xmlns="http://www.w3.org/2000/svg" xmlns:xlink="http://www.w3.org/1999/xlink">
    <!-- Generator: Sketch 52.5 (67469) - http://www.bohemiancoding.com/sketch -->
    <title>mail-xls</title>
    <desc>Created with Sketch.</desc>
    <defs>
        <path d="M1,8 L15,8 C15.5522847,8 16,8.44771525 16,9 L16,14 C16,14.5522847 15.5522847,15 15,15 L1,15 C0.44771525,15 6.76353751e-17,14.5522847 0,14 L0,9 C-6.76353751e-17,8.44771525 0.44771525,8 1,8 Z M5.242,14 L3.709,11.445 L5.137,9.114 L4.038,9.114 L3.156,10.612 L2.309,9.114 L1.168,9.114 L2.568,11.473 L1.077,14 L2.204,14 L3.107,12.355 L4.094,14 L5.242,14 Z M7.91299998,13.132 L7.91299998,9.114 L6.85599998,9.114 L6.85599998,14 L9.88699998,14 L9.88699998,13.132 L7.91299998,13.132 Z M14.56,12.614 C14.56,12.403999 14.5273336,12.2161675 14.462,12.0505 C14.3966663,11.8848325 14.2986673,11.7390006 14.168,11.613 C14.0746662,11.5243329 13.960334,11.4415004 13.825,11.3645 C13.6896659,11.2874996 13.4820014,11.1930006 13.202,11.081 C12.8519982,10.945666 12.6256671,10.8290005 12.523,10.731 C12.4203328,10.6329995 12.369,10.516334 12.369,10.381 C12.369,10.2269992 12.4366659,10.1115004 12.572,10.0345 C12.707334,9.95749962 12.9126652,9.919 13.188,9.919 C13.3700009,9.919 13.5671656,9.93416652 13.7795,9.9645 C13.9918343,9.99483349 14.1843324,10.0379997 14.357,10.094 L14.357,9.149 C14.1656657,9.11166648 13.9731676,9.08250011 13.7795,9.0615 C13.5858323,9.0404999 13.3910009,9.03 13.195,9.03 C12.5696635,9.03 12.1065015,9.15249878 11.8055,9.3975 C11.5044984,9.64250123 11.354,10.0193308 11.354,10.528 C11.354,10.7380011 11.3878329,10.9258325 11.4555,11.0915 C11.523167,11.2571675 11.6269993,11.4053327 11.767,11.536 C11.8603338,11.6246671 11.9734993,11.706333 12.1065,11.781 C12.2395006,11.855667 12.4459986,11.9489994 12.726,12.061 C13.071335,12.2010007 13.2941661,12.3176662 13.3945,12.411 C13.4948338,12.5043338 13.545,12.6139994 13.545,12.74 C13.545,12.8893341 13.4726673,13.0024996 13.328,13.0795 C13.1833326,13.1565004 12.9710014,13.195 12.691,13.195 C12.4903323,13.195 12.2791677,13.1763335 12.0575,13.139 C11.8358322,13.1016665 11.6246676,13.0480004 11.424,12.978 L11.424,13.916 C11.6760012,13.9720003 11.9069989,14.0139999 12.117,14.042 C12.327001,14.0700001 12.529999,14.084 12.726,14.084 C13.3513364,14.084 13.8133318,13.9638345 14.112,13.7235 C14.4106681,13.4831655 14.56,13.1133358 14.56,12.614 Z M3.5570277,1 L8.05221758,3.80890639 L12.5474075,1 L3.5570277,1 Z M3,1.71319103 L3,6 L13,6 L13,1.77844935 L8.07692734,4.85472658 L8.05221758,4.81518269 L8.02750782,4.85472658 L3,1.71319103 Z M2,0 L14,0 L14,7 L2,7 L2,0 Z" id="path-1"></path>
    </defs>
    <g id="mail-xls" stroke="none" stroke-width="1" fill="none" fill-rule="evenodd">
        <g id="🎨-color" transform="translate(0.000000, 1.000000)">
            <mask id="mask-2" fill="white">
                <use xlink:href="#path-1"></use>
            </mask>
            <use id="Mask" fill="#000000" fill-rule="nonzero" xlink:href="#path-1"></use>
        </g>
    </g>
</svg>