<?xml version="1.0" encoding="UTF-8"?>
<svg width="16px" height="16px" viewBox="0 0 16 16" version="1.1" xmlns="http://www.w3.org/2000/svg" xmlns:xlink="http://www.w3.org/1999/xlink">
    <!-- Generator: Sketch 49.3 (51167) - http://www.bohemiancoding.com/sketch -->
    <title>menu</title>
    <desc>Created with Sketch.</desc>
    <defs></defs>
    <g id="menu" stroke="none" stroke-width="1" fill="none" fill-rule="evenodd">
        <g id="ico-menu" transform="translate(1.000000, 1.000000)" fill="#000000" fill-rule="nonzero">
            <path d="M0,0 L3,0 L3,3 L0,3 L0,0 Z M0,5 L3,5 L3,8 L0,8 L0,5 Z M0,10 L3,10 L3,13 L0,13 L0,10 Z M5,0 L8,0 L8,3 L5,3 L5,0 Z M5,5 L8,5 L8,8 L5,8 L5,5 Z M5,10 L8,10 L8,13 L5,13 L5,10 Z M10,0 L13,0 L13,3 L10,3 L10,0 Z M10,5 L13,5 L13,8 L10,8 L10,5 Z M10,10 L13,10 L13,13 L10,13 L10,10 Z" id="Combined-Shape"></path>
        </g>
    </g>
</svg>