<?xml version="1.0" encoding="UTF-8"?>
<svg width="16px" height="16px" viewBox="0 0 16 16" version="1.1" xmlns="http://www.w3.org/2000/svg" xmlns:xlink="http://www.w3.org/1999/xlink">
    <!-- Generator: Sketch 51.2 (57519) - http://www.bohemiancoding.com/sketch -->
    <title>Icons/Set/menu-burger</title>
    <desc>Created with Sketch.</desc>
    <defs>
        <path d="M1,5 L15,5 C15.5522847,5 16,5.44771525 16,6 C16,6.55228475 15.5522847,7 15,7 L1,7 C0.44771525,7 6.76353751e-17,6.55228475 0,6 C-6.76353751e-17,5.44771525 0.44771525,5 1,5 Z M1,0 L8.41176471,0 C8.96404946,-1.01453063e-16 9.41176471,0.44771525 9.41176471,1 C9.41176471,1.55228475 8.96404946,2 8.41176471,2 L1,2 C0.44771525,2 5.11724585e-16,1.55228475 4.4408921e-16,1 C-6.76353751e-17,0.44771525 0.44771525,1.01453063e-16 1,0 Z M1,10 L15,10 C15.5522847,10 16,10.4477153 16,11 C16,11.5522847 15.5522847,12 15,12 L1,12 C0.44771525,12 6.76353751e-17,11.5522847 0,11 C-6.76353751e-17,10.4477153 0.44771525,10 1,10 Z" id="path-1"></path>
    </defs>
    <g id="Icons/Set/menu-burger" stroke="none" stroke-width="1" fill="none" fill-rule="evenodd">
        <g id="🎨-color" transform="translate(0.000000, 2.000000)">
            <mask id="mask-2" fill="white">
                <use xlink:href="#path-1"></use>
            </mask>
            <use id="Mask" fill="#000000" fill-rule="nonzero" xlink:href="#path-1"></use>
        </g>
    </g>
</svg>