<?xml version="1.0" encoding="UTF-8"?>
<svg width="16px" height="16px" viewBox="0 0 16 16" version="1.1" xmlns="http://www.w3.org/2000/svg" xmlns:xlink="http://www.w3.org/1999/xlink">
    <!-- Generator: Sketch 50.2 (55047) - http://www.bohemiancoding.com/sketch -->
    <title>Icons/Set/pdf</title>
    <desc>Created with Sketch.</desc>
    <defs>
        <path d="M12.763,11.963 L9.98,11.963 L9.98,14.71 C10.9763618,13.8666437 11.9067432,12.9482974 12.763,11.963 Z M10.317,8.561 L9.587,8.561 L9.587,6.234 L9.08,6.234 L9.08,5.589 L9.586,5.589 L9.586,5.393 C9.586,4.72 9.896,4.383 10.486,4.383 C10.683,4.383 10.88,4.411 11.048,4.467 L11.048,5.084 C10.923229,5.03223512 10.7900305,5.00376522 10.655,5 C10.402,5 10.317,5.084 10.317,5.42 L10.317,5.589 L11.048,5.589 L11.048,6.234 L10.318,6.234 L10.317,8.561 Z M7.365,7.916 C7.535,7.916 7.703,7.86 7.9,7.692 L7.9,6.29 C7.759,6.262 7.647,6.234 7.506,6.234 C7.056,6.234 6.888,6.458 6.888,7.131 C6.888,7.72 7,7.916 7.365,7.916 Z M7.197,8.616 C6.494,8.616 6.157,8.112 6.157,7.131 C6.157,6.037 6.55,5.561 7.506,5.561 C7.646,5.561 7.759,5.589 7.9,5.617 L7.9,4.439 L8.63,4.439 L8.63,8.561 L7.956,8.561 L7.956,8.336 C7.731,8.505 7.478,8.616 7.197,8.616 Z M3.993,6.43 L4.583,6.43 C4.893,6.43 5.061,6.206 5.061,5.841 C5.061,5.421 4.921,5.252 4.583,5.252 L3.993,5.252 L3.993,6.43 Z M4.583,4.552 C5.37,4.552 5.848,5.056 5.848,5.842 C5.848,6.682 5.398,7.131 4.583,7.131 L3.993,7.131 L3.993,8.561 L3.206,8.561 L3.206,4.55 L4.583,4.552 Z M9.026,11.037 L13.017,11.037 L13.017,0.953 L0.984,0.953 L0.984,15.047 L9.024,15.047 L9.026,11.037 Z M0,16 L0,0 L14,0 L14,11.99 C12.932,13.336 11.554,14.71 10.008,16 L0,16 Z" id="path-1"></path>
    </defs>
    <g id="Icons/Set/pdf" stroke="none" stroke-width="1" fill="none" fill-rule="evenodd">
        <g id="🎨-color" transform="translate(1.000000, 0.000000)">
            <mask id="mask-2" fill="white">
                <use xlink:href="#path-1"></use>
            </mask>
            <use id="Mask" fill="#000000" fill-rule="nonzero" xlink:href="#path-1"></use>
        </g>
    </g>
</svg>