<?xml version="1.0" encoding="UTF-8"?>
<svg width="16px" height="16px" viewBox="0 0 16 16" version="1.1" xmlns="http://www.w3.org/2000/svg" xmlns:xlink="http://www.w3.org/1999/xlink">
    <!-- Generator: Sketch 51.2 (57519) - http://www.bohemiancoding.com/sketch -->
    <title>Icons/Set/ppt</title>
    <desc>Created with Sketch.</desc>
    <defs></defs>
    <g id="Icons/Set/ppt" stroke="none" stroke-width="1" fill="none" fill-rule="evenodd">
        <g id="🎨-color" fill="#000000" fill-rule="nonzero">
            <path d="M15.0608333,3.39333333 C15.2260585,3.39333333 15.36,3.52727481 15.36,3.6925 L15.36,13.8641667 C15.36,14.0293919 15.2260585,14.1633333 15.0608333,14.1633333 L9.37666667,14.1633333 L9.37666667,15.6531833 C9.37666667,15.8184085 9.24272519,15.95235 9.0775,15.95235 L9.02365,15.95235 L1.24531667,14.4565167 C1.10362672,14.43059 1.00052832,14.3073748 1,14.1633333 L1,3.39333333 C0.997613771,3.24703972 1.10138982,3.12048356 1.24531667,3.09416667 L9.02365,1.59833333 C9.11181656,1.58218744 9.20257733,1.60642381 9.27095777,1.66437333 C9.33933821,1.72232286 9.37813287,1.80787923 9.37666667,1.8975 L9.37666667,3.39333333 L15.0608333,3.39333333 Z M4.88916667,6.98333333 C5.38484223,6.98333333 5.78666667,7.38515777 5.78666667,7.88083333 C5.78666667,8.3765089 5.38484223,8.77833333 4.88916667,8.77833333 L4.59,8.77833333 L4.59,6.98333333 L4.88916667,6.98333333 Z M4.88916667,9.37666667 C5.7152926,9.37666667 6.385,8.70695927 6.385,7.88083333 C6.385,7.0547074 5.7152926,6.385 4.88916667,6.385 L4.29083333,6.385 C4.12560815,6.385 3.99166667,6.51894148 3.99166667,6.68416667 L3.99166667,10.8725 C3.99166667,11.0377252 4.12560815,11.1716667 4.29083333,11.1716667 C4.45605852,11.1716667 4.59,11.0377252 4.59,10.8725 L4.59,9.37666667 L4.88916667,9.37666667 Z M14.7616667,13.565 L14.7616667,3.99166667 L9.37666667,3.99166667 L9.37666667,5.82855 C9.59925984,5.59863912 9.87144969,5.42263666 10.17245,5.31398333 C10.2641146,5.28084303 10.366177,5.29443612 10.4459728,5.35041224 C10.5257685,5.40638835 10.5732919,5.49772855 10.5733333,5.5952 L10.5733333,6.68416667 C10.5733333,6.92219847 10.6678911,7.1504811 10.836205,7.318795 C11.0045189,7.4871089 11.2328015,7.58166667 11.4708333,7.58166667 L12.5598,7.58166667 C12.6572715,7.58170813 12.7486116,7.6292315 12.8045878,7.70902724 C12.8605639,7.78882298 12.874157,7.89088536 12.8410167,7.98255 C12.6028085,8.66527438 12.0274551,9.17553379 11.3211584,9.33045551 C10.6148618,9.48537723 9.8787603,9.26277717 9.37666667,8.74243333 L9.37666667,10.2741667 L13.8641667,10.2741667 C14.0293919,10.2741667 14.1633333,10.4081081 14.1633333,10.5733333 C14.1633333,10.7385585 14.0293919,10.8725 13.8641667,10.8725 L9.37666667,10.8725 L9.37666667,12.0691667 L13.8641667,12.0691667 C14.0293919,12.0691667 14.1633333,12.2031081 14.1633333,12.3683333 C14.1633333,12.5335585 14.0293919,12.6675 13.8641667,12.6675 L9.37666667,12.6675 L9.37666667,13.565 L14.7616667,13.565 Z M11.4708333,6.98333333 C11.3056081,6.98333333 11.1716667,6.84939185 11.1716667,6.68416667 L11.1716667,4.88916667 C11.1716667,4.72394148 11.3056081,4.59 11.4708333,4.59 C12.6274096,4.59 13.565,5.52759035 13.565,6.68416667 C13.565,6.84939185 13.4310585,6.98333333 13.2658333,6.98333333 L11.4708333,6.98333333 Z" id="Shape"></path>
        </g>
    </g>
</svg>