<?xml version="1.0" encoding="UTF-8"?>
<svg width="24px" height="31px" viewBox="0 0 24 31" version="1.1" xmlns="http://www.w3.org/2000/svg" xmlns:xlink="http://www.w3.org/1999/xlink">
    <!-- Generator: Sketch 49.3 (51167) - http://www.bohemiancoding.com/sketch -->
    <title>Fill 12 Copy</title>
    <desc>Created with Sketch.</desc>
    <defs></defs>
    <g id="SHARCK---Logos" stroke="none" stroke-width="1" fill="none" fill-rule="evenodd">
        <g id="SHARCK---logos" transform="translate(-100.000000, -180.000000)" fill="#FFCC33">
            <g id="Group-7" transform="translate(47.000000, 173.000000)">
                <g id="corporate" transform="translate(53.000000, 7.000000)">
                    <g id="logo">
                        <g id="Group-3">
                            <path d="M7.58087493,15.0848267 L7.58087493,15.0841878 L7.58087493,15.0837619 L7.58087493,15.0835489 C7.58129832,14.8689748 7.68524162,14.6522709 7.88974107,14.2095986 C9.42549804,10.8859893 13.0020155,4.0727552 14.4981851,1.54376228 C14.645103,1.29883897 14.8168952,1.16434412 14.9293064,1.15763536 C15.0416117,1.15092659 15.1048033,1.17435403 15.1309479,1.20672651 C14.6256268,2.18929494 13.3684633,4.6931566 12.4632463,6.99554221 C13.8075232,9.49897792 14.9789494,11.8356528 16.0993565,14.2296184 C16.3045969,14.6683506 16.4039887,14.8797301 16.4039887,15.0946237 L16.4039887,15.0933458 L16.4040946,15.0933458 L16.4040946,15.0938783 L16.4040946,15.0946237 L16.4039887,15.0946237 C16.4036712,15.3090913 16.2997279,15.5257952 16.0951226,15.9685739 C14.5594715,19.2921833 10.9828481,26.1053109 9.48667852,28.6344103 C9.33986654,28.8793336 9.16796846,29.0138284 9.05566312,29.0205372 C8.94335778,29.027246 8.88016618,29.0038185 8.85391574,28.9714461 C9.35934268,27.9887711 10.6164004,25.485016 11.5216174,23.1825239 C10.1773405,20.6791946 9.00591429,18.3425198 7.88550712,15.9485541 C7.68026674,15.5098219 7.58087493,15.2984425 7.58087493,15.0835489 L7.58087493,15.0848267 Z M23.789573,14.2804134 C23.3534769,13.3659975 21.9976625,10.6806797 20.8484645,8.58477504 C19.2729085,5.71118567 16.4598768,0.980332176 16.1403199,0.549160659 C15.8246795,0.123207074 15.6482299,0.104358628 15.3558761,0.0731575282 L15.3127958,0.0684720388 C14.8874962,0.0217236328 13.0845774,0 12.0000529,0 C11.0709141,0 9.09736746,0.0241728659 8.63777295,0.0703888299 C8.20527567,0.113836096 8.08778375,0.247372544 7.84062733,0.571842688 C7.50138265,1.01739014 4.64135416,5.88220603 3.15153547,8.58477504 C2.07431452,10.5390501 0.36835304,13.916862 0.209686027,14.2805199 C0.0666846021,14.6085041 0,14.866632 0,15.0928134 C0,15.3337966 0.0668962993,15.5919245 0.210426967,15.9051069 C0.567877604,16.6852409 1.64605119,18.8458904 3.15153547,21.6008517 C4.72169322,24.4740151 7.55864673,29.2229716 7.85968007,29.6364661 C8.17733165,30.0728555 8.38500655,30.0913845 8.67227958,30.1171547 C9.1090108,30.156236 10.9920569,30.1856267 12.0000529,30.1856267 C13.0878587,30.1856267 15.0564305,30.1419665 15.3277204,30.1171547 C15.5966816,30.0925559 15.8290193,30.0713647 16.1403199,29.6364661 C16.4261111,29.2372411 19.4777255,24.1210061 20.8484645,21.6008517 C22.162257,19.1853754 23.6214855,16.2838861 23.789573,15.9051069 C23.9744905,15.4886307 24,15.2685192 24,15.0926004 C24,14.9539525 23.9726911,14.6641976 23.789573,14.2804134 Z" id="Fill-12-Copy"></path>
                        </g>
                    </g>
                </g>
            </g>
        </g>
    </g>
</svg>