<?xml version="1.0" encoding="UTF-8"?>
<svg width="16px" height="16px" viewBox="0 0 16 16" version="1.1" xmlns="http://www.w3.org/2000/svg" xmlns:xlink="http://www.w3.org/1999/xlink">
    <!-- Generator: Sketch 52.4 (67378) - http://www.bohemiancoding.com/sketch -->
    <title>rpic2</title>
    <desc>Created with Sketch.</desc>
    <defs>
        <path d="M1.7294686,15.942029 L1,15.942029 L1,12.5700483 L2.28502415,12.5700483 C2.64251386,12.5700483 2.92511973,12.66264 3.13285024,12.8478261 C3.34058075,13.0330122 3.44444444,13.2898534 3.44444444,13.6183575 C3.44444444,13.8405808 3.39211002,14.0330105 3.28743961,14.1956522 C3.1827692,14.3582939 3.03381739,14.4798708 2.84057971,14.5603865 C2.95974295,14.737521 3.08051469,14.9339764 3.20289855,15.1497585 C3.32528242,15.3655405 3.46698792,15.6296281 3.62801932,15.942029 L2.80676329,15.942029 C2.69726193,15.7101438 2.58776222,15.4927546 2.47826087,15.2898551 C2.36875952,15.0869555 2.25925981,14.895331 2.14975845,14.7149758 L1.7294686,14.7149758 L1.7294686,15.942029 Z M2.71980676,13.6328502 C2.71980676,13.487922 2.67552379,13.3743965 2.58695652,13.2922705 C2.49838925,13.2101445 2.37842266,13.1690821 2.22705314,13.1690821 L1.7294686,13.1690821 L1.7294686,14.115942 L2.23188406,14.115942 C2.38325357,14.115942 2.50241502,14.0740745 2.58937198,13.9903382 C2.67632894,13.9066018 2.71980676,13.7874404 2.71980676,13.6328502 Z M4.8647343,15.942029 L4.1352657,15.942029 L4.1352657,12.5700483 L5.39130434,12.5700483 C5.76811782,12.5700483 6.06119058,12.6690811 6.2705314,12.8671498 C6.47987222,13.0652184 6.58454106,13.346214 6.58454106,13.7101449 C6.58454106,14.0740759 6.47987222,14.3542663 6.2705314,14.5507246 C6.06119058,14.7471829 5.76811782,14.8454106 5.39130434,14.8454106 L4.8647343,14.8454106 L4.8647343,15.942029 Z M5.85507246,13.7101449 C5.85507246,13.5330104 5.81320492,13.3985512 5.7294686,13.3067633 C5.64573227,13.2149754 5.52335024,13.1690821 5.36231884,13.1690821 L4.8647343,13.1690821 L4.8647343,14.2463768 L5.36231884,14.2463768 C5.52657087,14.2463768 5.64975804,14.2012887 5.73188405,14.1111111 C5.81401007,14.0209335 5.85507246,13.8872795 5.85507246,13.7101449 Z M7.85507246,12.5700483 L7.85507246,15.942029 L7.12560386,15.942029 L7.12560386,12.5700483 L7.85507246,12.5700483 Z M10.0096618,16 C9.47181695,16 9.08051651,15.8599048 8.83574878,15.5797101 C8.59098105,15.2995155 8.46859902,14.8550755 8.46859902,14.2463768 C8.46859902,13.64734 8.58776047,13.208536 8.82608695,12.9299517 C9.06441342,12.6513674 9.44444183,12.5120773 9.96618356,12.5120773 C10.1014499,12.5120773 10.2334937,12.5209339 10.3623188,12.5386473 C10.491144,12.5563608 10.6038642,12.5813203 10.7004831,12.6135266 L10.7004831,13.2512077 C10.5845405,13.2157808 10.4718202,13.189211 10.3623188,13.1714976 C10.2528175,13.1537841 10.1417075,13.1449275 10.0289855,13.1449275 C9.71336395,13.1449275 9.49839026,13.2262472 9.38405796,13.3888889 C9.26972567,13.5515306 9.21256038,13.8373571 9.21256038,14.2463768 C9.21256038,14.6521759 9.27455654,14.9404178 9.39855071,15.1111111 C9.52254489,15.2818044 9.7359083,15.3671498 10.0386473,15.3671498 C10.1449281,15.3671498 10.2552329,15.3582932 10.3695652,15.3405797 C10.4838975,15.3228663 10.5942024,15.2979068 10.7004831,15.2657005 L10.7004831,15.9082126 C10.6070849,15.9371982 10.5016109,15.9597423 10.384058,15.9758454 C10.266505,15.9919486 10.1417076,16 10.0096618,16 Z M13.1594203,15.3429952 L14.3719807,15.3429952 L14.3719807,15.942029 L12.2222222,15.942029 L12.2222222,15.4444444 L13.0193237,14.4879227 C13.2254438,14.2399343 13.3639288,14.0507253 13.4347826,13.9202899 C13.5056364,13.7898544 13.5410628,13.6634467 13.5410628,13.5410628 C13.5410628,13.4025758 13.5024158,13.3027378 13.4251208,13.2415459 C13.3478257,13.180354 13.2222231,13.1497585 13.0483092,13.1497585 C12.9420284,13.1497585 12.8236721,13.1610305 12.6932367,13.1835749 C12.5628013,13.2061193 12.4138495,13.2399354 12.2463768,13.2850242 L12.2463768,12.6618357 C12.4396145,12.6038644 12.6046692,12.5644123 12.7415459,12.5434783 C12.8784226,12.5225442 13.0241538,12.5120773 13.1787439,12.5120773 C13.5491162,12.5120773 13.8293066,12.5909815 14.0193237,12.7487923 C14.2093407,12.906603 14.3043478,13.1384848 14.3043478,13.4444444 C14.3043478,13.6441234 14.2568443,13.8397736 14.1618357,14.031401 C14.0668272,14.2230283 13.9033828,14.4573255 13.6714976,14.7342995 L13.1594203,15.3429952 Z M10.1480733,5.48630114 C9.87675542,5.48630114 9.69980901,5.66366001 9.69980901,5.92378636 C9.69980901,6.18391271 9.87675542,6.36127158 10.1480733,6.36127158 C10.4193911,6.36127158 10.5963375,6.18391271 10.5963375,5.92378636 C10.5963375,5.66366001 10.4193911,5.48630114 10.1480733,5.48630114 Z M5.93674868,5.48630114 C5.66543085,5.48630114 5.48848444,5.66366001 5.48848444,5.92378636 C5.48848444,6.18391271 5.66543085,6.36127158 5.93674868,6.36127158 C6.20806651,6.36127158 6.38501292,6.18391271 6.38501292,5.92378636 C6.38501292,5.66366001 6.20806651,5.48630114 5.93674868,5.48630114 Z M6.77429502,5.92378636 L9.31052691,5.92378636 C9.31052691,5.45082936 9.66441973,5.09611162 10.1480733,5.09611162 C10.6317268,5.09611162 10.9856196,5.45082936 10.9856196,5.92378636 C10.9856196,6.39674335 10.6317268,6.7514611 10.1480733,6.7514611 C9.81777328,6.7514611 9.54645545,6.58592615 9.40489833,6.3257998 L6.6799236,6.3257998 C6.53836648,6.58592615 6.26704865,6.7514611 5.93674868,6.7514611 C5.45309516,6.7514611 5.09920234,6.39674335 5.09920234,5.92378636 C5.09920234,5.45082936 5.45309516,5.09611162 5.93674868,5.09611162 C6.4204022,5.09611162 6.77429502,5.45082936 6.77429502,5.92378636 Z M4.24985957,5.19070302 C4.24985957,4.6113307 4.28524885,4.52856322 4.86327379,3.84277558 C5.45309516,3.13334009 5.73620941,2.96780514 6.36142007,2.96780514 L7.85956634,2.96780514 C8.5319627,2.96780514 8.89765195,3.08604439 9.42849118,3.45258606 L10.3250197,4.12654978 L10.9030446,4.26843688 C11.5282553,4.41032398 11.8231659,4.77686565 11.8231659,5.37988581 C11.8231659,5.67548394 11.7405909,5.93561028 11.5872374,6.14844093 L11.2569374,5.91196243 C11.3749017,5.73460356 11.410291,5.60454039 11.410291,5.37988581 C11.410291,4.96604844 11.1979553,4.74139387 10.6671161,4.6113307 L10.0890911,4.4694436 L9.21615549,3.80730381 C8.7914841,3.48805784 8.42579485,3.36981859 7.85956634,3.36981859 L6.36142007,3.36981859 C5.87776654,3.36981859 5.70082013,3.48805784 5.15818447,4.1383737 C4.70992023,4.68227425 4.66273452,4.7532178 4.66273452,5.24982264 L4.66273452,5.49812506 C4.66273452,5.67548394 4.69812381,5.78189926 4.80429165,5.88831458 L4.5211774,6.14844093 C4.33243456,5.98290598 4.24985957,5.78189926 4.24985957,5.49812506 L4.24985957,5.19070302 Z M8.04830918,10.1449275 C4.87507022,10.1449275 2.97584541,8.12303638 2.97584541,5.07246377 L3.42410965,5.07246377 C3.42410965,7.87473396 5.13459162,9.70744232 8.04830918,9.70744232 C10.9620267,9.70744232 12.6725087,7.87473396 12.6725087,5.07246377 C12.6725087,2.25836965 10.914841,0.425661295 7.93034491,0.425661295 C6.53836648,0.425661295 5.34692731,1.02868146 4.47399169,1.9509476 C4.83968093,1.8563562 5.20537018,1.73811696 5.58285586,1.59622986 L5.9013594,1.88000405 C5.28794517,2.10465863 4.80429165,2.24654572 4.09650601,2.36478497 L3.82518818,2.11648255 C3.88417032,1.56075808 4.01393102,0.993209689 4.23806314,0.342893821 L4.55656668,0.638491943 C4.37962027,1.13509679 4.27345242,1.40704706 4.20267386,1.66717341 C5.14638805,0.662139793 6.43219863,0 7.93034491,0 C11.1743624,0 13.1207729,2.02189115 13.1207729,5.07246377 C13.1207729,8.12303638 11.2215481,10.1449275 8.04830918,10.1449275 Z" id="path-1"></path>
    </defs>
    <g id="rpic2" stroke="none" stroke-width="1" fill="none" fill-rule="evenodd">
        <mask id="mask-2" fill="white">
            <use xlink:href="#path-1"></use>
        </mask>
        <use id="Mask" fill="#000000" xlink:href="#path-1"></use>
    </g>
</svg>