<?xml version="1.0" encoding="UTF-8"?>
<svg width="16px" height="16px" viewBox="0 0 16 16" version="1.1" xmlns="http://www.w3.org/2000/svg" xmlns:xlink="http://www.w3.org/1999/xlink">
    <!-- Generator: Sketch 51.1 (57501) - http://www.bohemiancoding.com/sketch -->
    <title>Icons/Set/save</title>
    <desc>Created with Sketch.</desc>
    <defs>
        <path d="M7.986,7.972 C6.725,7.972 5.968,8.842 5.968,10.022 C5.968,11.2 6.725,12.07 7.986,12.07 C9.246,12.07 10.004,11.2 10.004,10.021 C10.004,8.842 9.247,7.971 7.986,7.971 L7.986,7.972 Z M7.986,7.018 C9.807,7.018 10.984,8.308 10.984,10.021 C10.984,11.733 9.807,13.025 7.986,13.025 C6.165,13.025 4.988,11.733 4.988,10.021 C4.988,8.309 6.165,7.018 7.986,7.018 Z M11.993,0.954 L3.951,0.954 L3.951,5.024 L11.993,5.024 L11.993,0.955 L11.993,0.954 Z M14.991,14.007 L14.991,3.004 C14.291,2.189 13.786,1.656 12.974,0.954 L12.974,5.98 L2.97,5.98 L2.97,0.954 L1.99,0.954 C1.26,0.954 0.98,1.264 0.98,1.993 L0.98,14.007 C0.98,14.737 1.26,15.046 1.99,15.046 L13.982,15.046 C14.711,15.046 14.992,14.736 14.992,14.007 L14.991,14.007 Z M16,2.751 L15.972,14.007 C15.972,15.354 15.327,16 13.982,16 L1.99,16 C0.644,16 0,15.354 0,14.007 L0,1.993 C0,0.646 0.644,0 1.99,0 L13.254,0 C14.2381339,0.845286602 15.1561468,1.76463673 16,2.75 L16,2.751 Z" id="path-1"></path>
    </defs>
    <g id="Icons/Set/save" stroke="none" stroke-width="1" fill="none" fill-rule="evenodd">
        <g id="🎨-color">
            <mask id="mask-2" fill="white">
                <use xlink:href="#path-1"></use>
            </mask>
            <use id="Mask" fill="#000000" fill-rule="nonzero" xlink:href="#path-1"></use>
        </g>
    </g>
</svg>