<?xml version="1.0" encoding="UTF-8"?>
<svg width="16px" height="16px" viewBox="0 0 16 16" version="1.1" xmlns="http://www.w3.org/2000/svg" xmlns:xlink="http://www.w3.org/1999/xlink">
    <!-- Generator: Sketch 51.2 (57519) - http://www.bohemiancoding.com/sketch -->
    <title>Icons/Set/Full/Setting</title>
    <desc>Created with Sketch.</desc>
    <defs>
        <path d="M10.491,0 C11.568,0.52 12.824,1.267 13.722,1.946 L13.588,2.376 C13.408,2.942 13.318,3.462 13.318,3.915 C13.318,4.956 13.946,5.567 15.472,5.997 L15.967,6.132 C16.011,7.468 16.011,8.554 15.967,9.866 L15.472,10.002 C13.946,10.433 13.318,11.043 13.318,12.084 C13.318,12.537 13.408,13.058 13.588,13.623 L13.722,14.053 C12.824,14.733 11.568,15.479 10.491,15.999 L10.199,15.66 C9.504,14.822 8.83,14.438 8,14.438 C7.17,14.438 6.496,14.822 5.801,15.66 L5.509,15.999 C4.432,15.479 3.175,14.733 2.278,14.053 L2.412,13.623 C2.592,13.058 2.681,12.537 2.681,12.084 C2.681,11.043 2.053,10.433 0.527,10.002 L0.033,9.866 C-0.011,8.554 -0.011,7.468 0.033,6.132 L0.527,5.997 C2.053,5.567 2.681,4.956 2.681,3.915 C2.681,3.462 2.592,2.942 2.412,2.376 L2.278,1.946 C3.175,1.267 4.432,0.52 5.509,0 L5.801,0.339 C6.496,1.176 7.17,1.561 8,1.561 C8.83,1.561 9.504,1.176 10.199,0.339 L10.491,0 Z M10.424,8.011 C10.424,6.404 9.571,5.522 8,5.522 C6.451,5.522 5.576,6.404 5.576,8.011 C5.576,9.572 6.451,10.455 8,10.455 C9.549,10.455 10.424,9.55 10.424,8.011 Z" id="path-1"></path>
    </defs>
    <g id="Icons/Set/Full/Setting" stroke="none" stroke-width="1" fill="none" fill-rule="evenodd">
        <mask id="mask-2" fill="white">
            <use xlink:href="#path-1"></use>
        </mask>
        <use id="Icons/Set/settings" fill="#000000" fill-rule="nonzero" xlink:href="#path-1"></use>
    </g>
</svg>