<?xml version="1.0" encoding="UTF-8"?>
<svg width="16px" height="16px" viewBox="0 0 16 16" version="1.1" xmlns="http://www.w3.org/2000/svg" xmlns:xlink="http://www.w3.org/1999/xlink">
    <!-- Generator: Sketch 51.3 (57544) - http://www.bohemiancoding.com/sketch -->
    <title>Icons/Set/timeout</title>
    <desc>Created with Sketch.</desc>
    <defs>
        <path d="M12.0749,12.1958729 C11.4155211,13.6601352 9.94353485,14.6795245 8.23345749,14.6795245 C6.52338013,14.6795245 5.05139389,13.6601352 4.39201498,12.1958729 L3.20234719,12.1958729 C1.43358046,12.1958729 0,10.7624066 0,8.99383863 C0,7.67018348 0.811036527,6.50828693 2.00216036,6.02719204 C2.13853602,4.84832401 3.14029785,3.93314425 4.35591198,3.93314425 C4.76062138,3.93314425 5.14982848,4.03557081 5.49301365,4.22366588 C6.23423203,2.87567284 7.65840467,2 9.24964303,2 C11.6198711,2 13.5410856,3.92132368 13.5410856,6.29144254 C14.9374052,6.5535568 16,7.76972673 16,9.23419071 C16,10.8700652 14.6740764,12.1958729 13.0380049,12.1958729 L12.0749,12.1958729 Z M12.3778351,11.2178778 L13.0380049,11.2178778 C14.1339637,11.2178778 15.0220049,10.3299142 15.0220049,9.23419071 C15.0220049,8.14269101 14.1408457,7.25716896 13.0509042,7.25023175 C12.7260155,7.25112958 12.4985316,6.9938278 12.5345417,6.70220489 C12.5535477,6.54828709 12.5630905,6.41640015 12.5630905,6.29144254 C12.5630905,4.46144302 11.0797269,2.97799511 9.24964303,2.97799511 C7.85302223,2.97799511 6.62283739,3.8523131 6.14490528,5.14390092 C6.0210963,5.47848856 5.59224244,5.57215505 5.34020714,5.31965602 C5.08063531,5.0596066 4.73031594,4.91113936 4.35591198,4.91113936 C3.5881167,4.91113936 2.96565884,5.53271456 2.96434438,6.29996114 C2.9667017,6.33392852 2.9667017,6.33392852 2.9680992,6.36349558 C2.97617957,6.58974594 2.82789941,6.7919602 2.60968671,6.85227383 C1.65264883,7.11679754 0.97799511,7.98837116 0.97799511,8.99383863 C0.97799511,10.2222574 1.9736948,11.2178778 3.20234719,11.2178778 L4.0890799,11.2178778 C4.04542149,10.9747546 4.02263209,10.7243882 4.02263209,10.4686991 C4.02263209,8.14312448 5.90788284,6.25787373 8.23345749,6.25787373 C10.5590321,6.25787373 12.4442829,8.14312448 12.4442829,10.4686991 C12.4442829,10.7243882 12.4214935,10.9747546 12.3778351,11.2178778 Z M8.23345749,13.7856063 C10.0653347,13.7856063 11.5503646,12.3005764 11.5503646,10.4686991 C11.5503646,8.63682189 10.0653347,7.15179197 8.23345749,7.15179197 C6.40158025,7.15179197 4.91655033,8.63682189 4.91655033,10.4686991 C4.91655033,12.3005764 6.40158025,13.7856063 8.23345749,13.7856063 Z M10.3576552,10.4709297 L10.3576552,11.3531742 L7.52773256,11.3531742 L7.52773256,8.11628271 L8.42534032,8.11628271 L8.42534032,10.4709297 L10.3576552,10.4709297 Z" id="path-1"></path>
    </defs>
    <g id="Icons/Set/timeout" stroke="none" stroke-width="1" fill="none" fill-rule="evenodd">
        <mask id="mask-2" fill="white">
            <use xlink:href="#path-1"></use>
        </mask>
        <use id="Combined-Shape" fill="#000000" fill-rule="nonzero" xlink:href="#path-1"></use>
    </g>
</svg>