<?xml version="1.0" encoding="UTF-8"?>
<svg width="16px" height="16px" viewBox="0 0 16 16" version="1.1" xmlns="http://www.w3.org/2000/svg" xmlns:xlink="http://www.w3.org/1999/xlink">
    <!-- Generator: Sketch 49.3 (51167) - http://www.bohemiancoding.com/sketch -->
    <title>toggle</title>
    <desc>Created with Sketch.</desc>
    <defs></defs>
    <g id="toggle" stroke="none" stroke-width="1" fill="none" fill-rule="evenodd">
        <g id="ico-toggle" transform="translate(0.000000, 1.000000)" fill="#000000" fill-rule="nonzero">
            <path d="M13.8844444,6.688 C12.7523631,5.77180693 11.6581204,4.80982231 10.6044444,3.80444444 L11.4648889,3.58044444 C12.1625797,4.26917582 12.8922747,4.92471476 13.6515556,5.54488889 C13.0471111,2.61155556 10.8835556,0.870222222 8,0.870222222 C5.37244444,0.870222222 3.62755556,2.11377778 2.48888889,4.79911111 L1.744,4.45066667 C2.81422222,1.56622222 5,0 8,0 C11.2328889,0 13.6977778,1.91466667 14.3484444,5.296 C14.6746667,4.40088889 14.8373333,3.77955556 15.1395556,2.66044444 L16,2.43644444 C15.590902,3.84453662 15.109674,5.23066276 14.5582222,6.58933333 L13.8835556,6.688 L13.8844444,6.688 Z M8,14.2222222 C4.76711111,14.2222222 2.30222222,12.3075556 1.65155556,8.92622222 C1.32533333,9.82133333 1.16266667,10.4426667 0.860444444,11.5617778 L0,11.7857778 C0.488888889,10.1448889 0.837333333,9.15022222 1.44177778,7.63288889 L2.11644444,7.53422222 C3.24822372,8.45043431 4.3421696,9.41241867 5.39555556,10.4177778 L4.53511111,10.6417778 C3.83742028,9.9530464 3.10772535,9.29750747 2.34844444,8.67733333 C2.95288889,11.6106667 5.11644444,13.352 8,13.352 C10.6275556,13.352 12.3724444,12.1084444 13.5111111,9.42311111 L14.256,9.77155556 C13.1857778,12.656 11,14.2222222 8,14.2222222 Z" id="path-1"></path>
        </g>
    </g>
</svg>