<?xml version="1.0" encoding="UTF-8"?>
<svg width="16px" height="16px" viewBox="0 0 16 16" version="1.1" xmlns="http://www.w3.org/2000/svg" xmlns:xlink="http://www.w3.org/1999/xlink">
    <!-- Generator: Sketch 52.2 (67145) - http://www.bohemiancoding.com/sketch -->
    <title>tool</title>
    <desc>Created with Sketch.</desc>
    <defs>
        <path d="M1.3323257,14.5738517 C1.73781147,14.9793374 2.40323775,14.9612656 2.85135902,14.5131443 L9.49170143,7.87280193 C11.2111729,8.86652819 12.8965951,8.80020358 14.0282144,7.66858422 C15.0104601,6.68633861 15.2709637,5.49535183 14.811467,4.01136238 L13.2106028,5.61222657 L11.3842581,6.2633739 L9.66272206,4.54183783 L10.3145808,2.71620454 L11.9154449,1.11534035 C10.4327035,0.613335676 9.28271584,0.874100158 8.25822311,1.89859289 C7.12660375,3.03021225 7.06223852,4.67383784 8.05400541,6.4351059 L1.41366299,13.0754483 C0.96554172,13.5235696 0.927551309,14.1690773 1.3323257,14.5738517 Z M0.625540354,15.2812799 C-0.207493579,14.4482459 -0.184359113,13.2473 0.703845572,12.3590953 L6.76528275,6.29765814 C5.93431891,4.32471685 6.15465947,2.5596587 7.42277691,1.29154125 C8.7737437,-0.0594255373 10.7894431,-0.327681023 12.8213688,0.607050597 L12.9273403,1.51613835 L11.1740691,3.26940962 L10.7796895,4.39617382 L11.5313473,5.14783169 L12.6581441,4.75199186 L14.4099226,3.00021337 L15.3204706,3.1061524 C16.232843,5.15900954 15.9660803,7.17321617 14.6352661,8.50403042 C13.3671486,9.77214786 11.6028043,9.99320225 9.63060941,9.16149202 L3.56767945,15.224422 C2.68096755,16.1111339 1.49926232,16.1550018 0.625540354,15.2812799 Z" id="path-1"></path>
    </defs>
    <g id="tool" stroke="none" stroke-width="1" fill="none" fill-rule="evenodd">
        <g id="🎨-color">
            <mask id="mask-2" fill="white">
                <use xlink:href="#path-1"></use>
            </mask>
            <use id="Mask" fill="#000000" fill-rule="nonzero" xlink:href="#path-1"></use>
        </g>
    </g>
</svg>