<?xml version="1.0" encoding="UTF-8"?>
<svg width="16px" height="16px" viewBox="0 0 16 16" version="1.1" xmlns="http://www.w3.org/2000/svg" xmlns:xlink="http://www.w3.org/1999/xlink">
    <!-- Generator: Sketch 50.2 (55047) - http://www.bohemiancoding.com/sketch -->
    <title>Icons/Set/view</title>
    <desc>Created with Sketch.</desc>
    <defs>
        <path d="M8.00011009,13.2857564 C5.56295725,13.2857564 3.25666209,12.2531808 1.50465492,10.3783159 C1.28922546,10.1480293 1.30179694,9.78631351 1.5320836,9.57088406 C1.76294169,9.3554546 2.12408602,9.36802608 2.34008691,9.59831274 C3.87323605,11.2394623 5.88295856,12.1428946 8.00011009,12.1428946 C10.7218355,12.1428946 13.2281315,10.6543171 14.7658521,8.14287821 C13.2287029,5.63143935 10.7218355,4.14286182 8.00011009,4.14286182 C5.17838425,4.14286182 2.58751649,5.74343981 1.06865313,8.42459365 C0.913223922,8.69945192 0.563508203,8.79659517 0.289792797,8.6400231 C0.014934528,8.48459389 -0.0810658652,8.13602104 0.0743633428,7.86116277 C1.7983704,4.8171503 4.76181111,3 8.00011009,3 C11.2389805,3 14.2018498,4.8171503 15.9258568,7.86116277 C16.0247144,8.03602063 16.0247144,8.24973579 15.9258568,8.42402222 C14.2018498,11.4680347 11.2389805,13.2857564 8.00011009,13.2857564 Z M8.00011009,11.0000328 C6.42467507,11.0000328 5.14295553,9.71831323 5.14295553,8.14287821 C5.14295553,6.56744318 6.42467507,5.28572365 8.00011009,5.28572365 C9.57554512,5.28572365 10.8572647,6.56744318 10.8572647,8.14287821 C10.8572647,9.71831323 9.57554512,11.0000328 8.00011009,11.0000328 Z M8.00011009,6.42858547 C7.05496336,6.42858547 6.28581736,7.19773148 6.28581736,8.14287821 C6.28581736,9.08802494 7.05496336,9.85717094 8.00011009,9.85717094 C8.94525682,9.85717094 9.71440283,9.08802494 9.71440283,8.14287821 C9.71440283,7.19773148 8.94525682,6.42858547 8.00011009,6.42858547 Z" id="path-1"></path>
    </defs>
    <g id="Icons/Set/view" stroke="none" stroke-width="1" fill="none" fill-rule="evenodd">
        <mask id="mask-2" fill="white">
            <use xlink:href="#path-1"></use>
        </mask>
        <use id="Mask" fill="#000000" fill-rule="nonzero" xlink:href="#path-1"></use>
    </g>
</svg>