<?xml version="1.0" encoding="UTF-8"?>
<svg width="16px" height="16px" viewBox="0 0 16 16" version="1.1" xmlns="http://www.w3.org/2000/svg" xmlns:xlink="http://www.w3.org/1999/xlink">
    <!-- Generator: Sketch 50.2 (55047) - http://www.bohemiancoding.com/sketch -->
    <title>Icons/Set/view-off</title>
    <desc>Created with Sketch.</desc>
    <defs>
        <path d="M4.61818232,12.5889245 L2.84314575,14.363961 C2.6478836,14.5592232 2.33130112,14.5592232 2.13603897,14.363961 C1.94077682,14.1686989 1.94077682,13.8521164 2.13603897,13.6568542 L3.67675221,12.116141 C2.89014755,11.6608758 2.15876972,11.0782998 1.50465492,10.3783159 C1.28922546,10.1480293 1.30179694,9.78631351 1.5320836,9.57088406 C1.76294169,9.3554546 2.12408602,9.36802608 2.34008691,9.59831274 C2.98985547,10.2938533 3.72522494,10.8568869 4.51809449,11.2747987 L5.81322719,9.97966603 C5.39511826,9.48266606 5.14295553,8.84166461 5.14295553,8.14287821 C5.14295553,6.56744318 6.42467507,5.28572365 8.00011009,5.28572365 C8.69889649,5.28572365 9.33989794,5.53788638 9.83689791,5.95599531 L11.0117386,4.78115461 C10.0687819,4.36454784 9.05044485,4.14286182 8.00011009,4.14286182 C5.17838425,4.14286182 2.58751649,5.74343981 1.06865313,8.42459365 C0.913223922,8.69945192 0.563508203,8.79659517 0.289792797,8.6400231 C0.014934528,8.48459389 -0.0810658652,8.13602104 0.0743633428,7.86116277 C1.7983704,4.8171503 4.76181111,3 8.00011009,3 C9.36329929,3 10.6775967,3.32189629 11.8712144,3.92167884 L14.1568542,1.63603897 C14.3521164,1.44077682 14.6686989,1.44077682 14.863961,1.63603897 C15.0592232,1.83130112 15.0592232,2.1478836 14.863961,2.34314575 L12.7677618,4.43934503 C14.0280526,5.26698394 15.1142384,6.4281195 15.9258568,7.86116277 C16.0247144,8.03602063 16.0247144,8.24973579 15.9258568,8.42402222 C14.2018498,11.4680347 11.2389805,13.2857564 8.00011009,13.2857564 C6.82671501,13.2857564 5.68365341,13.0464001 4.61818232,12.5889245 Z M5.49971068,11.7073961 C6.29901573,11.9940338 7.14071224,12.1428946 8.00011009,12.1428946 C10.7218355,12.1428946 13.2281315,10.6543171 14.7658521,8.14287821 C14.0220362,6.92761027 13.0511584,5.9518479 11.9387478,5.26835899 L10.4807657,6.72634112 C10.720255,7.14410341 10.8572647,7.62779242 10.8572647,8.14287821 C10.8572647,9.71831323 9.57554512,11.0000328 8.00011009,11.0000328 C7.48502431,11.0000328 7.00133529,10.8630231 6.583573,10.6235338 L5.49971068,11.7073961 Z M9.02404582,6.7688474 C8.73812485,6.55521367 8.38360539,6.42858547 8.00011009,6.42858547 C7.05496336,6.42858547 6.28581736,7.19773148 6.28581736,8.14287821 C6.28581736,8.52637351 6.41244555,8.88089297 6.62607929,9.16681393 L9.02404582,6.7688474 Z M9.62143083,7.58567596 L7.44290784,9.76419894 C7.61768286,9.82444502 7.8051522,9.85717094 8.00011009,9.85717094 C8.94525682,9.85717094 9.71440283,9.08802494 9.71440283,8.14287821 C9.71440283,7.94792032 9.6816769,7.76045097 9.62143083,7.58567596 Z" id="path-1"></path>
    </defs>
    <g id="Icons/Set/view-off" stroke="none" stroke-width="1" fill="none" fill-rule="evenodd">
        <mask id="mask-2" fill="white">
            <use xlink:href="#path-1"></use>
        </mask>
        <use id="Combined-Shape" fill="#000000" fill-rule="nonzero" xlink:href="#path-1"></use>
    </g>
</svg>