<?xml version="1.0" encoding="UTF-8"?>
<svg width="16px" height="16px" viewBox="0 0 16 16" version="1.1" xmlns="http://www.w3.org/2000/svg" xmlns:xlink="http://www.w3.org/1999/xlink">
    <!-- Generator: Sketch 51.2 (57519) - http://www.bohemiancoding.com/sketch -->
    <title>Icons/Set/word</title>
    <desc>Created with Sketch.</desc>
    <defs></defs>
    <g id="Icons/Set/word" stroke="none" stroke-width="1" fill="none" fill-rule="evenodd">
        <g id="🎨-color" fill="#000000" fill-rule="nonzero">
            <path d="M15.0608342,3.39003257 L9.37668347,3.39003257 L9.37668347,1.894086 C9.37814967,1.80445844 9.33935511,1.71889559 9.27097487,1.66094168 C9.20259462,1.60298777 9.1118341,1.57874957 9.02366779,1.59489668 L1.2453563,3.09084326 C1.10142986,3.11716214 0.997654099,3.24372788 1.00004032,3.39003257 L1.00004032,14.1608479 C1.00056864,14.3049003 1.10366675,14.4281248 1.2453563,14.4540534 L9.02366779,15.95 L9.07751764,15.95 C9.24274236,15.95 9.37668347,15.8160484 9.37668347,15.6508107 L9.37668347,14.1608479 L15.0608342,14.1608479 C15.2260589,14.1608479 15.36,14.0268963 15.36,13.8616586 L15.36,3.68922189 C15.36,3.52398419 15.2260589,3.39003257 15.0608342,3.39003257 Z M7.58168851,6.45971494 L6.3850252,10.9475547 C6.34892661,11.0819559 6.22493224,11.1737189 6.08585937,11.1689548 C5.94849109,11.1744226 5.82507836,11.0855584 5.78669355,10.9535384 L4.87722943,7.73426142 L3.99169859,10.6603329 C3.95958473,10.7933024 3.83470347,10.8825103 3.69851608,10.8697654 C3.55549417,10.8767727 3.42756183,10.7814431 3.39336693,10.6423816 L2.49586945,7.05210978 C2.45621552,6.88687209 2.55801076,6.72077208 2.72323548,6.68111503 C2.88846021,6.64145799 3.05454717,6.74326122 3.09420111,6.90849891 L3.72843266,9.45759187 L4.59003024,6.59135824 C4.64309669,6.47138031 4.7583103,6.39072446 4.88919607,6.38192572 C5.02656435,6.37645788 5.14997708,6.46532203 5.18836189,6.59734202 L6.08585937,9.74481361 L6.98335685,6.3041365 C7.02631528,6.1388988 7.19508107,6.03977461 7.36030579,6.08273641 C7.52553052,6.12569821 7.62464693,6.29447725 7.58168851,6.45971494 Z M14.7616683,13.5624693 L9.37668347,13.5624693 L9.37668347,12.6649013 L13.8641709,12.6649013 C14.0293956,12.6649013 14.1633367,12.5309497 14.1633367,12.365712 C14.1633367,12.2004743 14.0293956,12.0665227 13.8641709,12.0665227 L9.37668347,12.0665227 L9.37668347,10.8697654 L13.8641709,10.8697654 C14.0293956,10.8697654 14.1633367,10.7358138 14.1633367,10.5705761 C14.1633367,10.4053384 14.0293956,10.2713868 13.8641709,10.2713868 L9.37668347,10.2713868 L9.37668347,9.07462955 L13.8641709,9.07462955 C14.0293956,9.07462955 14.1633367,8.94067793 14.1633367,8.77544023 C14.1633367,8.61020254 14.0293956,8.47625092 13.8641709,8.47625092 L9.37668347,8.47625092 L9.37668347,7.27949366 L13.8641709,7.27949366 C14.0293956,7.27949366 14.1633367,7.14554204 14.1633367,6.98030435 C14.1633367,6.81506665 14.0293956,6.68111503 13.8641709,6.68111503 L9.37668347,6.68111503 L9.37668347,5.48435777 L13.8641709,5.48435777 C14.0293956,5.48435777 14.1633367,5.35040615 14.1633367,5.18516846 C14.1633367,5.01993076 14.0293956,4.88597914 13.8641709,4.88597914 L9.37668347,4.88597914 L9.37668347,3.9884112 L14.7616683,3.9884112 L14.7616683,13.5624693 Z" id="Shape"></path>
        </g>
    </g>
</svg>